if (_typeface_js && _typeface_js.loadFace) _typeface_js.loadFace({"glyphs":{"0":{"ha":949,"x_min":61,"x_max":888,"o":"m 481 943 q 644 908 569 943 q 774 808 719 872 q 858 656 828 744 q 888 463 888 568 q 857 269 888 357 q 772 117 826 181 q 642 19 718 54 q 475 -17 567 -17 q 307 19 383 -17 q 176 117 231 54 q 92 269 122 181 q 61 463 61 357 q 90 650 61 563 q 172 804 118 738 q 481 943 283 943 m 471 818 q 367 792 414 818 q 286 718 321 765 q 233 606 251 671 q 214 463 214 540 q 233 319 214 383 q 286 207 251 254 q 369 134 321 160 q 474 108 417 108 q 580 134 532 108 q 662 207 628 160 q 715 319 696 254 q 735 463 735 383 q 716 608 735 542 q 663 720 697 674 q 579 792 628 767 q 471 818 531 818 z "},"1":{"ha":949,"x_min":300,"x_max":613,"o":"m 300 815 l 321 815 q 350 790 325 790 q 369 794 361 790 l 428 815 l 428 856 q 418 886 428 875 q 385 904 408 897 l 385 926 l 613 926 l 613 904 q 579 887 589 897 q 569 856 569 876 l 569 71 q 579 40 569 51 q 613 22 589 29 l 613 0 l 385 0 l 385 22 q 418 40 408 29 q 428 71 428 51 l 428 694 l 388 681 q 342 660 356 669 q 321 629 329 651 l 300 629 l 300 815 z "},"2":{"ha":949,"x_min":63,"x_max":883,"o":"m 813 119 q 861 164 850 119 l 883 164 l 883 -43 l 861 -43 q 844 -10 854 -19 q 813 0 833 0 l 140 0 q 109 -10 119 0 q 92 -43 99 -19 l 69 -43 q 160 226 63 101 q 453 442 258 350 l 513 474 q 632 560 596 517 q 668 660 668 604 q 617 775 668 732 q 481 818 565 818 q 388 802 435 818 q 301 761 340 786 q 238 705 263 736 q 214 644 214 674 q 218 618 214 639 l 200 606 l 65 790 l 82 804 q 103 794 96 797 q 118 792 111 792 q 140 797 129 792 q 171 817 151 801 q 341 913 263 883 q 504 943 419 943 q 633 923 575 943 q 733 866 692 903 q 798 777 775 829 q 821 663 821 725 q 808 574 821 614 q 765 497 794 533 q 690 428 736 461 q 576 363 643 396 l 514 332 q 338 226 400 275 q 244 119 276 176 l 813 119 z "},"3":{"ha":949,"x_min":24,"x_max":888,"o":"m 83 842 q 117 826 107 826 q 124 827 121 826 q 132 830 126 828 q 147 838 138 832 q 174 853 157 843 q 333 922 260 901 q 496 943 406 943 q 635 924 572 943 q 744 870 699 904 q 815 788 790 836 q 840 681 840 739 q 815 583 840 622 q 731 507 789 543 q 888 272 888 433 q 860 153 888 207 q 785 63 833 100 q 667 4 736 25 q 514 -17 599 -17 q 138 86 325 -17 q 103 101 117 97 q 78 106 90 106 q 65 102 71 106 q 43 86 58 99 l 24 97 l 129 296 l 149 286 q 145 275 146 279 q 144 265 144 271 q 156 238 144 251 q 200 206 168 225 q 357 133 275 158 q 517 108 439 108 q 654 139 603 108 q 714 198 692 160 q 736 281 736 236 q 471 443 736 443 q 422 442 440 443 q 394 435 404 440 q 378 422 383 431 q 368 399 372 413 l 346 399 l 346 606 l 368 606 q 377 581 372 590 q 393 567 382 572 q 424 561 404 563 q 475 560 443 560 q 570 565 533 560 q 635 582 607 571 q 681 620 664 593 q 699 681 699 647 q 642 781 699 744 q 486 817 586 817 q 292 769 376 817 q 235 728 256 750 q 214 690 214 707 q 215 679 214 685 q 221 661 217 674 l 204 649 l 67 828 l 83 842 z "},"4":{"ha":949,"x_min":49,"x_max":911,"o":"m 119 179 q 88 169 99 179 q 71 135 78 160 l 49 135 l 49 299 l 503 833 q 528 865 522 856 q 535 883 535 875 q 501 904 535 901 l 501 926 l 806 926 l 806 904 q 772 887 782 897 q 763 856 763 876 l 763 299 l 840 299 q 889 342 878 299 l 911 342 l 911 135 l 889 135 q 872 169 882 158 q 840 179 861 179 l 763 179 l 763 71 q 772 40 763 51 q 806 22 782 29 l 806 0 l 578 0 l 578 22 q 611 40 601 29 q 621 71 621 51 l 621 179 l 119 179 m 621 783 l 203 299 l 621 299 l 621 783 z "},"5":{"ha":949,"x_min":56,"x_max":892,"o":"m 188 278 l 206 267 q 200 247 201 254 q 199 233 199 240 q 225 190 199 213 q 292 150 251 168 q 383 120 333 132 q 482 108 433 108 q 586 124 539 108 q 667 167 633 139 q 720 235 701 196 q 739 321 739 274 q 675 466 739 413 q 503 519 611 519 q 426 513 463 519 q 363 494 390 506 q 320 467 336 482 q 304 433 304 451 q 311 411 304 425 l 296 394 l 68 594 l 83 610 l 89 610 q 118 624 110 610 q 123 638 122 632 q 124 675 124 644 l 124 856 q 114 886 124 875 q 81 904 104 897 l 81 926 l 764 926 q 794 936 783 926 q 813 969 806 946 l 835 969 l 835 763 l 813 763 q 795 797 806 788 q 764 807 785 807 l 254 807 l 254 574 q 377 628 317 611 q 511 644 438 644 q 666 621 596 644 q 786 554 736 597 q 864 451 836 511 q 892 319 892 392 q 863 180 892 242 q 783 74 835 118 q 657 7 731 31 q 492 -17 583 -17 q 411 -12 449 -17 q 335 3 374 -7 q 253 32 296 14 q 160 76 211 50 q 106 97 122 97 q 88 89 97 97 q 80 83 83 86 q 74 78 76 81 l 56 90 l 188 278 z "},"6":{"ha":949,"x_min":74,"x_max":889,"o":"m 768 700 l 747 710 q 750 723 750 718 q 750 732 750 728 q 731 763 750 747 q 680 790 711 778 q 609 809 649 801 q 531 817 569 817 q 372 778 443 817 q 263 669 301 740 q 230 588 240 629 q 214 488 219 547 q 521 624 344 624 q 667 599 600 624 q 784 532 735 575 q 861 430 833 489 q 889 301 889 371 q 860 172 889 231 q 781 71 832 113 q 656 6 729 29 q 496 -17 583 -17 q 169 118 275 -17 q 74 436 74 239 q 131 708 74 590 q 293 885 189 826 q 406 928 342 913 q 542 943 471 943 q 590 940 567 943 q 639 932 613 938 q 696 916 665 926 q 767 892 726 906 q 800 886 782 886 q 840 908 819 886 l 858 901 l 768 700 m 488 503 q 391 488 435 503 q 315 446 347 472 q 264 383 282 419 q 246 303 246 346 q 264 222 246 258 q 315 159 282 186 q 392 117 347 132 q 490 103 438 103 q 590 117 544 103 q 667 158 635 132 q 718 222 700 185 q 736 301 736 258 q 718 383 736 346 q 667 447 700 421 q 589 488 635 474 q 488 503 543 503 z "},"7":{"ha":949,"x_min":63,"x_max":888,"o":"m 133 807 q 103 797 114 807 q 85 763 92 788 l 63 763 l 63 969 l 85 969 q 102 936 92 946 q 133 926 113 926 l 817 926 q 848 936 838 926 q 865 969 858 946 l 888 969 l 888 835 l 513 111 q 503 94 507 103 q 493 76 499 86 q 485 51 485 61 q 492 34 485 40 q 521 21 499 28 l 521 0 l 264 0 l 264 21 q 291 32 281 26 q 310 47 301 38 q 330 73 319 56 q 357 121 340 90 l 718 807 l 133 807 z "},"8":{"ha":949,"x_min":47,"x_max":901,"o":"m 715 493 q 901 267 901 424 q 872 148 901 200 q 788 59 843 96 q 653 3 732 22 q 475 -17 575 -17 q 168 54 282 -17 q 79 145 111 89 q 47 267 47 201 q 92 402 47 347 q 233 493 138 457 q 118 577 154 531 q 82 690 82 624 q 109 796 82 749 q 187 876 136 843 q 310 926 238 908 q 474 943 383 943 q 638 926 565 943 q 761 876 710 908 q 840 796 813 843 q 867 690 867 749 q 831 576 867 624 q 715 493 794 529 m 471 818 q 288 783 353 818 q 224 682 224 747 q 242 623 224 651 q 293 579 261 594 q 475 546 360 546 q 660 581 594 546 q 725 682 725 617 q 706 741 725 713 q 656 785 688 769 q 577 810 621 803 q 471 818 533 818 m 471 415 q 272 374 344 415 q 200 261 200 332 q 273 149 200 190 q 475 108 346 108 q 676 149 603 108 q 749 261 749 190 q 675 375 749 335 q 471 415 601 415 z "},"9":{"ha":949,"x_min":60,"x_max":875,"o":"m 181 226 l 200 217 q 199 202 199 207 q 199 194 199 197 q 218 164 199 179 q 269 136 238 149 q 340 116 300 124 q 418 108 379 108 q 576 147 506 108 q 685 256 647 186 q 718 337 707 296 q 735 439 729 378 q 428 303 603 303 q 281 327 349 303 q 165 394 214 351 q 88 497 115 438 q 60 625 60 556 q 88 755 60 696 q 168 856 117 814 q 292 920 219 897 q 453 943 365 943 q 779 808 674 943 q 875 490 875 688 q 817 218 875 336 q 656 42 760 100 q 542 -1 607 14 q 407 -17 478 -17 q 359 -14 382 -17 q 310 -6 336 -11 q 252 10 283 0 q 182 35 221 19 q 147 40 165 40 q 108 18 129 40 l 90 25 l 181 226 m 454 824 q 358 808 401 824 q 281 767 314 793 q 231 703 249 740 q 213 624 213 667 q 231 543 213 579 q 281 480 249 507 q 359 438 314 453 q 457 424 404 424 q 556 438 511 424 q 634 480 601 453 q 685 543 667 507 q 703 624 703 579 q 685 705 703 668 q 633 768 667 742 q 554 809 600 794 q 454 824 508 824 z "}," ":{"ha":347,"x_min":0,"x_max":0,"o":""},"Ã":{"ha":1069,"x_min":4,"x_max":1074,"o":"m 285 240 l 215 83 q 206 60 207 64 q 204 49 204 56 q 213 31 204 38 q 244 22 221 25 l 244 0 l 4 0 l 4 22 q 28 28 18 24 q 46 42 38 32 q 63 67 54 51 q 85 110 72 83 l 414 842 q 424 865 421 858 q 426 878 426 872 q 419 894 426 889 q 393 904 413 900 l 393 926 l 664 926 l 664 904 q 638 892 644 899 q 631 875 631 886 q 633 865 631 871 q 643 842 635 860 l 976 136 q 1003 77 993 99 q 1023 45 1014 56 q 1043 31 1032 35 q 1074 22 1054 26 l 1074 0 l 815 0 l 815 22 q 856 51 856 26 q 840 93 856 61 l 771 240 l 285 240 m 522 775 l 339 361 l 715 361 l 522 775 m 761 1103 l 750 1088 q 735 1091 738 1090 q 731 1092 733 1092 q 714 1081 721 1092 q 621 1018 669 1018 q 565 1031 596 1018 l 469 1068 q 455 1072 463 1071 q 440 1074 447 1074 q 415 1063 428 1074 q 403 1040 403 1051 q 411 1021 403 1031 l 401 1010 l 308 1086 l 318 1099 q 336 1096 332 1096 q 348 1099 343 1096 q 360 1111 353 1101 q 405 1149 379 1135 q 458 1164 431 1164 q 501 1156 481 1164 l 599 1117 q 632 1108 617 1108 q 656 1119 644 1108 q 668 1143 668 1131 q 658 1164 668 1153 l 669 1176 l 761 1103 z "},"Å":{"ha":1069,"x_min":4,"x_max":1074,"o":"m 285 240 l 215 83 q 206 60 207 64 q 204 49 204 56 q 213 31 204 38 q 244 22 221 25 l 244 0 l 4 0 l 4 22 q 28 28 18 24 q 46 42 38 32 q 63 67 54 51 q 85 110 72 83 l 414 842 q 424 865 421 858 q 426 878 426 872 q 419 894 426 889 q 393 904 413 900 l 393 926 l 664 926 l 664 904 q 638 892 644 899 q 631 875 631 886 q 633 865 631 871 q 643 842 635 860 l 976 136 q 1003 77 993 99 q 1023 45 1014 56 q 1043 31 1032 35 q 1074 22 1054 26 l 1074 0 l 815 0 l 815 22 q 856 51 856 26 q 840 93 856 61 l 771 240 l 285 240 m 522 769 l 339 361 l 715 361 l 522 769 m 532 1213 q 628 1179 589 1213 q 667 1099 667 1146 q 627 1016 667 1050 q 531 982 588 982 q 478 991 503 982 q 434 1016 453 1000 q 404 1053 415 1032 q 393 1097 393 1074 q 433 1179 393 1146 q 532 1213 472 1213 m 529 1151 q 483 1136 501 1151 q 465 1097 465 1121 q 484 1059 465 1075 q 531 1043 503 1043 q 576 1059 557 1043 q 594 1097 594 1075 q 576 1136 594 1121 q 529 1151 557 1151 z "},"Ë":{"ha":992,"x_min":93,"x_max":936,"o":"m 283 121 l 865 121 q 897 131 886 121 q 915 164 908 140 l 936 164 l 936 -43 l 915 -43 q 897 -10 908 -19 q 865 0 886 0 l 93 0 l 93 22 q 126 40 117 29 q 136 71 136 51 l 136 856 q 126 886 136 875 q 93 904 117 897 l 93 926 l 839 926 q 869 936 858 926 q 888 969 881 946 l 910 969 l 910 763 l 888 763 q 870 796 881 786 q 839 806 860 806 l 283 806 l 283 538 l 649 538 q 697 582 686 538 l 719 582 l 719 375 l 697 375 q 680 408 690 399 q 649 417 669 417 l 283 417 l 283 121 m 394 1165 q 447 1142 425 1165 q 469 1088 469 1119 q 447 1033 469 1056 q 393 1011 425 1011 q 338 1033 361 1011 q 315 1088 315 1056 q 338 1142 315 1119 q 394 1165 361 1165 m 640 1165 q 693 1142 671 1165 q 715 1088 715 1119 q 692 1033 715 1056 q 638 1011 669 1011 q 583 1033 606 1011 q 561 1088 561 1056 q 584 1142 561 1119 q 640 1165 607 1165 z "},"É":{"ha":992,"x_min":93,"x_max":936,"o":"m 283 121 l 865 121 q 897 131 886 121 q 915 164 908 140 l 936 164 l 936 -43 l 915 -43 q 897 -10 908 -19 q 865 0 886 0 l 93 0 l 93 22 q 126 40 117 29 q 136 71 136 51 l 136 856 q 126 886 136 875 q 93 904 117 897 l 93 926 l 839 926 q 869 936 858 926 q 888 969 881 946 l 910 969 l 910 763 l 888 763 q 870 796 881 786 q 839 806 860 806 l 283 806 l 283 538 l 649 538 q 697 582 686 538 l 719 582 l 719 375 l 697 375 q 680 408 690 399 q 649 417 669 417 l 283 417 l 283 121 m 682 1179 q 661 1174 668 1178 q 647 1160 654 1171 l 556 1043 q 551 1032 551 1039 q 565 1021 551 1021 l 568 1021 l 568 1003 l 432 1003 l 432 1021 q 454 1025 447 1021 q 468 1046 461 1029 l 518 1156 q 521 1165 521 1164 q 501 1179 521 1176 l 501 1197 l 682 1197 l 682 1179 z "},"È":{"ha":992,"x_min":93,"x_max":936,"o":"m 283 121 l 865 121 q 897 131 886 121 q 915 164 908 140 l 936 164 l 936 -43 l 915 -43 q 897 -10 908 -19 q 865 0 886 0 l 93 0 l 93 22 q 126 40 117 29 q 136 71 136 51 l 136 856 q 126 886 136 875 q 93 904 117 897 l 93 926 l 839 926 q 869 936 858 926 q 888 969 881 946 l 910 969 l 910 763 l 888 763 q 870 796 881 786 q 839 806 860 806 l 283 806 l 283 538 l 649 538 q 697 582 686 538 l 719 582 l 719 375 l 697 375 q 680 408 690 399 q 649 417 669 417 l 283 417 l 283 121 m 524 1197 l 524 1179 q 504 1165 504 1176 q 507 1156 504 1164 l 557 1046 q 571 1025 564 1029 q 593 1021 578 1021 l 593 1003 l 457 1003 l 457 1021 l 460 1021 q 474 1032 474 1021 q 469 1043 474 1039 l 378 1160 q 364 1174 371 1171 q 343 1179 357 1178 l 343 1197 l 524 1197 z "},"Ê":{"ha":992,"x_min":93,"x_max":936,"o":"m 283 121 l 865 121 q 897 131 886 121 q 915 164 908 140 l 936 164 l 936 -43 l 915 -43 q 897 -10 908 -19 q 865 0 886 0 l 93 0 l 93 22 q 126 40 117 29 q 136 71 136 51 l 136 856 q 126 886 136 875 q 93 904 117 897 l 93 926 l 839 926 q 869 936 858 926 q 888 969 881 946 l 910 969 l 910 763 l 888 763 q 870 796 881 786 q 839 806 860 806 l 283 806 l 283 538 l 649 538 q 697 582 686 538 l 719 582 l 719 375 l 697 375 q 680 408 690 399 q 649 417 669 417 l 283 417 l 283 121 m 294 1003 l 294 1021 q 318 1026 311 1022 l 328 1035 l 342 1049 l 438 1150 q 444 1168 444 1160 q 422 1179 444 1179 l 422 1197 l 608 1197 l 608 1179 q 588 1167 588 1178 q 599 1147 588 1158 l 706 1035 q 718 1024 713 1026 q 736 1021 724 1022 l 736 1003 l 560 1003 l 560 1021 q 581 1031 581 1022 q 578 1036 581 1033 q 569 1047 576 1039 l 504 1126 l 432 1044 q 426 1033 426 1039 q 446 1021 426 1022 l 446 1003 l 294 1003 z "},"Ï":{"ha":419,"x_min":33,"x_max":388,"o":"m 283 71 q 326 22 283 33 l 326 0 l 93 0 l 93 22 q 126 40 117 29 q 136 71 136 51 l 136 856 q 126 886 136 875 q 93 904 117 897 l 93 926 l 326 926 l 326 904 q 283 856 283 893 l 283 71 m 113 1165 q 165 1142 143 1165 q 188 1088 188 1119 q 165 1033 188 1056 q 111 1011 143 1011 q 56 1033 79 1011 q 33 1088 33 1056 q 56 1142 33 1119 q 113 1165 79 1165 m 313 1165 q 365 1142 343 1165 q 388 1088 388 1119 q 365 1033 388 1056 q 310 1011 342 1011 q 256 1033 278 1011 q 233 1088 233 1056 q 256 1142 233 1119 q 313 1165 279 1165 z "},"Í":{"ha":419,"x_min":93,"x_max":388,"o":"m 283 71 q 326 22 283 33 l 326 0 l 93 0 l 93 22 q 126 40 117 29 q 136 71 136 51 l 136 856 q 126 886 136 875 q 93 904 117 897 l 93 926 l 326 926 l 326 904 q 283 856 283 893 l 283 71 m 388 1179 q 367 1174 374 1178 q 353 1160 360 1171 l 261 1043 q 257 1032 257 1039 q 271 1021 257 1021 l 274 1021 l 274 1003 l 138 1003 l 138 1021 q 160 1025 153 1021 q 174 1046 167 1029 l 224 1156 q 226 1165 226 1164 q 207 1179 226 1176 l 207 1197 l 388 1197 l 388 1179 z "},"Ì":{"ha":419,"x_min":32,"x_max":326,"o":"m 283 71 q 326 22 283 33 l 326 0 l 93 0 l 93 22 q 126 40 117 29 q 136 71 136 51 l 136 856 q 126 886 136 875 q 93 904 117 897 l 93 926 l 326 926 l 326 904 q 283 856 283 893 l 283 71 m 213 1197 l 213 1179 q 193 1165 193 1176 q 196 1156 193 1164 l 246 1046 q 260 1025 253 1029 q 282 1021 267 1021 l 282 1003 l 146 1003 l 146 1021 l 149 1021 q 163 1032 163 1021 q 158 1043 163 1039 l 67 1160 q 53 1174 60 1171 q 32 1179 46 1178 l 32 1197 l 213 1197 z "},"Î":{"ha":419,"x_min":3,"x_max":417,"o":"m 283 71 q 326 22 283 33 l 326 0 l 93 0 l 93 22 q 126 40 117 29 q 136 71 136 51 l 136 856 q 126 886 136 875 q 93 904 117 897 l 93 926 l 326 926 l 326 904 q 283 856 283 893 l 283 71 m 3 1003 l 3 1021 q 16 1022 11 1021 q 25 1026 21 1024 q 35 1034 29 1029 q 50 1049 40 1039 l 132 1150 q 139 1168 139 1160 q 117 1179 139 1179 l 117 1197 l 303 1197 l 303 1179 q 282 1167 282 1178 q 284 1160 282 1163 q 293 1147 286 1157 l 386 1035 q 399 1024 393 1028 q 417 1021 406 1021 l 417 1003 l 240 1003 l 240 1021 q 261 1031 261 1022 q 257 1040 261 1033 l 250 1047 l 199 1126 l 140 1044 q 135 1033 135 1038 q 154 1021 135 1022 l 154 1003 l 3 1003 z "},"Ñ":{"ha":1185,"x_min":93,"x_max":1092,"o":"m 267 71 q 276 40 267 51 q 310 22 286 29 l 310 0 l 93 0 l 93 22 q 126 40 117 29 q 136 71 136 51 l 136 856 q 126 886 136 875 q 93 904 117 897 l 93 926 l 404 926 l 404 904 q 372 874 372 893 q 378 856 372 865 q 404 824 385 847 l 918 239 l 918 856 q 908 886 918 875 q 875 904 899 897 l 875 926 l 1092 926 l 1092 904 q 1058 887 1068 897 q 1049 856 1049 876 l 1049 71 q 1058 40 1049 51 q 1092 22 1068 29 l 1092 0 l 844 0 l 844 22 q 875 49 875 31 q 846 99 875 68 l 267 756 l 267 71 m 828 1103 l 817 1088 q 802 1091 804 1090 q 797 1092 800 1092 q 781 1081 788 1092 q 688 1018 736 1018 q 632 1031 663 1018 l 536 1068 q 522 1072 529 1071 q 507 1074 514 1074 q 482 1063 494 1074 q 469 1040 469 1051 q 478 1021 469 1031 l 468 1010 l 375 1086 l 385 1099 q 403 1096 399 1096 q 415 1099 410 1096 q 426 1111 419 1101 q 472 1149 446 1135 q 525 1164 497 1164 q 568 1156 547 1164 l 665 1117 q 699 1108 683 1108 q 723 1119 711 1108 q 735 1143 735 1131 q 725 1164 735 1153 l 736 1176 l 828 1103 z "},"Ö":{"ha":1189,"x_min":71,"x_max":1118,"o":"m 601 943 q 938 838 800 943 q 1070 672 1022 771 q 1118 463 1118 572 q 1070 255 1118 354 q 938 89 1022 156 q 594 -17 803 -17 q 251 89 386 -17 q 119 254 167 154 q 71 463 71 354 q 119 672 71 572 q 251 838 167 772 q 406 917 322 892 q 601 943 490 943 m 589 818 q 440 792 507 818 q 324 720 372 767 q 250 608 276 674 q 224 463 224 542 q 250 318 224 383 q 325 206 276 253 q 442 134 374 160 q 594 108 511 108 q 746 134 678 108 q 863 206 814 160 q 939 318 913 253 q 965 463 965 383 q 872 711 965 614 q 750 792 818 767 q 589 818 682 818 m 478 1165 q 531 1142 508 1165 q 553 1088 553 1119 q 531 1033 553 1056 q 476 1011 508 1011 q 422 1033 444 1011 q 399 1088 399 1056 q 422 1142 399 1119 q 478 1165 444 1165 m 724 1165 q 776 1142 754 1165 q 799 1088 799 1119 q 776 1033 799 1056 q 721 1011 753 1011 q 667 1033 689 1011 q 644 1088 644 1056 q 667 1142 644 1119 q 724 1165 690 1165 z "},"Ó":{"ha":1189,"x_min":71,"x_max":1118,"o":"m 601 943 q 938 838 800 943 q 1070 672 1022 771 q 1118 463 1118 572 q 1070 255 1118 354 q 938 89 1022 156 q 594 -17 803 -17 q 251 89 386 -17 q 119 254 167 154 q 71 463 71 354 q 119 672 71 572 q 251 838 167 772 q 406 917 322 892 q 601 943 490 943 m 589 818 q 440 792 507 818 q 324 720 372 767 q 250 608 276 674 q 224 463 224 542 q 250 318 224 383 q 325 206 276 253 q 442 134 374 160 q 594 108 511 108 q 746 134 678 108 q 863 206 814 160 q 939 318 913 253 q 965 463 965 383 q 872 711 965 614 q 750 792 818 767 q 589 818 682 818 m 765 1179 q 744 1174 751 1178 q 731 1160 738 1171 l 639 1043 q 635 1032 635 1039 q 649 1021 635 1021 l 651 1021 l 651 1003 l 515 1003 l 515 1021 q 538 1025 531 1021 q 551 1046 544 1029 l 601 1156 q 604 1165 604 1164 q 585 1179 604 1176 l 585 1197 l 765 1197 l 765 1179 z "},"Ò":{"ha":1189,"x_min":71,"x_max":1118,"o":"m 601 943 q 938 838 800 943 q 1070 672 1022 771 q 1118 463 1118 572 q 1070 255 1118 354 q 938 89 1022 156 q 594 -17 803 -17 q 251 89 386 -17 q 119 254 167 154 q 71 463 71 354 q 119 672 71 572 q 251 838 167 772 q 406 917 322 892 q 601 943 490 943 m 589 818 q 440 792 507 818 q 324 720 372 767 q 250 608 276 674 q 224 463 224 542 q 250 318 224 383 q 325 206 276 253 q 442 134 374 160 q 594 108 511 108 q 746 134 678 108 q 863 206 814 160 q 939 318 913 253 q 965 463 965 383 q 872 711 965 614 q 750 792 818 767 q 589 818 682 818 m 604 1197 l 604 1179 q 585 1165 585 1176 q 588 1156 585 1164 l 638 1046 q 651 1025 644 1029 q 674 1021 658 1021 l 674 1003 l 538 1003 l 538 1021 l 540 1021 q 554 1032 554 1021 q 550 1043 554 1039 l 458 1160 q 444 1174 451 1171 q 424 1179 438 1178 l 424 1197 l 604 1197 z "},"Ô":{"ha":1189,"x_min":71,"x_max":1118,"o":"m 601 943 q 938 838 800 943 q 1070 672 1022 771 q 1118 463 1118 572 q 1070 255 1118 354 q 938 89 1022 156 q 594 -17 803 -17 q 251 89 386 -17 q 119 254 167 154 q 71 463 71 354 q 119 672 71 572 q 251 838 167 772 q 406 917 322 892 q 601 943 490 943 m 589 818 q 440 792 507 818 q 324 720 372 767 q 250 608 276 674 q 224 463 224 542 q 250 318 224 383 q 325 206 276 253 q 442 134 374 160 q 594 108 511 108 q 746 134 678 108 q 863 206 814 160 q 939 318 913 253 q 965 463 965 383 q 872 711 965 614 q 750 792 818 767 q 589 818 682 818 m 378 1003 l 378 1021 q 401 1026 394 1022 l 411 1035 l 425 1049 l 521 1150 q 528 1168 528 1160 q 506 1179 528 1179 l 506 1197 l 692 1197 l 692 1179 q 671 1167 671 1178 q 682 1147 671 1158 l 789 1035 q 801 1024 796 1026 q 819 1021 807 1022 l 819 1003 l 643 1003 l 643 1021 q 664 1031 664 1022 q 662 1036 664 1033 q 653 1047 660 1039 l 588 1126 l 515 1044 q 510 1033 510 1039 q 529 1021 510 1022 l 529 1003 l 378 1003 z "},"Õ":{"ha":1189,"x_min":71,"x_max":1118,"o":"m 601 943 q 938 838 800 943 q 1070 672 1022 771 q 1118 463 1118 572 q 1070 255 1118 354 q 938 89 1022 156 q 594 -17 803 -17 q 251 89 386 -17 q 119 254 167 154 q 71 463 71 354 q 119 672 71 572 q 251 838 167 772 q 406 917 322 892 q 601 943 490 943 m 589 818 q 440 792 507 818 q 324 720 372 767 q 250 608 276 674 q 224 463 224 542 q 250 318 224 383 q 325 206 276 253 q 442 134 374 160 q 594 108 511 108 q 746 134 678 108 q 863 206 814 160 q 939 318 913 253 q 965 463 965 383 q 872 711 965 614 q 750 792 818 767 q 589 818 682 818 m 831 1103 l 819 1088 q 805 1091 807 1090 q 800 1092 803 1092 q 783 1081 790 1092 q 690 1018 739 1018 q 635 1031 665 1018 l 539 1068 q 524 1072 532 1071 q 510 1074 517 1074 q 485 1063 497 1074 q 472 1040 472 1051 q 481 1021 472 1031 l 471 1010 l 378 1086 l 388 1099 q 406 1096 401 1096 q 417 1099 413 1096 q 429 1111 422 1101 q 474 1149 449 1135 q 528 1164 500 1164 q 571 1156 550 1164 l 668 1117 q 701 1108 686 1108 q 726 1119 714 1108 q 738 1143 738 1131 q 728 1164 738 1153 l 739 1176 l 831 1103 z "},"Š":{"ha":1035,"x_min":46,"x_max":989,"o":"m 844 674 l 826 685 q 828 697 828 693 q 828 706 828 701 q 815 737 828 724 q 768 768 801 750 q 536 818 665 818 q 419 807 472 818 q 327 775 365 796 q 268 726 289 754 q 247 663 247 697 q 266 610 247 632 q 318 581 285 589 q 340 576 331 578 q 366 572 350 574 q 410 566 382 569 q 489 557 438 563 l 608 544 q 756 522 699 535 q 860 486 813 510 q 955 399 921 456 q 989 272 989 343 q 956 145 989 204 q 863 50 922 86 q 731 -1 806 15 q 553 -17 657 -17 q 348 7 440 -17 q 160 83 256 31 q 121 104 133 99 q 101 110 108 110 q 87 106 94 110 q 64 92 79 103 l 46 103 l 172 299 l 190 286 l 189 276 q 187 265 188 269 q 186 257 186 260 q 233 199 186 233 q 374 131 300 153 q 538 108 447 108 q 665 119 608 108 q 763 151 722 131 q 824 201 803 172 q 846 267 846 231 q 822 333 846 304 q 753 375 797 361 q 722 383 738 379 q 688 390 707 386 q 640 396 668 393 q 568 403 611 399 l 449 415 q 365 425 401 419 q 300 438 329 431 q 248 453 271 444 q 206 474 225 463 q 135 546 161 499 q 108 650 108 593 q 138 771 108 717 q 221 863 167 825 q 351 922 275 901 q 522 943 428 943 q 672 929 603 943 q 819 885 740 915 q 894 863 872 863 q 910 866 904 863 q 928 882 917 869 l 947 872 l 844 674 m 761 1197 l 761 1179 q 738 1174 744 1178 q 728 1165 733 1171 l 714 1151 l 618 1050 q 611 1032 611 1040 q 633 1021 611 1021 l 633 1003 l 447 1003 l 447 1021 q 468 1033 468 1022 q 457 1053 468 1042 l 350 1165 q 338 1176 343 1174 q 319 1179 332 1178 l 319 1197 l 496 1197 l 496 1179 q 475 1169 475 1178 q 477 1164 475 1167 q 486 1153 479 1161 l 551 1074 l 624 1156 q 629 1167 629 1161 q 610 1179 629 1178 l 610 1197 l 761 1197 z "},"Ü":{"ha":1094,"x_min":74,"x_max":1019,"o":"m 264 378 q 267 307 264 338 q 275 253 269 276 q 290 213 281 231 q 315 181 300 194 q 412 127 349 146 q 556 108 475 108 q 699 127 635 108 q 796 181 763 146 q 819 213 810 194 q 835 253 829 231 q 843 307 840 276 q 846 378 846 338 l 846 856 q 836 886 846 875 q 803 904 826 897 l 803 926 l 1019 926 l 1019 904 q 986 887 996 897 q 976 856 976 876 l 976 351 q 951 185 976 254 q 874 70 926 115 q 741 4 822 25 q 547 -17 660 -17 q 352 4 433 -17 q 219 70 271 25 q 142 185 167 115 q 117 351 117 254 l 117 856 q 107 887 117 876 q 74 904 97 897 l 74 926 l 308 926 l 308 904 q 264 856 264 894 l 264 378 m 431 1165 q 483 1142 461 1165 q 506 1088 506 1119 q 483 1033 506 1056 q 429 1011 461 1011 q 374 1033 397 1011 q 351 1088 351 1056 q 374 1142 351 1119 q 431 1165 397 1165 m 676 1165 q 729 1142 707 1165 q 751 1088 751 1119 q 728 1033 751 1056 q 674 1011 706 1011 q 619 1033 642 1011 q 597 1088 597 1056 q 620 1142 597 1119 q 676 1165 643 1165 z "},"Ú":{"ha":1094,"x_min":74,"x_max":1019,"o":"m 264 378 q 267 307 264 338 q 275 253 269 276 q 290 213 281 231 q 315 181 300 194 q 412 127 349 146 q 556 108 475 108 q 699 127 635 108 q 796 181 763 146 q 819 213 810 194 q 835 253 829 231 q 843 307 840 276 q 846 378 846 338 l 846 856 q 836 886 846 875 q 803 904 826 897 l 803 926 l 1019 926 l 1019 904 q 986 887 996 897 q 976 856 976 876 l 976 351 q 951 185 976 254 q 874 70 926 115 q 741 4 822 25 q 547 -17 660 -17 q 352 4 433 -17 q 219 70 271 25 q 142 185 167 115 q 117 351 117 254 l 117 856 q 107 887 117 876 q 74 904 97 897 l 74 926 l 308 926 l 308 904 q 264 856 264 894 l 264 378 m 718 1179 q 697 1174 704 1178 q 683 1160 690 1171 l 592 1043 q 588 1032 588 1039 q 601 1021 588 1021 l 604 1021 l 604 1003 l 468 1003 l 468 1021 q 490 1025 483 1021 q 504 1046 497 1029 l 554 1156 q 557 1165 557 1164 q 538 1179 557 1176 l 538 1197 l 718 1197 l 718 1179 z "},"Ù":{"ha":1094,"x_min":74,"x_max":1019,"o":"m 264 378 q 267 307 264 338 q 275 253 269 276 q 290 213 281 231 q 315 181 300 194 q 412 127 349 146 q 556 108 475 108 q 699 127 635 108 q 796 181 763 146 q 819 213 810 194 q 835 253 829 231 q 843 307 840 276 q 846 378 846 338 l 846 856 q 836 886 846 875 q 803 904 826 897 l 803 926 l 1019 926 l 1019 904 q 986 887 996 897 q 976 856 976 876 l 976 351 q 951 185 976 254 q 874 70 926 115 q 741 4 822 25 q 547 -17 660 -17 q 352 4 433 -17 q 219 70 271 25 q 142 185 167 115 q 117 351 117 254 l 117 856 q 107 887 117 876 q 74 904 97 897 l 74 926 l 308 926 l 308 904 q 264 856 264 894 l 264 378 m 565 1197 l 565 1179 q 546 1165 546 1176 q 549 1156 546 1164 l 599 1046 q 613 1025 606 1029 q 635 1021 619 1021 l 635 1003 l 499 1003 l 499 1021 l 501 1021 q 515 1032 515 1021 q 511 1043 515 1039 l 419 1160 q 406 1174 413 1171 q 385 1179 399 1178 l 385 1197 l 565 1197 z "},"Û":{"ha":1094,"x_min":74,"x_max":1019,"o":"m 264 378 q 267 307 264 338 q 275 253 269 276 q 290 213 281 231 q 315 181 300 194 q 412 127 349 146 q 556 108 475 108 q 699 127 635 108 q 796 181 763 146 q 819 213 810 194 q 835 253 829 231 q 843 307 840 276 q 846 378 846 338 l 846 856 q 836 886 846 875 q 803 904 826 897 l 803 926 l 1019 926 l 1019 904 q 986 887 996 897 q 976 856 976 876 l 976 351 q 951 185 976 254 q 874 70 926 115 q 741 4 822 25 q 547 -17 660 -17 q 352 4 433 -17 q 219 70 271 25 q 142 185 167 115 q 117 351 117 254 l 117 856 q 107 887 117 876 q 74 904 97 897 l 74 926 l 308 926 l 308 904 q 264 856 264 894 l 264 378 m 331 1003 l 331 1021 q 354 1026 347 1022 l 364 1035 l 378 1049 l 474 1150 q 481 1168 481 1160 q 458 1179 481 1179 l 458 1197 l 644 1197 l 644 1179 q 624 1167 624 1178 q 635 1147 624 1158 l 742 1035 q 754 1024 749 1026 q 772 1021 760 1022 l 772 1003 l 596 1003 l 596 1021 q 617 1031 617 1022 q 615 1036 617 1033 q 606 1047 613 1039 l 540 1126 l 468 1044 q 463 1033 463 1039 q 482 1021 463 1022 l 482 1003 l 331 1003 z "},"Ý":{"ha":972,"x_min":-14,"x_max":986,"o":"m 556 71 q 565 40 556 51 q 599 22 575 29 l 599 0 l 365 0 l 365 22 q 399 40 389 29 q 408 71 408 51 l 408 383 l 100 801 q 56 856 72 836 q 29 885 40 875 q 9 898 18 894 q -14 904 0 901 l -14 926 l 263 926 l 263 904 q 237 894 243 900 q 231 878 231 889 q 263 813 231 857 l 489 504 l 718 824 q 747 881 747 863 q 741 895 747 890 q 718 904 735 900 l 718 926 l 986 926 l 986 904 q 962 899 972 903 q 939 883 951 894 q 910 853 926 872 q 867 801 893 833 l 556 383 l 556 71 m 657 1179 q 636 1174 643 1178 q 622 1160 629 1171 l 531 1043 q 526 1032 526 1039 q 540 1021 526 1021 l 543 1021 l 543 1003 l 407 1003 l 407 1021 q 429 1025 422 1021 q 443 1046 436 1029 l 493 1156 q 496 1165 496 1164 q 476 1179 496 1176 l 476 1197 l 657 1197 l 657 1179 z "},"\u001e":{"ha":939,"x_min":46,"x_max":882,"o":"m 811 121 q 842 131 831 121 q 860 164 853 140 l 882 164 l 882 -43 l 860 -43 q 842 -10 853 -19 q 811 0 832 0 l 46 0 l 46 35 l 628 806 l 140 806 q 110 796 121 806 q 92 763 99 786 l 69 763 l 69 969 l 92 969 q 109 936 99 946 q 140 926 119 926 l 881 926 l 881 907 l 289 121 l 811 121 m 685 1197 l 685 1179 q 661 1174 668 1178 q 651 1165 657 1171 l 638 1151 l 542 1050 q 535 1032 535 1040 q 557 1021 535 1021 l 557 1003 l 371 1003 l 371 1021 q 392 1033 392 1022 q 381 1053 392 1042 l 274 1165 q 261 1176 267 1174 q 243 1179 256 1178 l 243 1197 l 419 1197 l 419 1179 q 399 1169 399 1178 q 401 1164 399 1167 q 410 1153 403 1161 l 475 1074 l 547 1156 q 553 1167 553 1161 q 533 1179 553 1178 l 533 1197 l 685 1197 z "},"Ÿ":{"ha":972,"x_min":-14,"x_max":986,"o":"m 556 71 q 565 40 556 51 q 599 22 575 29 l 599 0 l 365 0 l 365 22 q 399 40 389 29 q 408 71 408 51 l 408 383 l 100 801 q 56 856 72 836 q 29 885 40 875 q 9 898 18 894 q -14 904 0 901 l -14 926 l 263 926 l 263 904 q 237 894 243 900 q 231 878 231 889 q 263 813 231 857 l 489 504 l 718 824 q 747 881 747 863 q 741 895 747 890 q 718 904 735 900 l 718 926 l 986 926 l 986 904 q 962 899 972 903 q 939 883 951 894 q 910 853 926 872 q 867 801 893 833 l 556 383 l 556 71 m 365 1165 q 418 1142 396 1165 q 440 1088 440 1119 q 418 1033 440 1056 q 364 1011 396 1011 q 309 1033 332 1011 q 286 1088 286 1056 q 309 1142 286 1119 q 365 1165 332 1165 m 611 1165 q 664 1142 642 1165 q 686 1088 686 1119 q 663 1033 686 1056 q 608 1011 640 1011 q 554 1033 576 1011 q 532 1088 532 1056 q 555 1142 532 1119 q 611 1165 578 1165 z "},"ä":{"ha":931,"x_min":4,"x_max":935,"o":"m 264 194 l 214 88 q 204 53 204 68 q 239 18 204 28 l 239 0 l 4 0 l 4 18 q 47 41 31 22 q 83 104 64 60 l 326 647 q 345 690 342 679 q 349 710 349 700 q 341 731 349 725 q 314 742 333 738 l 314 760 l 607 760 l 607 740 q 581 730 588 736 q 574 711 574 724 q 580 685 574 701 q 601 638 586 669 l 847 114 q 873 67 863 85 q 893 38 883 49 q 913 24 903 28 q 935 18 922 19 l 935 0 l 689 0 l 689 18 q 722 43 722 26 q 720 54 722 49 q 706 88 718 60 l 657 194 l 264 194 m 454 642 l 311 306 l 604 306 l 454 642 m 339 1008 q 392 985 369 1008 q 414 931 414 963 q 392 876 414 899 q 338 854 369 854 q 283 876 306 854 q 260 931 260 899 q 283 985 260 963 q 339 1008 306 1008 m 585 1008 q 638 985 615 1008 q 660 931 660 963 q 637 876 660 899 q 582 854 614 854 q 528 876 550 854 q 506 931 506 899 q 528 985 506 963 q 585 1008 551 1008 z "},"á":{"ha":931,"x_min":4,"x_max":935,"o":"m 264 194 l 214 88 q 204 53 204 68 q 239 18 204 28 l 239 0 l 4 0 l 4 18 q 47 41 31 22 q 83 104 64 60 l 326 647 q 345 690 342 679 q 349 710 349 700 q 341 731 349 725 q 314 742 333 738 l 314 760 l 607 760 l 607 740 q 581 730 588 736 q 574 711 574 724 q 580 685 574 701 q 601 638 586 669 l 847 114 q 873 67 863 85 q 893 38 883 49 q 913 24 903 28 q 935 18 922 19 l 935 0 l 689 0 l 689 18 q 722 43 722 26 q 720 54 722 49 q 706 88 718 60 l 657 194 l 264 194 m 454 642 l 311 306 l 604 306 l 454 642 m 638 1021 q 617 1016 624 1019 q 603 1003 610 1013 l 511 886 q 507 874 507 882 q 521 864 507 864 l 524 864 l 524 846 l 388 846 l 388 864 q 410 868 403 864 q 424 889 417 872 l 474 997 q 476 1008 476 1006 q 457 1021 476 1018 l 457 1039 l 638 1039 l 638 1021 z "},"à":{"ha":931,"x_min":4,"x_max":935,"o":"m 264 194 l 214 88 q 204 53 204 68 q 239 18 204 28 l 239 0 l 4 0 l 4 18 q 47 41 31 22 q 83 104 64 60 l 326 647 q 345 690 342 679 q 349 710 349 700 q 341 731 349 725 q 314 742 333 738 l 314 760 l 607 760 l 607 740 q 581 730 588 736 q 574 711 574 724 q 580 685 574 701 q 601 638 586 669 l 847 114 q 873 67 863 85 q 893 38 883 49 q 913 24 903 28 q 935 18 922 19 l 935 0 l 689 0 l 689 18 q 722 43 722 26 q 720 54 722 49 q 706 88 718 60 l 657 194 l 264 194 m 454 642 l 311 306 l 604 306 l 454 642 m 463 1039 l 463 1021 q 443 1008 443 1018 q 446 997 443 1006 l 496 889 q 510 868 503 872 q 532 864 517 864 l 532 846 l 396 846 l 396 864 l 399 864 q 413 874 413 864 q 408 886 413 882 l 317 1003 q 303 1016 310 1013 q 282 1021 296 1019 l 282 1039 l 463 1039 z "},"â":{"ha":931,"x_min":4,"x_max":935,"o":"m 264 194 l 214 88 q 204 53 204 68 q 239 18 204 28 l 239 0 l 4 0 l 4 18 q 47 41 31 22 q 83 104 64 60 l 326 647 q 345 690 342 679 q 349 710 349 700 q 341 731 349 725 q 314 742 333 738 l 314 760 l 607 760 l 607 740 q 581 730 588 736 q 574 711 574 724 q 580 685 574 701 q 601 638 586 669 l 847 114 q 873 67 863 85 q 893 38 883 49 q 913 24 903 28 q 935 18 922 19 l 935 0 l 689 0 l 689 18 q 722 43 722 26 q 720 54 722 49 q 706 88 718 60 l 657 194 l 264 194 m 454 642 l 311 306 l 604 306 l 454 642 m 242 844 l 242 863 q 265 868 258 864 l 275 876 l 289 890 l 385 992 q 392 1010 392 1001 q 369 1021 392 1021 l 369 1039 l 556 1039 l 556 1021 q 535 1008 535 1019 q 546 989 535 1000 l 653 876 q 665 866 660 868 q 683 863 671 864 l 683 844 l 507 844 l 507 863 q 528 872 528 864 q 526 878 528 875 q 517 889 524 881 l 451 968 l 379 886 q 374 875 374 881 q 393 863 374 864 l 393 844 l 242 844 z "},"ã":{"ha":931,"x_min":4,"x_max":935,"o":"m 264 194 l 214 88 q 204 53 204 68 q 239 18 204 28 l 239 0 l 4 0 l 4 18 q 47 41 31 22 q 83 104 64 60 l 326 647 q 345 690 342 679 q 349 710 349 700 q 341 731 349 725 q 314 742 333 738 l 314 760 l 607 760 l 607 740 q 581 730 588 736 q 574 711 574 724 q 580 685 574 701 q 601 638 586 669 l 847 114 q 873 67 863 85 q 893 38 883 49 q 913 24 903 28 q 935 18 922 19 l 935 0 l 689 0 l 689 18 q 722 43 722 26 q 720 54 722 49 q 706 88 718 60 l 657 194 l 264 194 m 454 642 l 311 306 l 604 306 l 454 642 m 696 946 l 685 931 q 670 934 672 933 q 665 935 668 935 q 649 924 656 935 q 556 861 604 861 q 500 874 531 861 l 404 911 q 390 915 397 914 q 375 917 382 917 q 350 906 363 917 q 338 883 338 894 q 346 864 338 874 l 336 853 l 243 929 l 253 942 q 271 939 267 939 q 283 942 278 939 q 294 954 288 944 q 340 992 314 978 q 393 1007 365 1007 q 436 999 415 1007 l 533 960 q 567 951 551 951 q 591 963 579 951 q 603 986 603 974 q 593 1007 603 996 l 604 1019 l 696 946 z "},"å":{"ha":933,"x_min":4,"x_max":938,"o":"m 271 194 l 221 89 q 211 54 211 67 q 246 22 211 31 l 246 0 l 4 0 l 4 22 q 47 44 31 26 q 82 106 64 63 l 326 650 q 342 689 338 675 q 347 713 347 703 q 340 733 347 726 q 314 742 333 739 l 314 760 l 610 760 l 610 742 q 583 731 590 738 q 576 713 576 725 q 583 688 576 704 q 604 640 589 672 l 850 117 q 876 69 865 88 q 896 41 886 51 q 915 27 906 31 q 938 22 925 24 l 938 0 l 689 0 l 689 22 q 722 44 722 28 q 720 56 722 51 q 706 89 718 61 l 657 194 l 271 194 m 458 635 l 319 306 l 603 306 l 458 635 m 465 1056 q 561 1022 522 1056 q 600 940 600 989 q 560 858 600 892 q 464 824 521 824 q 367 858 407 824 q 328 940 328 892 q 367 1022 328 989 q 465 1056 407 1056 m 463 994 q 418 979 436 994 q 400 940 400 964 q 419 901 400 917 q 464 885 438 885 q 509 901 490 885 q 528 940 528 917 q 509 979 528 964 q 463 994 490 994 z "},"ë":{"ha":839,"x_min":74,"x_max":794,"o":"m 254 111 l 725 111 q 758 121 746 111 q 776 154 769 131 l 794 154 l 794 -43 l 776 -43 q 758 -10 769 -19 q 726 0 747 0 l 74 0 l 74 19 q 117 69 117 31 l 117 690 q 107 722 117 711 q 74 740 97 733 l 74 760 l 692 760 q 725 769 714 760 q 743 803 736 779 l 761 803 l 761 604 l 743 604 q 725 638 736 628 q 692 649 714 649 l 254 649 l 254 443 l 536 443 q 569 453 557 443 q 588 486 581 463 l 606 486 l 606 289 l 588 289 q 569 322 581 313 q 536 332 557 332 l 254 332 l 254 111 m 308 1008 q 361 985 339 1008 q 383 931 383 963 q 361 876 383 899 q 307 854 339 854 q 252 876 275 854 q 229 931 229 899 q 252 985 229 963 q 308 1008 275 1008 m 554 1008 q 607 985 585 1008 q 629 931 629 963 q 606 876 629 899 q 551 854 583 854 q 497 876 519 854 q 475 931 475 899 q 498 985 475 963 q 554 1008 521 1008 z "},"é":{"ha":839,"x_min":74,"x_max":794,"o":"m 254 111 l 725 111 q 758 121 746 111 q 776 154 769 131 l 794 154 l 794 -43 l 776 -43 q 758 -10 769 -19 q 726 0 747 0 l 74 0 l 74 19 q 117 69 117 31 l 117 690 q 107 722 117 711 q 74 740 97 733 l 74 760 l 692 760 q 725 769 714 760 q 743 803 736 779 l 761 803 l 761 604 l 743 604 q 725 638 736 628 q 692 649 714 649 l 254 649 l 254 443 l 536 443 q 569 453 557 443 q 588 486 581 463 l 606 486 l 606 289 l 588 289 q 569 322 581 313 q 536 332 557 332 l 254 332 l 254 111 m 600 1021 q 579 1016 586 1019 q 565 1003 572 1013 l 474 886 q 469 874 469 882 q 483 864 469 864 l 486 864 l 486 846 l 350 846 l 350 864 q 372 868 365 864 q 386 889 379 872 l 436 997 q 439 1008 439 1006 q 419 1021 439 1018 l 419 1039 l 600 1039 l 600 1021 z "},"è":{"ha":839,"x_min":74,"x_max":794,"o":"m 254 111 l 725 111 q 758 121 746 111 q 776 154 769 131 l 794 154 l 794 -43 l 776 -43 q 758 -10 769 -19 q 726 0 747 0 l 74 0 l 74 19 q 117 69 117 31 l 117 690 q 107 722 117 711 q 74 740 97 733 l 74 760 l 692 760 q 725 769 714 760 q 743 803 736 779 l 761 803 l 761 604 l 743 604 q 725 638 736 628 q 692 649 714 649 l 254 649 l 254 443 l 536 443 q 569 453 557 443 q 588 486 581 463 l 606 486 l 606 289 l 588 289 q 569 322 581 313 q 536 332 557 332 l 254 332 l 254 111 m 443 1039 l 443 1021 q 424 1008 424 1018 q 426 997 424 1006 l 476 889 q 490 868 483 872 q 513 864 497 864 l 513 846 l 376 846 l 376 864 l 379 864 q 393 874 393 864 q 389 886 393 882 l 297 1003 q 283 1016 290 1013 q 263 1021 276 1019 l 263 1039 l 443 1039 z "},"ê":{"ha":839,"x_min":74,"x_max":794,"o":"m 254 111 l 725 111 q 758 121 746 111 q 776 154 769 131 l 794 154 l 794 -43 l 776 -43 q 758 -10 769 -19 q 726 0 747 0 l 74 0 l 74 19 q 117 69 117 31 l 117 690 q 107 722 117 711 q 74 740 97 733 l 74 760 l 692 760 q 725 769 714 760 q 743 803 736 779 l 761 803 l 761 604 l 743 604 q 725 638 736 628 q 692 649 714 649 l 254 649 l 254 443 l 536 443 q 569 453 557 443 q 588 486 581 463 l 606 486 l 606 289 l 588 289 q 569 322 581 313 q 536 332 557 332 l 254 332 l 254 111 m 208 844 l 208 863 q 232 868 225 864 l 242 876 l 256 890 l 351 992 q 358 1010 358 1001 q 336 1021 358 1021 l 336 1039 l 522 1039 l 522 1021 q 501 1008 501 1019 q 513 989 501 1000 l 619 876 q 632 866 626 868 q 650 863 638 864 l 650 844 l 474 844 l 474 863 q 494 872 494 864 q 492 878 494 875 q 483 889 490 881 l 418 968 l 346 886 q 340 875 340 881 q 360 863 340 864 l 360 844 l 208 844 z "},"ï":{"ha":374,"x_min":10,"x_max":364,"o":"m 299 760 l 299 740 q 254 690 254 729 l 254 69 q 264 37 254 49 q 297 18 274 25 l 297 0 l 74 0 l 74 18 q 107 37 97 25 q 117 69 117 49 l 117 690 q 74 740 117 729 l 74 760 l 299 760 m 89 1008 q 142 985 119 1008 q 164 931 164 963 q 142 876 164 899 q 88 854 119 854 q 33 876 56 854 q 10 931 10 899 q 33 985 10 963 q 89 1008 56 1008 m 289 1008 q 342 985 319 1008 q 364 931 364 963 q 341 876 364 899 q 286 854 318 854 q 232 876 254 854 q 210 931 210 899 q 233 985 210 963 q 289 1008 256 1008 z "},"í":{"ha":374,"x_min":74,"x_max":367,"o":"m 299 760 l 299 740 q 254 690 254 729 l 254 69 q 264 37 254 49 q 297 18 274 25 l 297 0 l 74 0 l 74 18 q 107 37 97 25 q 117 69 117 49 l 117 690 q 74 740 117 729 l 74 760 l 299 760 m 367 1021 q 346 1016 353 1019 q 332 1003 339 1013 l 240 886 q 236 874 236 882 q 250 864 236 864 l 253 864 l 253 846 l 117 846 l 117 864 q 139 868 132 864 q 153 889 146 872 l 203 997 q 206 1008 206 1006 q 186 1021 206 1018 l 186 1039 l 367 1039 l 367 1021 z "},"ì":{"ha":374,"x_min":7,"x_max":299,"o":"m 299 760 l 299 740 q 254 690 254 729 l 254 69 q 264 37 254 49 q 297 18 274 25 l 297 0 l 74 0 l 74 18 q 107 37 97 25 q 117 69 117 49 l 117 690 q 74 740 117 729 l 74 760 l 299 760 m 188 1039 l 188 1021 q 168 1008 168 1018 q 171 997 168 1006 l 221 889 q 235 868 228 872 q 257 864 242 864 l 257 846 l 121 846 l 121 864 l 124 864 q 138 874 138 864 q 133 886 138 882 l 42 1003 q 28 1016 35 1013 q 7 1021 21 1019 l 7 1039 l 188 1039 z "},"î":{"ha":374,"x_min":-15,"x_max":389,"o":"m 300 760 l 300 740 q 256 690 256 729 l 256 69 q 265 37 256 49 q 299 18 275 25 l 299 0 l 75 0 l 75 18 q 108 37 99 25 q 118 69 118 49 l 118 690 q 75 740 118 729 l 75 760 l 300 760 m -15 844 l -15 863 q 8 868 1 864 q 17 876 10 869 q 31 890 24 882 l 108 992 q 115 1010 115 1003 q 93 1021 115 1021 l 93 1039 l 281 1039 l 281 1021 q 260 1008 260 1019 q 261 1002 260 1004 q 271 989 263 1000 l 358 876 q 372 866 365 869 q 389 863 378 863 l 389 844 l 218 844 l 218 863 q 239 872 239 864 q 235 882 239 878 l 228 889 l 175 972 l 117 886 q 111 875 111 879 q 131 863 111 864 l 131 844 l -15 844 z "},"ñ":{"ha":996,"x_min":74,"x_max":921,"o":"m 238 69 q 247 37 238 49 q 281 18 257 25 l 281 0 l 74 0 l 74 18 q 107 37 97 25 q 117 69 117 49 l 117 690 q 107 722 117 711 q 74 740 97 733 l 74 760 l 353 760 l 353 740 q 317 703 317 729 q 324 679 317 690 q 353 644 331 668 l 756 229 l 756 690 q 713 740 756 729 l 713 760 l 921 760 l 921 740 q 878 690 878 729 l 878 69 q 888 37 878 49 q 921 18 897 25 l 921 0 l 686 0 l 686 18 q 715 30 708 24 q 722 49 722 36 q 722 58 722 54 q 717 67 721 63 q 707 80 714 72 q 688 100 700 88 l 238 565 l 238 69 m 733 946 l 722 931 q 708 934 710 933 q 703 935 706 935 q 686 924 693 935 q 593 861 642 861 q 538 874 568 861 l 442 911 q 427 915 435 914 q 413 917 419 917 q 388 906 400 917 q 375 883 375 894 q 383 864 375 874 l 374 853 l 281 929 l 290 942 q 308 939 304 939 q 320 942 315 939 q 332 954 325 944 q 377 992 351 978 q 431 1007 403 1007 q 474 999 453 1007 l 571 960 q 604 951 589 951 q 628 963 617 951 q 640 986 640 974 q 631 1007 640 996 l 642 1019 l 733 946 z "},"ö":{"ha":988,"x_min":57,"x_max":931,"o":"m 500 775 q 799 674 685 775 q 896 542 861 619 q 931 379 931 465 q 896 216 931 293 q 799 85 861 139 q 494 -17 685 -17 q 322 8 396 -17 q 189 85 247 32 q 92 216 126 139 q 57 378 57 293 q 92 543 57 465 q 189 674 126 621 q 324 751 250 726 q 500 775 397 775 m 490 660 q 372 640 425 660 q 281 582 319 619 q 221 493 242 544 q 200 379 200 442 q 222 265 200 317 q 281 176 243 213 q 374 119 319 139 q 494 99 428 99 q 614 119 560 99 q 706 176 668 139 q 766 264 744 213 q 788 378 788 315 q 766 494 788 442 q 706 583 744 546 q 612 640 667 619 q 490 660 557 660 m 374 1008 q 426 985 404 1008 q 449 931 449 963 q 426 876 449 899 q 372 854 404 854 q 317 876 340 854 q 294 931 294 899 q 317 985 294 963 q 374 1008 340 1008 m 619 1008 q 672 985 650 1008 q 694 931 694 963 q 672 876 694 899 q 617 854 649 854 q 563 876 585 854 q 540 931 540 899 q 563 985 540 963 q 619 1008 586 1008 z "},"ó":{"ha":988,"x_min":57,"x_max":931,"o":"m 500 775 q 799 674 685 775 q 896 542 861 619 q 931 379 931 465 q 896 216 931 293 q 799 85 861 139 q 494 -17 685 -17 q 322 8 396 -17 q 189 85 247 32 q 92 216 126 139 q 57 378 57 293 q 92 543 57 465 q 189 674 126 621 q 324 751 250 726 q 500 775 397 775 m 490 660 q 372 640 425 660 q 281 582 319 619 q 221 493 242 544 q 200 379 200 442 q 222 265 200 317 q 281 176 243 213 q 374 119 319 139 q 494 99 428 99 q 614 119 560 99 q 706 176 668 139 q 766 264 744 213 q 788 378 788 315 q 766 494 788 442 q 706 583 744 546 q 612 640 667 619 q 490 660 557 660 m 669 1021 q 649 1016 656 1019 q 635 1003 642 1013 l 543 886 q 539 874 539 882 q 553 864 539 864 l 556 864 l 556 846 l 419 846 l 419 864 q 442 868 435 864 q 456 889 449 872 l 506 997 q 508 1008 508 1006 q 489 1021 508 1018 l 489 1039 l 669 1039 l 669 1021 z "},"ò":{"ha":988,"x_min":57,"x_max":931,"o":"m 500 775 q 799 674 685 775 q 896 542 861 619 q 931 379 931 465 q 896 216 931 293 q 799 85 861 139 q 494 -17 685 -17 q 322 8 396 -17 q 189 85 247 32 q 92 216 126 139 q 57 378 57 293 q 92 543 57 465 q 189 674 126 621 q 324 751 250 726 q 500 775 397 775 m 490 660 q 372 640 425 660 q 281 582 319 619 q 221 493 242 544 q 200 379 200 442 q 222 265 200 317 q 281 176 243 213 q 374 119 319 139 q 494 99 428 99 q 614 119 560 99 q 706 176 668 139 q 766 264 744 213 q 788 378 788 315 q 766 494 788 442 q 706 583 744 546 q 612 640 667 619 q 490 660 557 660 m 503 1039 l 503 1021 q 483 1008 483 1018 q 486 997 483 1006 l 536 889 q 550 868 543 872 q 572 864 557 864 l 572 846 l 436 846 l 436 864 l 439 864 q 453 874 453 864 q 449 886 453 882 l 357 1003 q 343 1016 350 1013 q 322 1021 336 1019 l 322 1039 l 503 1039 z "},"ô":{"ha":988,"x_min":57,"x_max":931,"o":"m 500 775 q 799 674 685 775 q 896 542 861 619 q 931 379 931 465 q 896 216 931 293 q 799 85 861 139 q 494 -17 685 -17 q 322 8 396 -17 q 189 85 247 32 q 92 216 126 139 q 57 378 57 293 q 92 543 57 465 q 189 674 126 621 q 324 751 250 726 q 500 775 397 775 m 490 660 q 372 640 425 660 q 281 582 319 619 q 221 493 242 544 q 200 379 200 442 q 222 265 200 317 q 281 176 243 213 q 374 119 319 139 q 494 99 428 99 q 614 119 560 99 q 706 176 668 139 q 766 264 744 213 q 788 378 788 315 q 766 494 788 442 q 706 583 744 546 q 612 640 667 619 q 490 660 557 660 m 278 844 l 278 863 q 301 868 294 864 l 311 876 l 325 890 l 421 992 q 428 1010 428 1001 q 406 1021 428 1021 l 406 1039 l 592 1039 l 592 1021 q 571 1008 571 1019 q 582 989 571 1000 l 689 876 q 701 866 696 868 q 719 863 707 864 l 719 844 l 543 844 l 543 863 q 564 872 564 864 q 562 878 564 875 q 553 889 560 881 l 488 968 l 415 886 q 410 875 410 881 q 429 863 410 864 l 429 844 l 278 844 z "},"õ":{"ha":988,"x_min":57,"x_max":931,"o":"m 500 775 q 799 674 685 775 q 896 542 861 619 q 931 379 931 465 q 896 216 931 293 q 799 85 861 139 q 494 -17 685 -17 q 322 8 396 -17 q 189 85 247 32 q 92 216 126 139 q 57 378 57 293 q 92 543 57 465 q 189 674 126 621 q 324 751 250 726 q 500 775 397 775 m 490 660 q 372 640 425 660 q 281 582 319 619 q 221 493 242 544 q 200 379 200 442 q 222 265 200 317 q 281 176 243 213 q 374 119 319 139 q 494 99 428 99 q 614 119 560 99 q 706 176 668 139 q 766 264 744 213 q 788 378 788 315 q 766 494 788 442 q 706 583 744 546 q 612 640 667 619 q 490 660 557 660 m 729 946 l 718 931 q 703 934 706 933 q 699 935 701 935 q 682 924 689 935 q 589 861 638 861 q 533 874 564 861 l 438 911 q 423 915 431 914 q 408 917 415 917 q 383 906 396 917 q 371 883 371 894 q 379 864 371 874 l 369 853 l 276 929 l 286 942 q 304 939 300 939 q 316 942 311 939 q 328 954 321 944 q 373 992 347 978 q 426 1007 399 1007 q 469 999 449 1007 l 567 960 q 600 951 585 951 q 624 963 613 951 q 636 986 636 974 q 626 1007 636 996 l 638 1019 l 729 946 z "},"š":{"ha":875,"x_min":38,"x_max":839,"o":"m 721 543 l 703 551 q 706 562 706 558 q 706 568 706 565 q 692 595 706 583 q 647 621 679 607 q 598 640 621 632 q 550 652 575 647 q 497 659 525 657 q 432 661 468 661 q 279 633 333 661 q 236 598 251 618 q 221 556 221 578 q 256 500 221 518 q 376 472 290 482 l 508 458 q 659 431 596 449 q 762 387 722 414 q 820 322 801 360 q 839 233 839 283 q 804 109 839 164 q 707 25 769 54 q 605 -7 661 3 q 472 -17 549 -17 q 374 -11 419 -17 q 287 6 329 -6 q 201 37 244 18 q 113 83 158 56 q 83 94 94 94 q 53 81 72 94 l 38 90 l 146 257 l 163 247 q 159 236 160 240 q 158 228 158 232 q 172 194 158 210 q 217 158 185 178 q 472 99 310 99 q 644 133 579 99 q 708 226 708 168 q 663 290 708 268 q 501 324 618 311 l 367 338 q 162 401 226 353 q 97 539 97 449 q 184 714 97 651 q 425 776 271 776 q 493 774 460 776 q 561 763 526 771 q 635 744 596 756 q 719 717 674 733 q 760 708 742 708 q 772 711 767 708 q 788 724 776 714 l 806 717 l 721 543 m 682 1039 l 682 1021 q 658 1015 665 1019 q 649 1007 654 1013 l 635 993 l 539 892 q 532 874 532 882 q 554 863 532 863 l 554 844 l 368 844 l 368 863 q 389 875 389 864 q 378 894 389 883 l 271 1007 q 258 1017 264 1015 q 240 1021 253 1019 l 240 1039 l 417 1039 l 417 1021 q 396 1011 396 1019 q 398 1006 396 1008 q 407 994 400 1003 l 472 915 l 544 997 q 550 1008 550 1003 q 531 1021 550 1019 l 531 1039 l 682 1039 z "},"ü":{"ha":925,"x_min":60,"x_max":867,"o":"m 285 740 q 240 690 240 729 l 240 288 q 294 140 240 178 q 370 110 324 121 q 471 99 417 99 q 574 110 526 99 q 649 140 621 121 q 688 194 676 160 q 700 288 700 229 l 700 690 q 691 722 700 711 q 658 740 682 733 l 658 760 l 867 760 l 867 740 q 822 690 822 729 l 822 297 q 798 131 822 193 q 721 38 774 69 q 611 -3 678 11 q 464 -17 544 -17 q 314 -3 382 -17 q 203 38 246 11 q 126 131 150 68 q 103 297 103 193 l 103 690 q 93 722 103 711 q 60 740 83 733 l 60 760 l 285 760 l 285 740 m 347 1008 q 400 985 378 1008 q 422 931 422 963 q 400 876 422 899 q 346 854 378 854 q 291 876 314 854 q 268 931 268 899 q 291 985 268 963 q 347 1008 314 1008 m 593 1008 q 646 985 624 1008 q 668 931 668 963 q 645 876 668 899 q 590 854 622 854 q 536 876 558 854 q 514 931 514 899 q 537 985 514 963 q 593 1008 560 1008 z "},"ú":{"ha":925,"x_min":60,"x_max":867,"o":"m 285 740 q 240 690 240 729 l 240 288 q 294 140 240 178 q 370 110 324 121 q 471 99 417 99 q 574 110 526 99 q 649 140 621 121 q 688 194 676 160 q 700 288 700 229 l 700 690 q 691 722 700 711 q 658 740 682 733 l 658 760 l 867 760 l 867 740 q 822 690 822 729 l 822 297 q 798 131 822 193 q 721 38 774 69 q 611 -3 678 11 q 464 -17 544 -17 q 314 -3 382 -17 q 203 38 246 11 q 126 131 150 68 q 103 297 103 193 l 103 690 q 93 722 103 711 q 60 740 83 733 l 60 760 l 285 760 l 285 740 m 638 1021 q 617 1016 624 1019 q 603 1003 610 1013 l 511 886 q 507 874 507 882 q 521 864 507 864 l 524 864 l 524 846 l 388 846 l 388 864 q 410 868 403 864 q 424 889 417 872 l 474 997 q 476 1008 476 1006 q 457 1021 476 1018 l 457 1039 l 638 1039 l 638 1021 z "},"ù":{"ha":925,"x_min":60,"x_max":867,"o":"m 285 740 q 240 690 240 729 l 240 288 q 294 140 240 178 q 370 110 324 121 q 471 99 417 99 q 574 110 526 99 q 649 140 621 121 q 688 194 676 160 q 700 288 700 229 l 700 690 q 691 722 700 711 q 658 740 682 733 l 658 760 l 867 760 l 867 740 q 822 690 822 729 l 822 297 q 798 131 822 193 q 721 38 774 69 q 611 -3 678 11 q 464 -17 544 -17 q 314 -3 382 -17 q 203 38 246 11 q 126 131 150 68 q 103 297 103 193 l 103 690 q 93 722 103 711 q 60 740 83 733 l 60 760 l 285 760 l 285 740 m 476 1039 l 476 1021 q 457 1008 457 1018 q 460 997 457 1006 l 510 889 q 524 868 517 872 q 546 864 531 864 l 546 846 l 410 846 l 410 864 l 413 864 q 426 874 426 864 q 422 886 426 882 l 331 1003 q 317 1016 324 1013 q 296 1021 310 1019 l 296 1039 l 476 1039 z "},"û":{"ha":925,"x_min":60,"x_max":867,"o":"m 285 740 q 240 690 240 729 l 240 288 q 294 140 240 178 q 370 110 324 121 q 471 99 417 99 q 574 110 526 99 q 649 140 621 121 q 688 194 676 160 q 700 288 700 229 l 700 690 q 691 722 700 711 q 658 740 682 733 l 658 760 l 867 760 l 867 740 q 822 690 822 729 l 822 297 q 798 131 822 193 q 721 38 774 69 q 611 -3 678 11 q 464 -17 544 -17 q 314 -3 382 -17 q 203 38 246 11 q 126 131 150 68 q 103 297 103 193 l 103 690 q 93 722 103 711 q 60 740 83 733 l 60 760 l 285 760 l 285 740 m 247 844 l 247 863 q 271 868 264 864 l 281 876 l 294 890 l 390 992 q 397 1010 397 1001 q 375 1021 397 1021 l 375 1039 l 561 1039 l 561 1021 q 540 1008 540 1019 q 551 989 540 1000 l 658 876 q 671 866 665 868 q 689 863 676 864 l 689 844 l 513 844 l 513 863 q 533 872 533 864 q 531 878 533 875 q 522 889 529 881 l 457 968 l 385 886 q 379 875 379 881 q 399 863 379 864 l 399 844 l 247 844 z "},"ý":{"ha":817,"x_min":-11,"x_max":828,"o":"m 475 69 q 485 37 475 49 q 518 18 494 25 l 518 0 l 294 0 l 294 18 q 328 37 318 25 q 338 69 338 49 l 338 310 l 100 639 q 38 713 63 690 q -11 740 13 735 l -11 760 l 250 760 l 250 742 q 219 714 219 736 q 238 669 219 696 l 413 422 l 586 669 q 606 713 606 694 q 575 742 606 736 l 575 760 l 828 760 l 828 740 q 802 730 814 736 q 777 710 790 724 q 746 675 764 697 q 701 618 728 653 l 475 310 l 475 69 m 585 1021 q 564 1016 571 1019 q 550 1003 557 1013 l 458 886 q 454 874 454 882 q 468 864 454 864 l 471 864 l 471 846 l 335 846 l 335 864 q 357 868 350 864 q 371 889 364 872 l 421 997 q 424 1008 424 1006 q 404 1021 424 1018 l 404 1039 l 585 1039 l 585 1021 z "},"\u001f":{"ha":786,"x_min":38,"x_max":742,"o":"m 672 111 q 705 121 693 111 q 724 154 717 131 l 742 154 l 742 -43 l 724 -43 q 706 -10 717 -19 q 672 0 694 0 l 38 0 l 38 31 l 496 649 l 132 649 q 99 638 111 649 q 81 604 88 628 l 63 604 l 63 801 l 81 801 q 99 769 89 778 q 132 760 110 760 l 738 760 l 738 740 l 268 111 l 672 111 m 615 1039 l 615 1021 q 592 1015 599 1019 q 582 1007 588 1013 l 568 993 l 472 892 q 465 874 465 882 q 488 863 465 863 l 488 844 l 301 844 l 301 863 q 322 875 322 864 q 311 894 322 883 l 204 1007 q 192 1017 197 1015 q 174 1021 186 1019 l 174 1039 l 350 1039 l 350 1021 q 329 1011 329 1019 q 331 1006 329 1008 q 340 994 333 1003 l 406 915 l 478 997 q 483 1008 483 1003 q 464 1021 483 1019 l 464 1039 l 615 1039 z "},"ÿ":{"ha":817,"x_min":-11,"x_max":828,"o":"m 475 69 q 485 37 475 49 q 518 18 494 25 l 518 0 l 294 0 l 294 18 q 328 37 318 25 q 338 69 338 49 l 338 310 l 100 639 q 38 713 63 690 q -11 740 13 735 l -11 760 l 250 760 l 250 742 q 219 714 219 736 q 238 669 219 696 l 413 422 l 586 669 q 606 713 606 694 q 575 742 606 736 l 575 760 l 828 760 l 828 740 q 802 730 814 736 q 777 710 790 724 q 746 675 764 697 q 701 618 728 653 l 475 310 l 475 69 m 288 1008 q 340 985 318 1008 q 363 931 363 963 q 340 876 363 899 q 286 854 318 854 q 231 876 254 854 q 208 931 208 899 q 231 985 208 963 q 288 1008 254 1008 m 533 1008 q 586 985 564 1008 q 608 931 608 963 q 585 876 608 899 q 531 854 563 854 q 476 876 499 854 q 454 931 454 899 q 477 985 454 963 q 533 1008 500 1008 z "},"A":{"ha":1069,"x_min":4,"x_max":1074,"o":"m 285 240 l 215 83 q 206 60 207 64 q 204 49 204 56 q 213 31 204 38 q 244 22 221 25 l 244 0 l 4 0 l 4 22 q 28 28 18 24 q 46 42 38 32 q 63 67 54 51 q 85 110 72 83 l 414 842 q 424 865 421 858 q 426 878 426 872 q 419 894 426 889 q 393 904 413 900 l 393 926 l 664 926 l 664 904 q 638 892 644 899 q 631 875 631 886 q 633 865 631 871 q 643 842 635 860 l 976 136 q 1003 77 993 99 q 1023 45 1014 56 q 1043 31 1032 35 q 1074 22 1054 26 l 1074 0 l 815 0 l 815 22 q 856 51 856 26 q 840 93 856 61 l 771 240 l 285 240 m 522 775 l 339 361 l 715 361 l 522 775 z "},"B":{"ha":1103,"x_min":93,"x_max":1038,"o":"m 665 926 q 819 913 761 926 q 921 869 878 900 q 985 790 963 839 q 1008 683 1008 742 q 974 563 1008 608 q 865 489 940 517 q 1038 264 1038 438 q 940 63 1038 132 q 890 33 917 46 q 833 14 864 21 q 763 3 801 7 q 674 0 724 0 l 93 0 l 93 19 q 126 36 117 26 q 136 64 136 46 l 136 860 q 126 889 136 879 q 93 906 117 899 l 93 926 l 665 926 m 654 547 q 751 553 718 547 q 810 574 785 558 q 847 615 833 589 q 861 676 861 642 q 847 738 861 711 q 810 779 833 764 q 751 800 785 794 q 654 806 718 806 l 278 806 l 278 547 l 654 547 m 653 121 q 830 157 775 121 q 885 274 885 193 q 830 390 885 354 q 653 426 775 426 l 278 426 l 278 121 l 653 121 z "},"C":{"ha":1146,"x_min":71,"x_max":1094,"o":"m 1094 136 l 1076 122 q 1051 136 1063 136 q 1031 131 1042 136 q 1000 113 1019 126 q 897 51 944 75 q 803 11 850 26 q 708 -10 757 -4 q 601 -17 660 -17 q 233 94 369 -17 q 114 253 157 157 q 71 457 71 349 q 114 662 71 567 q 239 825 157 757 q 397 915 310 886 q 594 943 485 943 q 769 922 683 943 q 961 853 854 900 q 994 838 988 840 q 1010 836 1001 836 q 1038 853 1022 836 l 1057 842 l 951 644 l 932 656 q 935 668 935 664 q 936 678 936 672 q 867 750 936 714 q 735 800 804 782 q 604 818 667 818 q 453 793 524 818 q 331 721 383 768 q 224 453 224 625 q 251 308 224 372 q 328 200 278 244 q 449 132 378 156 q 611 108 521 108 q 890 199 775 108 q 944 265 944 240 q 933 290 944 276 l 951 303 l 1094 136 z "},"D":{"ha":1165,"x_min":93,"x_max":1094,"o":"m 136 856 q 126 886 136 875 q 93 904 117 897 l 93 926 l 600 926 q 719 921 667 926 q 813 903 771 915 q 890 871 856 890 q 956 822 925 851 q 1059 667 1024 758 q 1094 464 1094 575 q 1059 260 1094 351 q 956 104 1024 168 q 890 56 925 76 q 813 24 856 36 q 719 6 771 11 q 600 0 667 0 l 93 0 l 93 22 q 126 40 117 29 q 136 71 136 51 l 136 856 m 575 121 q 756 143 690 121 q 865 218 821 165 q 922 327 901 264 q 942 464 942 390 q 922 599 942 536 q 865 708 901 661 q 817 753 843 735 q 756 783 790 772 q 678 800 722 794 q 575 806 633 806 l 283 806 l 283 121 l 575 121 z "},"E":{"ha":992,"x_min":93,"x_max":936,"o":"m 283 121 l 865 121 q 897 131 886 121 q 915 164 908 140 l 936 164 l 936 -43 l 915 -43 q 897 -10 908 -19 q 865 0 886 0 l 93 0 l 93 22 q 126 40 117 29 q 136 71 136 51 l 136 856 q 126 886 136 875 q 93 904 117 897 l 93 926 l 839 926 q 869 936 858 926 q 888 969 881 946 l 910 969 l 910 763 l 888 763 q 870 796 881 786 q 839 806 860 806 l 283 806 l 283 538 l 649 538 q 697 582 686 538 l 719 582 l 719 375 l 697 375 q 680 408 690 399 q 649 417 669 417 l 283 417 l 283 121 z "},"F":{"ha":946,"x_min":93,"x_max":910,"o":"m 283 71 q 293 40 283 51 q 326 22 303 29 l 326 0 l 93 0 l 93 22 q 126 40 117 29 q 136 71 136 51 l 136 856 q 126 886 136 875 q 93 904 117 897 l 93 926 l 839 926 q 888 969 876 926 l 910 969 l 910 763 l 888 763 q 870 796 881 786 q 839 806 860 806 l 283 806 l 283 538 l 649 538 q 697 582 686 538 l 719 582 l 719 375 l 697 375 q 680 408 690 399 q 649 417 669 417 l 283 417 l 283 71 z "},"G":{"ha":1153,"x_min":71,"x_max":1088,"o":"m 671 351 q 640 342 650 351 q 622 308 629 332 l 600 308 l 600 515 l 622 515 q 640 482 629 492 q 671 472 650 472 l 1088 472 l 1088 450 q 1053 401 1053 439 l 1053 206 q 1088 156 1053 167 l 1088 136 q 961 67 1022 96 q 840 20 900 39 q 720 -8 781 1 q 596 -17 660 -17 q 374 16 468 -17 q 208 119 279 49 q 108 272 144 182 q 71 458 71 363 q 83 564 71 511 q 116 665 94 617 q 169 756 138 714 q 238 831 200 799 q 394 914 303 885 q 590 943 485 943 q 888 885 738 943 q 911 875 901 879 q 949 860 921 871 q 961 853 953 857 q 981 846 969 850 q 1011 838 999 838 q 1026 841 1018 838 q 1044 856 1033 844 l 1064 846 l 947 649 l 928 660 q 933 683 933 675 q 902 729 933 706 q 822 772 871 753 q 714 805 772 792 q 601 818 656 818 q 447 792 517 818 q 328 719 378 767 q 251 606 278 672 q 224 460 224 540 q 251 315 224 381 q 331 204 279 250 q 455 133 382 158 q 617 108 528 108 q 917 194 769 108 l 917 351 l 671 351 z "},"H":{"ha":1175,"x_min":93,"x_max":1083,"o":"m 283 424 l 283 71 q 293 40 283 51 q 326 22 303 29 l 326 0 l 93 0 l 93 22 q 126 40 117 29 q 136 71 136 51 l 136 856 q 126 886 136 875 q 93 904 117 897 l 93 926 l 326 926 l 326 904 q 293 886 303 897 q 283 856 283 875 l 283 544 l 893 544 l 893 856 q 883 886 893 875 q 850 904 874 897 l 850 926 l 1083 926 l 1083 904 q 1050 887 1060 897 q 1040 856 1040 876 l 1040 71 q 1050 40 1040 50 q 1083 22 1060 29 l 1083 0 l 850 0 l 850 22 q 883 40 874 29 q 893 71 893 51 l 893 424 l 283 424 z "},"I":{"ha":419,"x_min":93,"x_max":326,"o":"m 283 71 q 326 22 283 33 l 326 0 l 93 0 l 93 22 q 126 40 117 29 q 136 71 136 51 l 136 856 q 126 886 136 875 q 93 904 117 897 l 93 926 l 326 926 l 326 904 q 283 856 283 893 l 283 71 z "},"J":{"ha":825,"x_min":4,"x_max":750,"o":"m 85 256 l 106 247 q 104 233 104 242 q 113 202 104 215 q 146 172 122 189 q 242 126 186 143 q 354 108 299 108 q 464 128 418 108 q 531 183 510 147 q 546 215 540 199 q 554 256 551 232 q 558 317 557 281 q 560 410 560 354 l 560 856 q 517 904 560 893 l 517 926 l 750 926 l 750 904 q 717 887 726 897 q 707 856 707 876 l 707 421 q 704 300 707 350 q 694 213 701 250 q 676 148 688 175 q 646 96 664 121 q 533 13 606 43 q 371 -17 461 -17 q 304 -13 335 -17 q 244 -2 274 -10 q 181 18 214 6 q 108 50 149 31 q 65 63 81 63 q 47 58 54 63 q 25 38 39 53 l 4 44 l 85 256 z "},"K":{"ha":1081,"x_min":93,"x_max":1072,"o":"m 283 360 l 283 71 q 293 40 283 51 q 326 22 303 29 l 326 0 l 93 0 l 93 22 q 126 40 117 29 q 136 71 136 51 l 136 856 q 126 886 136 875 q 93 904 117 897 l 93 926 l 326 926 l 326 904 q 293 887 303 897 q 283 856 283 876 l 283 500 l 722 853 q 744 872 740 867 q 749 886 749 878 q 724 904 749 901 l 724 926 l 1008 926 l 1008 904 q 981 896 993 900 q 954 883 968 892 q 922 863 940 875 q 878 829 904 850 l 593 604 l 960 128 q 997 79 983 97 q 1015 56 1011 61 q 1041 32 1031 39 q 1072 22 1051 25 l 1072 0 l 811 0 l 811 22 q 840 42 840 28 q 840 47 840 44 q 836 53 839 49 q 827 65 833 57 q 810 88 821 72 l 482 517 l 283 360 z "},"L":{"ha":928,"x_min":93,"x_max":910,"o":"m 839 121 q 888 164 876 121 l 910 164 l 910 -43 l 888 -43 q 870 -10 881 -19 q 839 0 860 0 l 93 0 l 93 22 q 126 40 117 29 q 136 71 136 51 l 136 856 q 126 886 136 875 q 93 904 117 897 l 93 926 l 326 926 l 326 904 q 293 886 303 897 q 283 856 283 875 l 283 121 l 839 121 z "},"M":{"ha":1301,"x_min":93,"x_max":1210,"o":"m 267 740 l 267 71 q 276 40 267 51 q 310 22 286 29 l 310 0 l 93 0 l 93 22 q 126 40 117 29 q 136 71 136 51 l 136 856 q 126 886 136 875 q 93 904 117 897 l 93 926 l 390 926 l 390 904 q 364 892 371 897 q 357 876 357 886 q 358 871 357 874 q 360 863 358 868 q 367 849 363 858 q 381 824 372 840 l 653 307 l 924 829 q 940 876 940 858 q 933 892 940 888 q 907 904 926 897 l 907 926 l 1210 926 l 1210 904 q 1176 886 1186 897 q 1167 856 1167 875 l 1167 71 q 1176 40 1167 51 q 1210 22 1186 29 l 1210 0 l 976 0 l 976 22 q 1019 71 1019 33 l 1019 740 l 644 26 l 267 740 z "},"N":{"ha":1185,"x_min":93,"x_max":1092,"o":"m 267 71 q 276 40 267 51 q 310 22 286 29 l 310 0 l 93 0 l 93 22 q 126 40 117 29 q 136 71 136 51 l 136 856 q 126 886 136 875 q 93 904 117 897 l 93 926 l 404 926 l 404 904 q 372 874 372 893 q 378 856 372 865 q 404 824 385 847 l 918 239 l 918 856 q 908 886 918 875 q 875 904 899 897 l 875 926 l 1092 926 l 1092 904 q 1058 887 1068 897 q 1049 856 1049 876 l 1049 71 q 1058 40 1049 51 q 1092 22 1068 29 l 1092 0 l 844 0 l 844 22 q 875 49 875 31 q 846 99 875 68 l 267 756 l 267 71 z "},"O":{"ha":1189,"x_min":71,"x_max":1118,"o":"m 601 943 q 938 838 800 943 q 1070 672 1022 771 q 1118 463 1118 572 q 1070 255 1118 354 q 938 89 1022 156 q 594 -17 803 -17 q 251 89 386 -17 q 119 254 167 154 q 71 463 71 354 q 119 672 71 572 q 251 838 167 772 q 406 917 322 892 q 601 943 490 943 m 589 818 q 440 792 507 818 q 324 720 372 767 q 250 608 276 674 q 224 463 224 542 q 250 318 224 383 q 325 206 276 253 q 442 134 374 160 q 594 108 511 108 q 746 134 678 108 q 863 206 814 160 q 939 318 913 253 q 965 463 965 383 q 872 711 965 614 q 750 792 818 767 q 589 818 682 818 z "},"P":{"ha":1007,"x_min":93,"x_max":961,"o":"m 283 71 q 293 40 283 50 q 326 22 303 29 l 326 0 l 93 0 l 93 22 q 126 40 117 29 q 136 71 136 51 l 136 856 q 126 886 136 875 q 93 904 117 897 l 93 926 l 583 926 q 676 924 636 926 q 749 915 717 921 q 806 898 781 908 q 854 874 832 888 q 933 785 904 842 q 961 663 961 729 q 932 539 961 596 q 853 449 903 482 q 806 424 831 433 q 749 408 781 414 q 676 399 717 401 q 583 396 635 396 l 283 396 l 283 71 m 588 517 q 697 522 660 517 q 764 543 735 528 q 813 590 796 558 q 831 661 831 621 q 813 733 831 701 q 764 779 796 764 q 733 792 749 788 q 699 800 718 797 q 652 804 679 803 q 588 806 625 806 l 283 806 l 283 517 l 588 517 z "},"Q":{"ha":1189,"x_min":71,"x_max":1117,"o":"m 831 26 q 593 -17 726 -17 q 251 89 383 -17 q 119 255 167 156 q 71 464 71 354 q 119 672 71 572 q 251 838 167 771 q 594 943 386 943 q 936 838 801 943 q 1069 672 1021 771 q 1117 464 1117 572 q 1068 252 1117 351 q 932 85 1019 153 l 1011 -12 q 1051 -40 1033 -40 q 1063 -39 1058 -40 q 1078 -32 1068 -37 l 1092 -50 l 940 -172 l 926 -156 q 940 -124 940 -136 q 925 -90 940 -108 l 831 26 m 532 263 q 597 283 572 278 q 651 288 621 288 q 755 265 708 288 q 846 192 801 242 q 964 463 964 294 q 938 608 964 543 q 863 720 911 674 q 746 792 814 767 q 594 818 678 818 q 442 792 511 818 q 325 720 374 767 q 250 608 276 674 q 224 463 224 543 q 250 318 224 383 q 325 206 276 253 q 442 134 374 160 q 593 108 510 108 q 744 133 682 108 q 698 187 718 167 q 655 218 678 207 q 603 234 632 229 q 532 240 574 239 l 532 263 z "},"R":{"ha":1056,"x_min":93,"x_max":1038,"o":"m 283 74 q 293 40 283 50 q 326 22 303 29 l 326 0 l 93 0 l 93 22 q 126 40 117 29 q 136 71 136 51 l 136 856 q 126 886 136 875 q 93 904 117 897 l 93 926 l 585 926 q 689 924 644 926 q 767 914 733 921 q 826 895 800 907 q 874 867 851 883 q 938 781 915 835 q 961 657 961 726 q 912 495 961 554 q 756 413 863 436 l 961 85 q 981 54 974 65 q 997 37 989 43 q 1015 27 1006 31 q 1038 22 1024 24 l 1038 0 l 788 0 l 788 22 q 814 29 807 25 q 821 42 821 33 q 818 51 821 46 q 797 85 815 57 l 601 397 l 283 397 l 283 74 m 617 518 q 713 525 675 518 q 775 547 750 532 q 816 594 801 564 q 831 663 831 625 q 816 729 831 699 q 775 776 801 760 q 713 799 750 792 q 617 806 675 806 l 283 806 l 283 518 l 617 518 z "},"S":{"ha":1035,"x_min":46,"x_max":989,"o":"m 844 674 l 826 685 q 828 697 828 693 q 828 706 828 701 q 815 737 828 724 q 768 768 801 750 q 536 818 665 818 q 419 807 472 818 q 327 775 365 796 q 268 726 289 754 q 247 663 247 697 q 266 610 247 632 q 318 581 285 589 q 340 576 331 578 q 366 572 350 574 q 410 566 382 569 q 489 557 438 563 l 608 544 q 756 522 699 535 q 860 486 813 510 q 955 399 921 456 q 989 272 989 343 q 956 145 989 204 q 863 50 922 86 q 731 -1 806 15 q 553 -17 657 -17 q 348 7 440 -17 q 160 83 256 31 q 121 104 133 99 q 101 110 108 110 q 87 106 94 110 q 64 92 79 103 l 46 103 l 172 299 l 190 286 l 189 276 q 187 265 188 269 q 186 257 186 260 q 233 199 186 233 q 374 131 300 153 q 538 108 447 108 q 665 119 608 108 q 763 151 722 131 q 824 201 803 172 q 846 267 846 231 q 822 333 846 304 q 753 375 797 361 q 722 383 738 379 q 688 390 707 386 q 640 396 668 393 q 568 403 611 399 l 449 415 q 365 425 401 419 q 300 438 329 431 q 248 453 271 444 q 206 474 225 463 q 135 546 161 499 q 108 650 108 593 q 138 771 108 717 q 221 863 167 825 q 351 922 275 901 q 522 943 428 943 q 672 929 603 943 q 819 885 740 915 q 894 863 872 863 q 910 866 904 863 q 928 882 917 869 l 947 872 l 844 674 z "},"T":{"ha":922,"x_min":14,"x_max":908,"o":"m 535 71 q 544 40 535 50 q 578 22 554 29 l 578 0 l 344 0 l 344 22 q 378 40 368 29 q 388 71 388 51 l 388 806 l 85 806 q 53 796 64 806 q 36 763 43 786 l 14 763 l 14 969 l 36 969 q 53 936 43 946 q 85 926 64 926 l 838 926 q 886 969 875 926 l 908 969 l 908 763 l 886 763 q 869 796 879 786 q 838 806 858 806 l 535 806 l 535 71 z "},"U":{"ha":1094,"x_min":74,"x_max":1019,"o":"m 264 378 q 267 307 264 338 q 275 253 269 276 q 290 213 281 231 q 315 181 300 194 q 412 127 349 146 q 556 108 475 108 q 699 127 635 108 q 796 181 763 146 q 819 213 810 194 q 835 253 829 231 q 843 307 840 276 q 846 378 846 338 l 846 856 q 836 886 846 875 q 803 904 826 897 l 803 926 l 1019 926 l 1019 904 q 986 887 996 897 q 976 856 976 876 l 976 351 q 951 185 976 254 q 874 70 926 115 q 741 4 822 25 q 547 -17 660 -17 q 352 4 433 -17 q 219 70 271 25 q 142 185 167 115 q 117 351 117 254 l 117 856 q 107 887 117 876 q 74 904 97 897 l 74 926 l 308 926 l 308 904 q 264 856 264 894 l 264 378 z "},"V":{"ha":1018,"x_min":4,"x_max":1013,"o":"m 788 807 q 803 847 799 835 q 807 869 807 858 q 767 904 807 894 l 767 926 l 1013 926 l 1013 904 q 985 894 996 900 q 966 877 975 889 q 947 844 957 865 q 924 789 938 824 l 636 115 q 622 79 625 92 q 618 58 618 67 q 657 22 618 31 l 657 0 l 360 0 l 360 22 q 399 58 399 31 q 395 80 399 68 q 381 115 392 92 l 83 810 q 64 853 72 836 q 47 879 56 869 q 29 894 39 889 q 4 904 19 900 l 6 926 l 261 926 l 261 904 q 221 871 221 894 q 226 841 221 863 q 238 807 232 819 l 517 156 l 788 807 z "},"W":{"ha":1549,"x_min":-4,"x_max":1554,"o":"m 553 111 q 542 77 546 92 q 539 54 539 63 q 547 35 539 42 q 578 22 556 29 l 578 0 l 315 0 l 315 22 q 353 54 353 28 q 349 78 353 64 q 339 111 346 92 l 82 793 q 59 850 68 829 q 41 882 50 871 q 22 897 32 893 q -4 904 13 901 l -4 926 l 250 926 l 250 904 q 210 869 210 900 q 213 850 210 861 q 228 807 217 839 l 450 210 l 671 807 q 688 855 685 843 q 692 874 692 867 q 653 904 692 899 l 653 926 l 919 926 l 919 904 q 881 871 881 894 q 884 851 881 864 q 899 807 888 838 l 1114 210 l 1332 807 q 1349 872 1349 849 q 1340 894 1349 888 q 1311 904 1332 900 l 1311 926 l 1554 926 l 1554 904 q 1526 896 1538 901 q 1506 878 1515 890 q 1489 847 1497 867 q 1468 793 1481 826 l 1217 111 q 1203 58 1203 74 q 1242 22 1203 31 l 1242 0 l 978 0 l 978 22 q 1015 58 1015 31 q 1013 76 1015 65 q 1003 106 1010 86 l 781 718 l 553 111 z "},"X":{"ha":967,"x_min":4,"x_max":961,"o":"m 851 106 q 961 22 914 24 l 961 0 l 676 0 l 676 22 q 710 46 710 28 q 703 63 710 53 q 672 106 696 74 l 472 368 l 275 106 q 253 76 261 86 q 242 61 246 67 q 238 53 239 56 q 238 46 238 50 q 269 22 238 29 l 269 0 l 4 0 l 4 22 q 27 27 17 24 q 49 40 38 31 q 74 65 60 50 q 107 106 88 81 l 394 478 l 163 783 q 113 847 132 824 q 82 883 94 871 q 60 898 69 894 q 36 904 50 901 l 36 926 l 318 926 l 318 904 q 292 893 299 899 q 285 876 285 888 q 292 851 285 868 q 313 819 300 835 l 485 594 l 661 819 q 693 882 693 860 q 661 904 693 900 l 661 926 l 925 926 l 925 904 q 902 897 913 901 q 878 879 892 892 q 846 844 864 867 q 799 783 828 821 l 563 486 l 851 106 z "},"Y":{"ha":972,"x_min":-14,"x_max":986,"o":"m 556 71 q 565 40 556 51 q 599 22 575 29 l 599 0 l 365 0 l 365 22 q 399 40 389 29 q 408 71 408 51 l 408 383 l 100 801 q 56 856 72 836 q 29 885 40 875 q 9 898 18 894 q -14 904 0 901 l -14 926 l 263 926 l 263 904 q 237 894 243 900 q 231 878 231 889 q 263 813 231 857 l 489 504 l 718 824 q 747 881 747 863 q 741 895 747 890 q 718 904 735 900 l 718 926 l 986 926 l 986 904 q 962 899 972 903 q 939 883 951 894 q 910 853 926 872 q 867 801 893 833 l 556 383 l 556 71 z "},"Z":{"ha":939,"x_min":46,"x_max":882,"o":"m 811 121 q 842 131 831 121 q 860 164 853 140 l 882 164 l 882 -43 l 860 -43 q 842 -10 853 -19 q 811 0 832 0 l 46 0 l 46 35 l 628 806 l 140 806 q 110 796 121 806 q 92 763 99 786 l 69 763 l 69 969 l 92 969 q 109 936 99 946 q 140 926 119 926 l 881 926 l 881 907 l 289 121 l 811 121 z "},"Æ":{"ha":1560,"x_min":-14,"x_max":1504,"o":"m 329 240 l 233 85 q 214 43 214 57 q 244 22 214 26 l 244 0 l -14 0 l -14 22 q 13 31 3 26 q 33 44 24 35 q 54 69 43 53 q 83 111 65 85 l 551 842 q 567 868 564 861 q 571 882 571 875 q 542 904 571 899 l 542 926 l 1406 926 q 1436 936 1425 926 q 1454 969 1447 946 l 1476 969 l 1476 763 l 1454 763 q 1437 796 1447 786 q 1406 806 1426 806 l 851 806 l 851 538 l 1217 538 q 1265 582 1254 538 l 1288 582 l 1288 375 l 1265 375 q 1248 408 1258 399 q 1217 417 1238 417 l 851 417 l 851 121 l 1433 121 q 1464 131 1453 121 q 1482 164 1475 140 l 1504 164 l 1504 -43 l 1482 -43 q 1433 0 1471 0 l 661 0 l 661 22 q 694 40 685 29 q 704 71 704 51 l 704 240 l 329 240 m 704 806 l 682 806 l 407 361 l 704 361 l 704 806 z "},"Œ":{"ha":1614,"x_min":71,"x_max":1558,"o":"m 906 121 l 1488 121 q 1518 131 1507 121 q 1536 164 1529 140 l 1558 164 l 1558 -43 l 1536 -43 q 1518 -10 1529 -19 q 1488 0 1507 0 l 747 0 q 739 0 744 0 q 726 -1 733 0 q 691 -2 711 -1 q 651 -3 671 -3 q 615 -5 631 -4 q 593 -6 599 -6 q 385 30 481 -6 q 219 128 289 65 q 110 276 150 190 q 71 464 71 363 q 110 651 71 565 q 219 799 150 736 q 385 897 289 861 q 594 932 482 932 q 619 931 603 932 q 656 930 636 931 q 694 928 675 929 q 726 928 714 928 q 739 926 733 926 q 747 926 744 926 l 1460 926 q 1490 936 1479 926 q 1508 969 1501 946 l 1531 969 l 1531 763 l 1508 763 q 1491 796 1501 786 q 1460 806 1481 806 l 906 806 l 906 538 l 1271 538 q 1319 582 1308 538 l 1342 582 l 1342 375 l 1319 375 q 1302 408 1313 399 q 1271 417 1292 417 l 906 417 l 906 121 m 758 806 q 713 808 731 807 q 683 811 696 810 q 658 813 669 813 q 633 813 647 813 q 472 795 538 813 q 356 739 406 778 q 257 619 290 689 q 224 463 224 550 q 269 284 224 364 q 397 160 314 204 q 629 114 481 114 q 656 114 644 114 q 682 115 668 114 q 714 117 696 117 q 758 121 732 118 l 758 806 z "},"Ø":{"ha":1189,"x_min":71,"x_max":1118,"o":"m 1092 1024 l 1092 997 q 1071 991 1079 994 q 1053 979 1063 988 q 1032 957 1043 971 q 1004 919 1021 943 q 990 901 997 910 q 975 881 982 892 l 940 835 q 1072 668 1026 764 q 1118 463 1118 572 q 1070 255 1118 354 q 938 89 1022 156 q 596 -17 803 -17 q 460 -5 519 -17 q 340 35 401 7 l 324 13 q 303 -20 311 -6 q 296 -44 296 -35 q 329 -72 296 -67 l 329 -99 l 99 -99 l 99 -72 q 122 -65 113 -69 q 143 -51 132 -61 q 170 -23 154 -42 q 214 29 186 -4 l 256 86 q 117 256 164 161 q 71 464 71 351 q 119 672 71 572 q 251 838 167 772 q 592 943 386 943 q 732 931 669 943 q 853 890 794 918 l 875 918 q 894 964 894 946 q 861 997 894 988 l 861 1024 l 1092 1024 m 421 142 q 504 115 467 122 q 594 108 542 108 q 746 134 678 108 q 863 206 814 160 q 939 318 913 253 q 965 463 965 383 q 857 725 965 626 l 421 142 m 774 782 q 688 810 729 801 q 593 818 646 818 q 442 792 510 818 q 325 720 374 767 q 250 608 276 674 q 224 464 224 543 q 251 316 224 381 q 338 196 279 251 l 774 782 z "},"Ç":{"ha":1146,"x_min":71,"x_max":1094,"o":"m 1094 136 l 1076 122 q 1051 136 1063 136 q 1031 131 1042 136 q 1000 113 1019 126 q 897 51 944 75 q 803 11 850 26 q 708 -10 757 -4 q 601 -17 660 -17 q 233 94 369 -17 q 114 253 157 157 q 71 457 71 349 q 114 662 71 567 q 239 825 157 757 q 397 915 310 886 q 594 943 485 943 q 769 922 683 943 q 961 853 854 900 q 994 838 988 840 q 1010 836 1001 836 q 1038 853 1022 836 l 1057 842 l 951 644 l 932 656 q 935 668 935 664 q 936 678 936 672 q 867 750 936 714 q 735 800 804 782 q 604 818 667 818 q 453 793 524 818 q 331 721 383 768 q 224 453 224 625 q 251 308 224 372 q 328 200 278 244 q 449 132 378 156 q 611 108 521 108 q 890 199 775 108 q 944 265 944 240 q 933 290 944 276 l 951 303 l 1094 136 m 521 -89 l 525 -81 q 531 -72 528 -74 q 546 -69 535 -69 q 675 -98 631 -69 q 719 -179 719 -126 q 675 -262 719 -232 q 549 -292 631 -292 q 486 -288 515 -292 q 428 -276 457 -285 l 442 -243 q 476 -251 463 -249 q 508 -253 490 -253 q 578 -237 553 -253 q 604 -193 604 -221 q 590 -158 604 -172 q 554 -143 575 -143 q 503 -167 524 -143 l 486 -156 l 521 -89 z "},"Ð":{"ha":1165,"x_min":21,"x_max":1094,"o":"m 92 428 q 60 418 71 428 q 43 385 50 408 l 21 385 l 21 583 l 43 583 q 60 549 50 560 q 92 539 71 539 l 136 539 l 136 856 q 126 886 136 875 q 93 904 117 897 l 93 926 l 601 926 q 720 921 668 926 q 814 903 772 915 q 890 871 856 890 q 956 822 925 851 q 1059 667 1024 758 q 1094 463 1094 575 q 1059 260 1094 351 q 956 104 1024 168 q 890 56 925 76 q 814 24 856 36 q 720 6 772 11 q 601 0 668 0 l 93 0 l 93 22 q 126 40 117 29 q 136 71 136 51 l 136 428 l 92 428 m 528 539 q 558 549 547 539 q 576 583 569 558 l 599 583 l 599 385 l 576 385 q 559 418 569 408 q 528 428 549 428 l 283 428 l 283 121 l 575 121 q 756 143 690 121 q 865 218 821 165 q 922 326 901 264 q 942 463 942 389 q 922 599 942 536 q 865 708 901 663 q 756 784 821 763 q 575 806 690 806 l 283 806 l 283 539 l 528 539 z "},"\u001c":{"ha":928,"x_min":21,"x_max":910,"o":"m 83 297 q 65 283 72 289 q 54 269 58 276 q 48 253 50 263 q 44 231 46 244 l 21 231 l 21 446 l 43 446 q 64 417 47 417 q 99 436 71 417 l 136 464 l 136 856 q 126 886 136 875 q 93 904 117 897 l 93 926 l 326 926 l 326 904 q 293 886 303 897 q 283 856 283 875 l 283 535 l 507 690 q 538 718 531 707 q 547 757 544 729 l 571 757 l 571 542 l 547 542 q 528 571 544 571 q 493 551 519 571 l 478 540 l 283 404 l 283 121 l 839 121 q 888 164 876 121 l 910 164 l 910 -43 l 888 -43 q 870 -10 881 -19 q 839 0 860 0 l 93 0 l 93 22 q 126 40 117 29 q 136 71 136 51 l 136 333 l 83 297 z "},"Þ":{"ha":961,"x_min":93,"x_max":910,"o":"m 532 774 q 625 771 585 774 q 697 762 665 768 q 755 745 729 756 q 803 721 781 735 q 881 633 853 689 q 910 510 910 576 q 881 386 910 443 q 803 296 851 329 q 697 255 758 267 q 532 243 636 243 l 283 243 l 283 71 q 326 22 283 33 l 326 0 l 93 0 l 93 22 q 126 40 117 29 q 136 71 136 51 l 136 856 q 126 886 136 875 q 93 904 117 897 l 93 926 l 326 926 l 326 904 q 283 856 283 893 l 283 774 l 532 774 m 542 364 q 651 369 614 364 q 717 390 689 375 q 766 437 749 406 q 783 508 783 468 q 766 580 783 549 q 717 626 749 611 q 686 640 701 635 q 651 647 671 644 q 606 651 632 650 q 542 653 579 653 l 283 653 l 283 364 l 542 364 z "},"a":{"ha":931,"x_min":4,"x_max":935,"o":"m 264 194 l 214 88 q 204 53 204 68 q 239 18 204 28 l 239 0 l 4 0 l 4 18 q 47 41 31 22 q 83 104 64 60 l 326 647 q 345 690 342 679 q 349 710 349 700 q 341 731 349 725 q 314 742 333 738 l 314 760 l 607 760 l 607 740 q 581 730 588 736 q 574 711 574 724 q 580 685 574 701 q 601 638 586 669 l 847 114 q 873 67 863 85 q 893 38 883 49 q 913 24 903 28 q 935 18 922 19 l 935 0 l 689 0 l 689 18 q 722 43 722 26 q 720 54 722 49 q 706 88 718 60 l 657 194 l 264 194 m 454 642 l 311 306 l 604 306 l 454 642 z "},"b":{"ha":917,"x_min":74,"x_max":864,"o":"m 547 760 q 768 709 699 760 q 838 549 838 658 q 813 453 838 489 q 728 392 788 417 q 864 217 864 350 q 783 47 864 103 q 744 24 764 33 q 699 10 724 15 q 643 2 675 4 q 569 0 611 0 l 74 0 l 74 18 q 117 67 117 29 l 117 697 q 74 743 117 733 l 74 760 l 547 760 m 539 444 q 613 447 590 444 q 654 461 635 450 q 699 547 699 485 q 654 632 699 608 q 635 640 644 638 q 614 645 626 643 q 583 648 601 647 q 539 649 565 649 l 254 649 l 254 444 l 539 444 m 558 111 q 683 137 646 111 q 721 222 721 163 q 683 308 721 283 q 558 333 646 333 l 254 333 l 254 111 l 558 111 z "},"c":{"ha":956,"x_min":57,"x_max":915,"o":"m 915 106 l 901 94 q 872 107 883 107 q 852 101 864 107 q 804 72 840 96 q 654 8 738 32 q 493 -17 571 -17 q 332 6 410 -17 q 201 69 254 29 q 96 205 135 121 q 57 381 57 289 q 89 540 57 467 q 179 665 121 613 q 317 746 238 717 q 493 775 397 775 q 636 757 564 775 q 799 699 708 739 q 825 688 815 690 q 842 685 835 685 q 865 697 849 685 l 882 689 l 788 524 l 771 533 q 774 550 774 540 q 756 583 774 568 q 699 617 739 599 q 602 650 649 640 q 503 660 556 660 q 378 640 433 660 q 283 583 322 619 q 222 494 243 546 q 200 376 200 442 q 283 172 200 246 q 508 99 365 99 q 728 164 631 99 q 779 219 779 201 q 772 242 779 229 l 786 254 l 915 106 z "},"d":{"ha":975,"x_min":74,"x_max":917,"o":"m 74 760 l 497 760 q 599 755 554 760 q 678 740 643 750 q 742 713 714 729 q 797 671 771 696 q 886 542 856 618 q 917 381 917 465 q 886 218 917 294 q 797 89 856 142 q 741 47 769 64 q 677 19 713 29 q 598 4 642 8 q 497 0 554 0 l 74 0 l 74 19 q 107 40 97 28 q 117 72 117 51 l 117 688 q 107 722 117 710 q 74 740 97 733 l 74 760 m 474 111 q 555 115 519 111 q 618 128 590 119 q 667 151 646 138 q 707 185 689 165 q 774 381 774 258 q 756 489 774 439 q 707 575 739 539 q 618 632 671 615 q 474 649 565 649 l 254 649 l 254 111 l 474 111 z "},"e":{"ha":839,"x_min":74,"x_max":794,"o":"m 254 111 l 725 111 q 758 121 746 111 q 776 154 769 131 l 794 154 l 794 -43 l 776 -43 q 758 -10 769 -19 q 726 0 747 0 l 74 0 l 74 19 q 117 69 117 31 l 117 690 q 107 722 117 711 q 74 740 97 733 l 74 760 l 692 760 q 725 769 714 760 q 743 803 736 779 l 761 803 l 761 604 l 743 604 q 725 638 736 628 q 692 649 714 649 l 254 649 l 254 443 l 536 443 q 569 453 557 443 q 588 486 581 463 l 606 486 l 606 289 l 588 289 q 569 322 581 313 q 536 332 557 332 l 254 332 l 254 111 z "},"f":{"ha":790,"x_min":74,"x_max":761,"o":"m 254 69 q 264 37 254 49 q 297 18 274 25 l 297 0 l 74 0 l 74 18 q 107 37 97 25 q 117 69 117 49 l 117 690 q 107 722 117 711 q 74 740 97 733 l 74 760 l 692 760 q 725 769 714 760 q 743 803 736 779 l 761 803 l 761 604 l 743 604 q 725 638 736 628 q 692 649 714 649 l 254 649 l 254 439 l 536 439 q 569 449 557 439 q 588 482 581 458 l 606 482 l 606 285 l 588 285 q 569 318 581 308 q 536 328 557 328 l 254 328 l 254 69 z "},"g":{"ha":968,"x_min":57,"x_max":915,"o":"m 567 278 q 534 268 546 278 q 515 235 522 258 l 497 235 l 497 426 l 515 426 q 534 393 522 403 q 567 383 546 383 l 915 383 l 915 365 q 882 347 892 358 q 872 315 872 336 l 872 171 q 882 139 872 150 q 915 121 892 128 l 915 103 q 507 -17 713 -17 q 194 82 311 -17 q 93 216 129 138 q 57 381 57 294 q 85 525 57 456 q 165 649 113 594 q 490 775 288 775 q 569 771 532 775 q 644 756 606 767 q 725 730 682 746 q 821 689 768 714 q 838 685 829 685 q 850 688 844 685 q 867 699 856 690 l 882 690 l 783 524 l 767 533 q 769 550 769 540 q 713 607 769 576 q 609 647 657 635 q 508 660 561 660 q 382 640 439 660 q 285 582 325 619 q 223 492 244 544 q 201 375 201 439 q 224 262 201 313 q 289 175 247 211 q 388 119 331 139 q 517 99 446 99 q 581 103 547 99 q 649 117 615 108 q 710 135 682 125 q 756 158 738 146 l 756 278 l 567 278 z "},"h":{"ha":993,"x_min":74,"x_max":918,"o":"m 254 339 l 254 69 q 264 37 254 49 q 297 18 274 25 l 297 0 l 74 0 l 74 18 q 107 37 97 25 q 117 69 117 49 l 117 690 q 74 740 117 729 l 74 760 l 299 760 l 299 740 q 254 690 254 729 l 254 450 l 738 450 l 738 690 q 693 740 738 729 l 693 760 l 918 760 l 918 740 q 875 690 875 729 l 875 69 q 885 37 875 49 q 918 18 894 25 l 918 0 l 694 0 l 694 18 q 728 37 718 25 q 738 69 738 49 l 738 339 l 254 339 z "},"i":{"ha":374,"x_min":74,"x_max":299,"o":"m 299 760 l 299 740 q 254 690 254 729 l 254 69 q 264 37 254 49 q 297 18 274 25 l 297 0 l 74 0 l 74 18 q 107 37 97 25 q 117 69 117 49 l 117 690 q 74 740 117 729 l 74 760 l 299 760 z "},"j":{"ha":694,"x_min":4,"x_max":636,"o":"m 68 211 l 85 204 l 86 199 q 96 167 88 178 q 132 140 104 156 q 292 99 204 99 q 428 143 392 99 q 443 166 438 154 q 451 199 449 178 q 455 256 454 221 q 456 351 456 292 l 456 690 q 411 740 456 729 l 411 760 l 636 760 l 636 740 q 593 690 593 731 l 593 361 q 590 238 593 288 q 580 154 588 189 q 559 96 572 119 q 525 51 546 72 q 433 1 493 19 q 303 -17 374 -17 q 252 -15 274 -17 q 208 -8 231 -14 q 155 7 185 -3 q 81 33 125 17 q 53 39 65 39 q 38 36 44 39 q 22 22 32 33 l 4 29 l 68 211 z "},"k":{"ha":926,"x_min":74,"x_max":918,"o":"m 254 293 l 254 69 q 264 37 254 49 q 297 18 274 25 l 297 0 l 74 0 l 74 18 q 107 37 97 25 q 117 69 117 49 l 117 690 q 107 722 117 711 q 74 740 97 733 l 74 760 l 299 760 l 299 740 q 254 690 254 729 l 254 425 l 564 663 q 610 701 600 692 q 619 721 619 711 q 594 740 619 736 l 594 760 l 864 760 l 864 740 q 844 734 851 738 q 821 721 836 731 q 801 707 811 714 q 782 693 792 700 l 740 661 l 517 490 l 815 104 q 857 58 842 75 q 882 33 872 42 q 899 22 892 25 q 918 18 907 19 l 918 0 l 663 0 l 663 18 q 685 27 679 22 q 692 39 692 32 q 668 78 692 49 l 413 411 l 254 293 z "},"l":{"ha":776,"x_min":74,"x_max":761,"o":"m 692 111 q 724 121 713 111 q 743 154 736 131 l 761 154 l 761 -43 l 743 -43 q 724 -10 736 -19 q 692 0 713 0 l 74 0 l 74 19 q 117 69 117 31 l 117 690 q 107 722 117 711 q 74 740 97 733 l 74 760 l 299 760 l 299 740 q 254 690 254 729 l 254 111 l 692 111 z "},"m":{"ha":1133,"x_min":74,"x_max":1060,"o":"m 239 606 l 239 69 q 249 37 239 49 q 282 18 258 25 l 282 0 l 74 0 l 74 18 q 107 37 97 25 q 117 69 117 49 l 117 690 q 74 740 117 729 l 74 760 l 369 760 l 369 740 q 335 710 335 731 q 338 693 335 703 q 353 667 342 683 l 569 299 l 771 668 q 784 695 782 690 q 786 708 786 700 q 780 726 786 721 q 751 740 774 732 l 751 760 l 1060 760 l 1060 740 q 1015 690 1015 729 l 1015 69 q 1025 37 1015 49 q 1058 18 1035 25 l 1058 0 l 835 0 l 835 18 q 868 37 858 25 q 878 69 878 49 l 878 606 l 561 39 l 239 606 z "},"n":{"ha":996,"x_min":74,"x_max":921,"o":"m 238 69 q 247 37 238 49 q 281 18 257 25 l 281 0 l 74 0 l 74 18 q 107 37 97 25 q 117 69 117 49 l 117 690 q 107 722 117 711 q 74 740 97 733 l 74 760 l 353 760 l 353 740 q 317 703 317 729 q 324 679 317 690 q 353 644 331 668 l 756 229 l 756 690 q 713 740 756 729 l 713 760 l 921 760 l 921 740 q 878 690 878 729 l 878 69 q 888 37 878 49 q 921 18 897 25 l 921 0 l 686 0 l 686 18 q 715 30 708 24 q 722 49 722 36 q 722 58 722 54 q 717 67 721 63 q 707 80 714 72 q 688 100 700 88 l 238 565 l 238 69 z "},"o":{"ha":988,"x_min":57,"x_max":931,"o":"m 500 775 q 799 674 685 775 q 896 542 861 619 q 931 379 931 465 q 896 216 931 293 q 799 85 861 139 q 494 -17 685 -17 q 322 8 396 -17 q 189 85 247 32 q 92 216 126 139 q 57 378 57 293 q 92 543 57 465 q 189 674 126 621 q 324 751 250 726 q 500 775 397 775 m 490 660 q 372 640 425 660 q 281 582 319 619 q 221 493 242 544 q 200 379 200 442 q 222 265 200 317 q 281 176 243 213 q 374 119 319 139 q 494 99 428 99 q 614 119 560 99 q 706 176 668 139 q 766 264 744 213 q 788 378 788 315 q 766 494 788 442 q 706 583 744 546 q 612 640 667 619 q 490 660 557 660 z "},"p":{"ha":850,"x_min":74,"x_max":811,"o":"m 254 69 q 296 18 254 31 l 296 0 l 74 0 l 74 18 q 107 37 97 25 q 117 69 117 49 l 117 696 q 74 743 117 732 l 74 760 l 508 760 q 581 758 550 760 q 638 751 613 756 q 682 740 663 747 q 719 722 701 732 q 787 648 763 696 q 811 542 811 600 q 787 436 811 482 q 718 363 763 390 q 680 344 699 351 q 637 332 661 336 q 581 326 613 328 q 508 324 550 324 l 254 324 l 254 69 m 513 435 q 597 440 563 435 q 651 458 631 446 q 680 491 671 471 q 689 542 689 511 q 650 626 689 603 q 600 644 629 639 q 513 649 571 649 l 254 649 l 254 435 l 513 435 z "},"q":{"ha":988,"x_min":57,"x_max":931,"o":"m 693 18 q 644 1 667 8 q 598 -10 621 -6 q 549 -15 575 -14 q 493 -17 524 -17 q 322 8 396 -17 q 189 85 247 32 q 92 216 126 139 q 57 379 57 293 q 92 542 57 465 q 189 674 126 619 q 322 751 247 726 q 494 775 396 775 q 799 674 685 775 q 896 542 861 619 q 931 379 931 465 q 890 203 931 285 q 775 65 850 122 l 832 -3 q 859 -33 853 -28 q 875 -39 865 -39 q 900 -31 886 -39 l 911 -44 l 788 -149 l 776 -135 q 788 -108 788 -118 q 783 -94 788 -101 q 768 -72 779 -87 l 693 18 m 446 214 q 498 226 469 221 q 550 231 526 231 q 622 215 590 231 q 692 164 654 200 q 788 379 788 247 q 766 494 788 442 q 706 583 744 546 q 614 640 668 619 q 494 660 560 660 q 374 640 428 660 q 281 583 319 619 q 222 494 243 546 q 200 379 200 442 q 221 265 200 317 q 281 176 242 214 q 372 119 319 139 q 490 99 425 99 q 551 103 522 99 q 611 118 579 107 q 542 177 579 160 q 446 196 504 194 l 446 214 z "},"r":{"ha":901,"x_min":74,"x_max":886,"o":"m 254 69 q 294 19 254 31 l 294 0 l 74 0 l 74 19 q 107 38 97 26 q 117 69 117 49 l 117 694 q 74 742 117 732 l 74 760 l 476 760 q 572 758 532 760 q 640 753 611 757 q 689 742 668 749 q 729 726 710 736 q 800 653 774 703 q 826 539 826 603 q 649 339 826 372 l 813 79 q 849 35 833 47 q 886 18 864 22 l 886 0 l 657 0 l 657 18 q 678 33 678 22 q 663 71 678 46 l 500 325 l 254 325 l 254 69 m 533 436 q 614 441 586 436 q 663 458 642 446 q 693 492 682 469 q 704 543 704 515 q 693 593 704 571 q 663 628 682 615 q 615 644 642 639 q 533 649 588 649 l 254 649 l 254 436 l 533 436 z "},"s":{"ha":875,"x_min":38,"x_max":839,"o":"m 721 543 l 703 551 q 706 562 706 558 q 706 568 706 565 q 692 595 706 583 q 647 621 679 607 q 598 640 621 632 q 550 652 575 647 q 497 659 525 657 q 432 661 468 661 q 279 633 333 661 q 236 598 251 618 q 221 556 221 578 q 256 500 221 518 q 376 472 290 482 l 508 458 q 659 431 596 449 q 762 387 722 414 q 820 322 801 360 q 839 233 839 283 q 804 109 839 164 q 707 25 769 54 q 605 -7 661 3 q 472 -17 549 -17 q 374 -11 419 -17 q 287 6 329 -6 q 201 37 244 18 q 113 83 158 56 q 83 94 94 94 q 53 81 72 94 l 38 90 l 146 257 l 163 247 q 159 236 160 240 q 158 228 158 232 q 172 194 158 210 q 217 158 185 178 q 472 99 310 99 q 644 133 579 99 q 708 226 708 168 q 663 290 708 268 q 501 324 618 311 l 367 338 q 162 401 226 353 q 97 539 97 449 q 184 714 97 651 q 425 776 271 776 q 493 774 460 776 q 561 763 526 771 q 635 744 596 756 q 719 717 674 733 q 760 708 742 708 q 772 711 767 708 q 788 724 776 714 l 806 717 l 721 543 z "},"t":{"ha":768,"x_min":11,"x_max":757,"o":"m 453 69 q 463 37 453 49 q 496 18 472 25 l 496 0 l 272 0 l 272 18 q 306 37 296 25 q 315 69 315 49 l 315 649 l 81 649 q 48 638 60 649 q 29 604 36 628 l 11 604 l 11 801 l 29 801 q 48 769 38 778 q 81 760 58 760 l 688 760 q 719 769 708 760 q 739 801 731 778 l 757 801 l 757 604 l 739 604 q 720 638 732 628 q 688 649 708 649 l 453 649 l 453 69 z "},"u":{"ha":925,"x_min":60,"x_max":867,"o":"m 285 740 q 240 690 240 729 l 240 288 q 294 140 240 178 q 370 110 324 121 q 471 99 417 99 q 574 110 526 99 q 649 140 621 121 q 688 194 676 160 q 700 288 700 229 l 700 690 q 691 722 700 711 q 658 740 682 733 l 658 760 l 867 760 l 867 740 q 822 690 822 729 l 822 297 q 798 131 822 193 q 721 38 774 69 q 611 -3 678 11 q 464 -17 544 -17 q 314 -3 382 -17 q 203 38 246 11 q 126 131 150 68 q 103 297 103 193 l 103 690 q 93 722 103 711 q 60 740 83 733 l 60 760 l 285 760 l 285 740 z "},"v":{"ha":857,"x_min":4,"x_max":854,"o":"m 649 663 q 660 704 660 688 q 619 742 660 735 l 619 760 l 854 760 l 854 740 q 828 731 839 736 q 810 714 818 725 q 792 685 801 703 q 772 639 783 668 l 546 114 q 533 81 536 93 q 529 57 529 68 q 538 31 529 40 q 567 18 546 22 l 567 0 l 286 0 l 286 18 q 325 58 325 26 q 322 77 325 68 q 307 114 319 86 l 86 639 q 67 684 75 667 q 49 713 58 701 q 29 730 40 724 q 4 740 18 736 l 4 760 l 250 760 l 250 742 q 210 704 210 733 q 221 663 210 689 l 431 149 l 649 663 z "},"w":{"ha":1311,"x_min":-4,"x_max":1314,"o":"m 488 108 q 476 74 478 81 q 474 58 474 67 q 513 18 474 29 l 513 0 l 256 0 l 256 18 q 284 31 275 22 q 293 56 293 39 q 281 108 293 72 l 68 667 q 39 719 53 706 q -4 740 25 733 l -4 760 l 238 760 l 238 740 q 199 704 199 731 q 200 692 199 697 q 210 665 201 688 l 383 192 l 556 665 q 564 703 564 688 q 528 740 564 732 l 528 760 l 803 760 l 803 740 q 763 704 763 732 q 764 690 763 697 q 772 665 765 682 l 933 190 l 1106 665 q 1113 699 1113 686 q 1069 740 1113 732 l 1069 760 l 1314 760 l 1314 740 q 1268 719 1286 736 q 1236 667 1250 703 l 1029 97 q 1021 60 1021 74 q 1058 18 1021 22 l 1058 0 l 800 0 l 800 18 q 838 56 838 24 q 835 72 838 64 q 824 108 833 81 l 658 585 l 488 108 z "},"x":{"ha":800,"x_min":4,"x_max":797,"o":"m 699 100 q 753 38 732 56 q 797 18 775 21 l 797 0 l 536 0 l 536 18 q 569 42 569 22 q 565 56 569 49 q 546 85 561 63 l 394 289 l 246 85 q 226 43 226 58 q 257 18 226 25 l 257 0 l 4 0 l 4 18 q 28 26 17 21 q 50 40 39 31 q 74 63 61 49 q 106 100 88 78 l 321 392 l 125 657 q 75 717 96 699 q 29 740 54 735 l 29 760 l 294 760 l 294 740 q 270 729 276 736 q 264 710 264 722 q 281 671 264 692 l 406 500 l 538 675 q 554 711 554 696 q 522 740 554 736 l 522 760 l 771 760 l 771 740 q 747 731 757 736 q 725 716 736 725 q 702 692 714 707 q 674 657 690 678 l 479 396 l 699 100 z "},"y":{"ha":817,"x_min":-11,"x_max":828,"o":"m 475 69 q 485 37 475 49 q 518 18 494 25 l 518 0 l 294 0 l 294 18 q 328 37 318 25 q 338 69 338 49 l 338 310 l 100 639 q 38 713 63 690 q -11 740 13 735 l -11 760 l 250 760 l 250 742 q 219 714 219 736 q 238 669 219 696 l 413 422 l 586 669 q 606 713 606 694 q 575 742 606 736 l 575 760 l 828 760 l 828 740 q 802 730 814 736 q 777 710 790 724 q 746 675 764 697 q 701 618 728 653 l 475 310 l 475 69 z "},"z":{"ha":786,"x_min":38,"x_max":742,"o":"m 672 111 q 705 121 693 111 q 724 154 717 131 l 742 154 l 742 -43 l 724 -43 q 706 -10 717 -19 q 672 0 694 0 l 38 0 l 38 31 l 496 649 l 132 649 q 99 638 111 649 q 81 604 88 628 l 63 604 l 63 801 l 81 801 q 99 769 89 778 q 132 760 110 760 l 738 760 l 738 740 l 268 111 l 672 111 z "},"æ":{"ha":1363,"x_min":42,"x_max":1325,"o":"m 347 194 l 278 89 q 260 47 260 61 q 266 30 260 36 q 289 18 272 24 l 289 0 l 42 0 l 42 19 q 69 28 58 24 q 90 42 81 33 q 110 66 100 51 q 136 104 121 81 l 486 647 q 513 692 507 679 q 519 715 519 706 q 493 740 519 735 l 493 760 l 1197 760 q 1251 767 1239 760 q 1272 803 1264 775 l 1290 803 l 1290 604 l 1272 604 q 1221 649 1261 649 l 785 649 l 785 438 l 1065 438 q 1098 447 1086 438 q 1117 481 1110 457 l 1135 481 l 1135 283 l 1117 283 q 1098 317 1110 307 q 1065 326 1086 326 l 785 326 l 785 111 l 1254 111 q 1306 154 1294 111 l 1325 154 l 1325 -43 l 1306 -43 q 1256 0 1294 0 l 604 0 l 604 18 q 647 67 647 29 l 647 194 l 347 194 m 647 649 l 629 649 l 415 306 l 647 306 l 647 649 z "},"œ":{"ha":1311,"x_min":39,"x_max":1272,"o":"m 732 111 l 1203 111 q 1236 121 1225 111 q 1254 154 1247 131 l 1272 154 l 1272 -43 l 1254 -43 q 1236 -10 1247 -19 q 1204 0 1225 0 l 588 0 q 578 0 585 0 q 564 -1 572 0 q 543 -2 556 -1 q 516 -3 531 -3 q 487 -5 501 -4 q 463 -6 472 -6 q 295 24 372 -6 q 161 105 218 53 q 72 227 104 157 q 39 379 39 297 q 72 532 39 461 q 161 655 104 603 q 295 736 218 707 q 463 765 372 765 q 485 765 471 765 q 515 763 500 764 q 544 762 531 763 q 564 761 557 761 q 578 760 572 760 q 588 760 585 760 l 1169 760 q 1203 769 1192 760 q 1221 803 1214 779 l 1239 803 l 1239 604 l 1221 604 q 1169 649 1210 649 l 732 649 l 732 438 l 1014 438 q 1047 447 1035 438 q 1065 481 1058 457 l 1083 481 l 1083 283 l 1065 283 q 1047 317 1058 307 q 1014 326 1035 326 l 732 326 l 732 111 m 594 649 q 551 653 575 651 q 493 656 526 656 q 365 636 422 656 q 267 580 308 617 q 204 492 226 543 q 182 379 182 442 q 204 266 182 317 q 267 179 226 215 q 365 124 307 143 q 493 104 422 104 q 549 106 525 104 q 594 111 574 108 l 594 649 z "},"ø":{"ha":988,"x_min":57,"x_max":931,"o":"m 925 847 l 925 828 q 900 821 910 825 q 878 804 890 817 q 847 769 865 792 q 797 704 828 746 l 785 688 q 893 549 856 628 q 931 379 931 471 q 896 216 931 293 q 799 85 861 139 q 667 8 740 32 q 494 -17 593 -17 q 389 -9 433 -17 q 292 18 344 -1 l 283 6 q 261 -26 267 -17 q 256 -43 256 -36 q 288 -68 256 -62 l 288 -87 l 63 -87 l 63 -68 q 171 17 108 -64 l 208 68 q 95 207 133 128 q 57 379 57 286 q 92 542 57 465 q 189 674 126 619 q 322 751 247 726 q 494 775 396 775 q 552 773 526 775 q 602 767 578 771 q 651 756 626 763 q 703 738 675 749 l 714 751 q 732 797 732 776 q 700 828 732 817 l 700 847 l 925 847 m 368 121 q 430 103 401 108 q 494 99 458 99 q 614 119 560 99 q 706 176 668 139 q 766 265 744 213 q 788 379 788 317 q 768 489 788 440 q 707 582 749 538 l 368 121 m 628 635 q 561 654 590 649 q 494 660 532 660 q 374 640 428 660 q 281 583 319 619 q 222 494 243 546 q 200 379 200 442 q 285 172 200 257 l 628 635 z "},"ß":{"ha":1751,"x_min":38,"x_max":1715,"o":"m 721 543 l 703 551 q 706 562 706 558 q 706 568 706 565 q 692 595 706 583 q 647 621 679 607 q 598 640 621 632 q 550 652 575 647 q 497 659 525 657 q 432 661 468 661 q 279 633 333 661 q 236 598 251 618 q 221 556 221 578 q 256 500 221 518 q 376 472 290 482 l 508 458 q 659 431 596 449 q 762 387 722 414 q 820 322 801 360 q 839 233 839 283 q 804 109 839 164 q 707 25 769 54 q 605 -7 661 3 q 472 -17 549 -17 q 374 -11 419 -17 q 287 6 329 -6 q 201 37 244 18 q 113 83 158 56 q 83 94 94 94 q 53 81 72 94 l 38 90 l 146 257 l 163 247 q 159 236 160 240 q 158 228 158 232 q 172 194 158 210 q 217 158 185 178 q 472 99 310 99 q 644 133 579 99 q 708 226 708 168 q 663 290 708 268 q 501 324 618 311 l 367 338 q 162 401 226 353 q 97 539 97 449 q 184 714 97 651 q 425 776 271 776 q 493 774 460 776 q 561 763 526 771 q 635 744 596 756 q 719 717 674 733 q 760 708 742 708 q 772 711 767 708 q 788 724 776 714 l 806 717 l 721 543 m 1596 543 l 1579 551 q 1582 561 1582 558 q 1582 569 1582 564 q 1524 621 1582 594 q 1474 640 1497 632 q 1426 652 1451 647 q 1373 659 1401 657 q 1308 661 1344 661 q 1156 633 1210 661 q 1113 598 1128 618 q 1097 556 1097 578 q 1132 501 1097 519 q 1253 472 1167 482 l 1383 458 q 1638 387 1560 439 q 1715 233 1715 335 q 1681 109 1715 164 q 1583 25 1646 54 q 1481 -7 1538 3 q 1349 -17 1424 -17 q 1250 -11 1296 -17 q 1162 6 1204 -6 q 1076 37 1119 18 q 988 83 1033 56 q 960 94 969 94 q 929 81 949 94 l 913 90 l 1022 257 l 1038 247 q 1034 236 1035 240 q 1033 226 1033 232 q 1047 194 1033 210 q 1092 158 1060 178 q 1349 99 1186 99 q 1520 133 1456 99 q 1585 226 1585 168 q 1574 263 1585 247 q 1540 290 1564 278 q 1475 309 1515 301 q 1376 324 1435 317 l 1242 338 q 1038 401 1103 353 q 974 539 974 449 q 1060 714 974 651 q 1301 776 1147 776 q 1369 774 1336 776 q 1438 763 1403 771 q 1510 744 1472 756 q 1594 717 1549 733 q 1635 708 1617 708 q 1647 711 1642 708 q 1664 724 1653 714 l 1681 717 l 1596 543 z "},"\r":{"ha":374,"x_min":74,"x_max":299,"o":"m 299 760 l 299 740 q 254 690 254 729 l 254 69 q 264 37 254 49 q 297 18 274 25 l 297 0 l 74 0 l 74 18 q 107 37 97 25 q 117 69 117 49 l 117 690 q 74 740 117 729 l 74 760 l 299 760 z "},"\u001a":{"ha":1164,"x_min":74,"x_max":1090,"o":"m 254 69 q 264 37 254 49 q 297 18 274 25 l 297 0 l 74 0 l 74 18 q 107 37 97 25 q 117 69 117 49 l 117 690 q 107 722 117 711 q 74 740 97 733 l 74 760 l 692 760 q 725 769 714 760 q 743 803 736 779 l 761 803 l 761 604 l 743 604 q 725 638 736 628 q 692 649 714 649 l 254 649 l 254 439 l 536 439 q 569 449 557 439 q 588 482 581 458 l 606 482 l 606 285 l 588 285 q 569 318 581 308 q 536 328 557 328 l 254 328 l 254 69 m 1090 760 l 1090 740 q 1046 690 1046 729 l 1046 69 q 1056 37 1046 49 q 1089 18 1065 25 l 1089 0 l 865 0 l 865 18 q 899 37 889 25 q 908 69 908 49 l 908 690 q 865 740 908 729 l 865 760 l 1090 760 z "},"\u001b":{"ha":1567,"x_min":74,"x_max":1551,"o":"m 254 69 q 264 37 254 49 q 297 18 274 25 l 297 0 l 74 0 l 74 18 q 107 37 97 25 q 117 69 117 49 l 117 690 q 107 722 117 711 q 74 740 97 733 l 74 760 l 692 760 q 725 769 714 760 q 743 803 736 779 l 761 803 l 761 604 l 743 604 q 725 638 736 628 q 692 649 714 649 l 254 649 l 254 439 l 536 439 q 569 449 557 439 q 588 482 581 458 l 606 482 l 606 285 l 588 285 q 569 318 581 308 q 536 328 557 328 l 254 328 l 254 69 m 1482 111 q 1515 121 1503 111 q 1533 154 1526 131 l 1551 154 l 1551 -43 l 1533 -43 q 1515 -10 1526 -19 q 1482 0 1504 0 l 865 0 l 865 19 q 908 69 908 31 l 908 690 q 899 722 908 711 q 865 740 889 733 l 865 760 l 1090 760 l 1090 740 q 1046 690 1046 729 l 1046 111 l 1482 111 z "},"ç":{"ha":956,"x_min":57,"x_max":915,"o":"m 915 106 l 901 94 q 872 107 883 107 q 852 101 864 107 q 804 72 840 96 q 654 8 738 32 q 493 -17 571 -17 q 332 6 410 -17 q 201 69 254 29 q 96 205 135 121 q 57 381 57 289 q 89 540 57 467 q 179 665 121 613 q 317 746 238 717 q 493 775 397 775 q 636 757 564 775 q 799 699 708 739 q 825 688 815 690 q 842 685 835 685 q 865 697 849 685 l 882 689 l 788 524 l 771 533 q 774 550 774 540 q 756 583 774 568 q 699 617 739 599 q 602 650 649 640 q 503 660 556 660 q 378 640 433 660 q 283 583 322 619 q 222 494 243 546 q 200 376 200 442 q 283 172 200 246 q 508 99 365 99 q 728 164 631 99 q 779 219 779 201 q 772 242 779 229 l 786 254 l 915 106 m 429 -82 q 439 -67 436 -69 q 453 -65 442 -65 q 567 -91 528 -65 q 607 -164 607 -117 q 567 -239 607 -212 q 451 -265 526 -265 q 392 -262 417 -265 q 346 -251 368 -258 l 357 -225 q 390 -232 376 -231 q 419 -233 403 -233 q 482 -219 460 -233 q 504 -179 504 -206 q 492 -147 504 -160 q 460 -133 479 -133 q 413 -154 431 -133 l 397 -144 l 429 -82 z "},"\u001d":{"ha":776,"x_min":15,"x_max":761,"o":"m 65 229 q 42 209 47 218 q 33 176 36 200 l 15 176 l 15 357 l 33 357 q 50 333 36 333 q 78 350 56 333 l 117 378 l 117 690 q 107 722 117 711 q 74 740 97 733 l 74 760 l 299 760 l 299 740 q 254 690 254 729 l 254 450 l 428 571 q 442 583 436 578 q 450 590 447 588 q 455 604 453 597 q 460 624 457 611 l 478 624 l 478 443 l 460 443 q 443 467 457 467 q 415 451 438 467 q 404 442 408 444 l 254 336 l 254 111 l 692 111 q 724 121 713 111 q 743 154 736 131 l 761 154 l 761 -43 l 743 -43 q 724 -10 736 -19 q 692 0 713 0 l 74 0 l 74 19 q 117 69 117 31 l 117 265 l 65 229 z "},"ð":{"ha":975,"x_min":11,"x_max":917,"o":"m 82 344 q 51 334 61 344 q 33 297 40 324 l 11 297 l 11 485 l 33 485 q 74 442 46 442 l 118 442 l 118 688 q 108 722 118 710 q 74 740 97 733 l 74 760 l 497 760 q 599 755 554 760 q 678 740 643 750 q 742 713 714 729 q 797 671 771 696 q 886 542 856 618 q 917 381 917 467 q 886 219 917 294 q 797 90 856 143 q 741 48 769 65 q 677 20 713 31 q 598 5 642 10 q 497 0 554 0 l 75 0 l 75 19 q 108 40 99 28 q 118 72 118 51 l 118 344 l 82 344 m 419 442 q 457 449 447 442 q 474 485 467 457 l 496 485 l 496 297 l 474 297 q 456 334 467 324 q 425 344 446 344 l 256 344 l 256 114 l 475 114 q 619 131 565 114 q 708 188 672 147 q 757 274 740 224 q 774 382 774 324 q 757 491 774 440 q 708 578 740 542 q 619 635 672 618 q 475 651 565 651 l 256 651 l 256 442 l 419 442 z "},"þ":{"ha":850,"x_min":74,"x_max":807,"o":"m 74 760 l 299 760 l 299 740 q 254 690 254 729 l 254 635 l 504 635 q 577 633 546 635 q 633 626 608 631 q 678 615 658 622 q 715 597 697 607 q 783 523 758 571 q 807 417 807 475 q 783 312 807 358 q 715 238 760 265 q 676 219 696 226 q 633 207 657 211 q 577 201 608 203 q 504 199 546 199 l 254 199 l 254 69 q 264 37 254 49 q 297 18 274 25 l 297 0 l 74 0 l 74 18 q 107 37 97 25 q 117 69 117 49 l 117 690 q 74 740 117 729 l 74 760 m 513 310 q 597 315 563 310 q 651 333 631 321 q 681 366 672 346 q 690 417 690 386 q 682 468 690 447 q 653 501 674 489 q 598 519 632 514 q 513 524 564 524 l 254 524 l 254 310 l 513 310 z "},"£":{"ha":949,"x_min":132,"x_max":936,"o":"m 238 547 q 227 612 231 589 q 222 647 224 635 q 219 666 219 660 q 219 681 219 672 q 244 785 219 738 q 312 869 268 833 q 416 924 356 904 q 547 943 476 943 q 670 926 614 943 q 783 871 726 908 q 814 850 794 865 q 830 839 825 842 q 850 825 835 836 q 874 810 865 814 q 889 807 882 807 q 919 821 901 807 l 933 806 l 763 657 l 749 674 q 767 703 767 686 q 717 772 767 735 q 568 818 656 818 q 419 776 476 818 q 363 665 363 733 q 363 651 363 657 q 364 635 363 644 q 367 611 365 626 q 374 568 369 596 l 376 547 l 547 547 q 596 590 585 547 l 618 590 l 618 393 l 596 393 q 578 427 589 417 q 547 438 568 438 l 396 438 q 403 383 401 401 q 404 342 404 364 q 400 287 404 313 q 387 237 396 261 q 363 188 378 213 q 326 135 349 163 q 398 153 372 149 q 450 157 424 157 q 513 153 482 157 q 590 138 544 149 q 643 127 622 131 q 683 124 664 124 q 744 140 719 124 q 769 182 769 157 q 761 207 769 193 l 775 222 l 936 46 l 919 31 q 893 43 906 43 q 885 42 889 43 q 873 39 881 42 q 853 31 865 36 q 822 15 842 25 q 689 -17 757 -17 q 665 -16 675 -17 q 641 -13 654 -15 q 607 -7 628 -11 q 551 6 586 -3 q 413 19 490 19 q 299 8 350 19 q 201 -28 249 -4 l 132 100 q 263 333 263 172 q 263 347 263 342 q 262 361 263 353 q 260 382 261 369 q 256 415 258 394 l 253 438 l 204 438 q 174 428 185 438 q 156 393 163 418 l 133 393 l 133 590 l 156 590 q 173 557 163 567 q 204 547 183 547 l 238 547 z "},"$":{"ha":949,"x_min":33,"x_max":879,"o":"m 542 544 q 754 486 672 533 q 836 401 807 457 q 865 274 865 344 q 817 113 865 181 q 682 13 769 44 q 606 -7 646 0 q 515 -15 567 -14 l 515 -90 q 558 -139 515 -128 l 558 -161 l 383 -161 l 383 -139 q 428 -90 428 -128 l 428 -14 q 349 -7 382 -11 q 288 8 317 -3 q 226 36 258 18 q 146 83 193 54 q 113 101 131 93 q 89 110 94 110 q 74 106 82 110 q 51 92 67 103 l 33 104 l 160 299 l 178 286 l 176 276 q 174 265 175 269 q 174 257 174 261 q 174 247 174 251 q 180 238 175 243 q 194 223 185 232 q 219 197 203 214 q 310 141 254 164 q 428 111 365 118 l 428 411 l 381 415 q 176 474 246 428 q 117 546 139 499 q 96 650 96 593 q 119 767 96 714 q 186 859 143 821 q 290 919 229 897 q 428 943 351 940 l 428 1008 q 383 1057 428 1046 l 383 1079 l 558 1079 l 558 1057 q 525 1040 535 1050 q 515 1008 515 1029 l 515 940 q 581 933 550 938 q 639 922 611 929 q 694 906 667 915 q 751 885 721 897 q 797 869 778 875 q 826 864 817 864 q 842 867 836 864 q 860 882 849 871 l 879 874 l 778 675 l 758 685 q 761 697 761 692 q 761 706 761 701 q 746 740 761 725 q 690 772 731 754 q 603 802 651 790 q 515 815 556 814 l 515 547 l 542 544 m 428 817 q 285 767 335 806 q 235 663 235 728 q 262 597 235 618 q 354 567 289 575 l 428 557 l 428 817 m 515 111 q 602 126 571 117 q 661 156 633 136 q 722 267 722 199 q 703 333 722 304 q 649 375 685 361 q 626 383 638 379 q 599 390 614 386 q 565 396 585 393 q 515 403 544 399 l 515 111 z "},"¢":{"ha":949,"x_min":89,"x_max":904,"o":"m 551 858 q 603 851 574 857 q 664 835 632 844 q 728 812 696 825 q 792 785 761 799 q 832 771 819 771 q 850 781 840 771 l 856 783 l 874 774 l 782 606 l 764 615 q 766 626 765 622 q 767 633 767 629 q 750 665 767 650 q 696 699 733 681 q 626 726 657 718 q 551 739 596 735 l 551 186 q 643 206 601 190 q 724 249 685 221 q 771 303 771 283 q 764 326 771 311 l 781 340 l 904 189 l 889 175 q 873 185 878 182 q 863 188 868 188 q 844 181 856 188 q 797 153 832 175 q 669 92 732 114 q 551 67 606 69 l 551 17 q 561 -14 551 -3 q 594 -32 571 -25 l 594 -54 l 421 -54 l 421 -32 q 454 -14 444 -25 q 464 17 464 -3 l 464 67 q 383 80 418 72 q 321 97 349 88 q 271 120 293 107 q 226 151 249 133 q 126 288 163 204 q 89 464 89 372 q 117 616 89 546 q 194 739 144 686 q 313 823 244 792 q 464 858 382 854 l 464 904 q 454 936 464 925 q 421 954 444 947 l 421 975 l 594 975 l 594 954 q 561 936 571 947 q 551 904 551 925 l 551 858 m 464 738 q 408 726 432 732 q 366 710 385 719 q 331 689 347 701 q 299 660 315 676 q 228 458 228 581 q 325 242 228 319 q 385 206 356 218 q 464 188 415 194 l 464 738 z "},"ƒ":{"ha":949,"x_min":-12,"x_max":961,"o":"m 89 138 l 106 129 q 100 113 100 119 q 108 86 100 100 q 131 62 117 72 q 160 44 144 51 q 193 38 176 38 q 264 53 225 38 q 324 93 303 69 q 336 107 332 101 q 344 124 340 113 q 350 155 347 135 q 358 211 353 175 l 403 488 l 351 488 q 318 478 331 488 q 294 444 306 468 l 274 444 l 301 619 l 322 619 q 335 585 325 594 q 365 575 344 575 l 417 575 l 442 735 q 471 832 449 783 q 519 908 493 881 q 616 968 556 946 q 744 990 676 990 q 900 938 836 990 q 911 932 906 932 q 928 937 921 932 q 946 957 935 942 l 961 950 l 860 789 l 843 797 q 853 832 853 825 q 841 851 853 842 q 812 869 829 861 q 772 883 794 878 q 729 889 750 889 q 651 872 688 889 q 597 829 614 856 q 586 808 592 821 q 575 778 581 794 q 565 746 569 763 q 560 717 561 729 l 538 575 l 686 575 q 742 619 722 575 l 764 619 l 736 444 l 714 444 q 701 478 711 468 q 671 488 692 488 l 522 488 l 475 192 q 463 126 469 153 q 449 81 457 100 q 431 47 442 61 q 406 18 421 32 q 308 -42 365 -19 q 196 -64 251 -64 q 116 -50 157 -64 q 49 -14 75 -36 q 38 -10 44 -10 q 3 -31 22 -10 l -12 -24 l 89 138 z "},"¥":{"ha":949,"x_min":63,"x_max":886,"o":"m 219 296 q 188 287 199 296 q 171 254 178 278 l 149 254 l 149 446 l 171 446 q 189 413 178 422 q 219 404 200 404 l 403 404 l 317 564 l 192 564 q 160 555 171 564 q 143 522 150 546 l 121 522 l 121 714 l 143 714 q 161 681 150 690 q 192 672 172 672 l 267 672 l 176 801 q 133 856 149 836 q 106 885 117 875 q 85 898 94 894 q 63 904 76 901 l 63 926 l 307 926 l 307 904 q 281 894 288 899 q 275 878 275 889 q 276 869 275 872 q 279 859 276 865 q 288 842 282 853 q 307 813 294 832 l 476 492 l 651 824 q 668 850 663 840 q 676 865 674 860 q 680 874 679 871 q 681 881 681 876 q 674 895 681 890 q 651 904 668 900 l 651 926 l 886 926 l 886 904 q 862 897 872 901 q 839 883 851 893 q 809 853 826 872 q 767 801 792 833 l 678 672 l 757 672 q 788 681 776 672 q 806 714 799 690 l 828 714 l 828 522 l 806 522 q 788 555 799 546 q 757 564 778 564 l 629 564 l 546 404 l 729 404 q 760 413 750 404 q 778 446 771 422 l 800 446 l 800 254 l 778 254 q 760 287 771 278 q 729 296 750 296 l 533 296 l 533 71 q 543 40 533 51 q 576 22 553 29 l 576 0 l 365 0 l 365 22 q 399 40 389 29 q 408 71 408 51 l 408 296 l 219 296 z "},"¹":{"ha":621,"x_min":196,"x_max":401,"o":"m 196 861 l 218 861 q 232 846 219 846 q 243 849 238 846 l 276 860 l 276 879 q 249 906 276 899 l 249 926 l 401 926 l 401 906 q 375 879 375 899 l 375 417 q 381 401 375 406 q 401 392 386 396 l 401 371 l 249 371 l 249 392 q 271 401 265 396 q 276 417 276 406 l 276 779 l 257 772 q 229 760 236 765 q 217 742 222 756 l 196 742 l 196 861 z "},"²":{"ha":621,"x_min":46,"x_max":572,"o":"m 522 450 q 540 456 535 450 q 550 476 546 461 l 572 476 l 572 344 l 550 344 q 540 365 546 360 q 522 369 535 369 l 100 369 q 82 365 88 369 q 72 344 76 360 l 50 344 l 50 361 q 118 521 50 443 q 151 553 135 539 q 186 581 167 567 q 232 608 206 594 q 294 640 258 622 l 332 658 q 406 708 383 683 q 428 764 428 732 q 397 828 428 804 q 314 853 367 853 q 258 844 286 853 q 206 821 229 835 q 167 790 182 807 q 151 757 151 774 q 151 749 151 754 q 154 738 151 744 l 136 726 l 46 842 l 63 856 q 77 849 72 850 q 86 847 82 847 q 99 851 93 847 q 117 861 106 854 q 329 936 222 936 q 477 890 421 936 q 533 765 533 843 q 498 666 533 707 q 376 585 463 625 l 336 567 q 231 508 269 535 q 174 450 193 481 l 522 450 z "},"³":{"ha":621,"x_min":21,"x_max":575,"o":"m 64 876 q 85 868 82 868 q 101 874 92 868 q 163 903 136 892 q 215 923 190 915 q 266 933 240 931 q 324 936 292 936 q 485 892 424 936 q 546 776 546 849 q 482 675 546 713 q 551 617 526 653 q 575 536 575 581 q 509 409 575 457 q 335 361 443 361 q 96 421 215 361 q 61 432 74 432 q 53 430 57 432 q 39 421 50 428 l 21 431 l 92 556 l 111 546 q 108 532 108 539 q 115 518 108 525 q 142 500 122 511 q 238 458 188 472 q 336 444 288 444 q 434 470 399 444 q 469 540 469 496 q 307 631 469 631 q 277 630 288 631 q 261 627 267 629 q 253 619 256 625 q 247 606 250 614 l 225 606 l 225 738 l 247 738 q 253 722 250 728 q 262 714 256 717 q 280 710 268 711 q 313 710 292 710 q 416 725 385 710 q 447 776 447 740 q 413 833 447 813 q 318 853 379 853 q 199 826 247 853 q 165 803 178 815 q 151 782 151 790 q 157 764 151 779 l 139 751 l 47 865 l 64 876 z "},".":{"ha":399,"x_min":111,"x_max":288,"o":"m 200 160 q 262 134 236 160 q 288 72 288 108 q 262 9 288 35 q 200 -17 236 -17 q 138 10 164 -17 q 111 72 111 36 q 138 134 111 108 q 200 160 164 160 z "},":":{"ha":399,"x_min":111,"x_max":288,"o":"m 200 160 q 262 134 236 160 q 288 72 288 108 q 262 9 288 35 q 200 -17 236 -17 q 138 10 164 -17 q 111 72 111 36 q 138 134 111 108 q 200 160 164 160 m 200 776 q 262 751 236 776 q 288 689 288 725 q 262 626 288 651 q 200 600 236 600 q 138 626 164 600 q 111 689 111 653 q 138 751 111 725 q 200 776 164 776 z "},"·":{"ha":399,"x_min":111,"x_max":288,"o":"m 200 431 q 262 405 236 431 q 288 343 288 379 q 262 280 288 306 q 200 254 236 254 q 138 281 164 254 q 111 343 111 307 q 138 405 111 379 q 200 431 164 431 z "},"…":{"ha":1194,"x_min":111,"x_max":1083,"o":"m 200 160 q 262 134 236 160 q 288 72 288 108 q 262 9 288 35 q 200 -17 236 -17 q 138 10 164 -17 q 111 72 111 36 q 138 134 111 108 q 200 160 164 160 m 599 160 q 660 134 635 160 q 686 72 686 108 q 660 9 686 35 q 599 -17 635 -17 q 536 10 563 -17 q 510 72 510 36 q 536 134 510 108 q 599 160 563 160 m 996 160 q 1058 134 1032 160 q 1083 72 1083 108 q 1058 9 1083 35 q 996 -17 1032 -17 q 933 10 960 -17 q 907 72 907 36 q 933 134 907 108 q 996 160 960 160 z "},",":{"ha":399,"x_min":111,"x_max":288,"o":"m 117 -157 q 165 -122 146 -137 q 196 -90 183 -106 q 215 -54 208 -74 q 225 -10 221 -35 q 205 -15 213 -14 q 190 -17 197 -17 q 133 8 156 -17 q 111 72 111 33 q 133 135 111 111 q 192 160 156 160 q 261 125 235 160 q 288 33 288 90 q 248 -96 288 -37 q 139 -185 208 -154 l 117 -157 z "},";":{"ha":399,"x_min":111,"x_max":288,"o":"m 117 -157 q 165 -122 146 -137 q 196 -90 183 -106 q 215 -54 208 -74 q 225 -10 221 -35 q 205 -15 213 -14 q 190 -17 197 -17 q 133 8 156 -17 q 111 72 111 33 q 133 135 111 111 q 192 160 156 160 q 261 125 235 160 q 288 33 288 90 q 248 -96 288 -37 q 139 -185 208 -154 l 117 -157 m 200 776 q 262 751 236 776 q 288 689 288 725 q 262 626 288 651 q 200 600 236 600 q 138 626 164 600 q 111 689 111 653 q 138 751 111 725 q 200 776 164 776 z "},"‘":{"ha":399,"x_min":111,"x_max":288,"o":"m 282 914 q 233 878 253 894 q 202 847 214 863 q 183 811 190 831 q 172 767 176 792 q 193 772 186 771 q 208 774 200 774 q 265 749 243 774 q 288 685 288 724 q 265 622 288 646 q 207 597 243 597 q 138 632 164 597 q 111 724 111 667 q 151 853 111 794 q 258 943 190 911 l 282 914 z "},"”":{"ha":685,"x_min":111,"x_max":574,"o":"m 117 625 q 165 660 146 644 q 196 693 183 676 q 215 728 208 710 q 225 772 221 747 q 190 767 203 767 q 133 792 156 767 q 111 856 111 817 q 133 919 111 894 q 192 943 156 943 q 261 908 235 943 q 288 817 288 874 q 248 687 288 746 q 139 597 208 628 l 117 625 m 403 625 q 451 660 432 644 q 483 693 471 676 q 501 728 494 710 q 513 772 508 747 q 478 767 490 767 q 421 792 443 767 q 399 856 399 817 q 421 919 399 894 q 479 943 443 943 q 547 908 521 943 q 574 817 574 874 q 534 688 574 746 q 426 597 494 629 l 403 625 z "},"“":{"ha":685,"x_min":111,"x_max":574,"o":"m 569 914 q 521 878 540 894 q 490 847 501 863 q 471 811 478 831 q 460 767 464 792 q 480 772 472 771 q 494 774 488 774 q 551 749 529 774 q 574 685 574 724 q 551 622 574 646 q 493 597 529 597 q 425 632 451 597 q 399 724 399 667 q 438 853 399 794 q 546 943 478 911 l 569 914 m 282 914 q 233 878 253 894 q 202 847 214 863 q 183 811 190 831 q 172 767 176 792 q 193 772 186 771 q 208 774 200 774 q 265 749 243 774 q 288 685 288 724 q 265 622 288 646 q 207 597 243 597 q 138 632 164 597 q 111 724 111 667 q 151 853 111 794 q 258 943 190 911 l 282 914 z "},"„":{"ha":685,"x_min":111,"x_max":574,"o":"m 117 -157 q 165 -122 146 -137 q 196 -90 183 -106 q 215 -54 208 -74 q 225 -10 221 -35 q 205 -15 213 -14 q 190 -17 197 -17 q 133 8 156 -17 q 111 72 111 33 q 133 135 111 111 q 192 160 156 160 q 261 125 235 160 q 288 33 288 90 q 248 -96 288 -37 q 139 -185 208 -154 l 117 -157 m 403 -157 q 451 -122 432 -137 q 483 -90 471 -106 q 501 -54 494 -74 q 513 -10 508 -35 q 492 -15 500 -14 q 478 -17 485 -17 q 421 8 443 -17 q 399 72 399 33 q 421 135 399 111 q 479 160 443 160 q 547 125 521 160 q 574 33 574 90 q 534 -96 574 -37 q 426 -185 494 -154 l 403 -157 z "},"!":{"ha":500,"x_min":129,"x_max":371,"o":"m 165 269 l 165 292 q 197 304 189 294 q 204 338 204 314 q 204 351 204 342 q 203 371 204 360 l 172 836 q 168 868 169 857 q 163 886 167 879 q 151 896 158 893 q 129 903 143 899 l 129 926 l 371 926 l 371 903 q 349 896 357 899 q 336 886 340 893 q 330 868 332 879 q 326 836 328 857 l 296 371 q 294 351 294 360 q 294 338 294 343 q 302 304 294 314 q 333 292 310 294 l 333 269 l 165 269 m 251 160 q 313 134 288 160 q 339 72 339 108 q 313 9 339 35 q 251 -17 288 -17 q 189 10 215 -17 q 163 72 163 36 q 189 134 163 108 q 251 160 215 160 z "},"¡":{"ha":500,"x_min":129,"x_max":371,"o":"m 254 943 q 315 917 290 943 q 340 856 340 892 q 315 794 340 819 q 253 768 289 768 q 191 794 217 768 q 165 856 165 819 q 191 917 165 892 q 254 943 217 943 m 333 633 q 302 621 310 631 q 294 588 294 611 q 294 574 294 583 q 296 554 294 565 l 326 90 q 330 58 328 69 q 336 40 332 47 q 349 31 340 33 q 371 24 357 28 l 371 0 l 129 0 l 129 24 q 151 31 143 28 q 163 40 158 33 q 168 58 167 47 q 172 90 169 69 l 203 554 q 204 574 204 565 q 204 588 204 583 q 197 621 204 611 q 165 633 189 631 l 165 656 l 333 656 l 333 633 z "},"?":{"ha":718,"x_min":38,"x_max":626,"o":"m 38 825 l 53 840 q 82 826 71 826 q 99 831 90 826 q 126 849 107 835 q 255 922 199 901 q 375 943 311 943 q 476 927 429 943 q 556 882 522 911 q 608 813 589 853 q 626 725 626 772 q 603 624 626 674 q 522 513 579 575 q 517 506 519 508 q 509 497 514 503 q 496 482 504 492 q 471 456 488 472 q 444 425 454 438 q 431 399 435 413 q 426 369 426 386 q 426 326 425 353 q 465 294 431 304 l 465 272 l 258 272 l 258 294 q 300 317 290 303 q 310 374 310 332 q 326 442 313 413 q 376 515 339 471 q 438 593 415 564 q 472 641 461 622 q 486 674 483 660 q 489 706 489 688 q 456 788 489 758 q 367 818 424 818 q 233 781 290 818 q 196 749 210 765 q 182 719 182 732 q 193 690 182 713 l 175 678 l 38 825 m 360 160 q 422 134 396 160 q 447 72 447 108 q 422 9 447 35 q 360 -17 396 -17 q 297 10 324 -17 q 271 72 271 36 q 297 134 271 108 q 360 160 324 160 z "},"¿":{"ha":718,"x_min":93,"x_max":682,"o":"m 682 101 l 667 86 q 638 100 649 100 q 621 96 629 100 q 593 78 613 92 q 465 4 521 25 q 344 -17 408 -17 q 244 -1 290 -17 q 164 44 197 15 q 112 114 131 74 q 93 201 93 154 q 117 302 93 253 q 197 414 140 351 q 203 421 200 418 q 210 429 206 424 q 224 444 215 435 q 249 471 232 454 q 275 501 265 489 q 289 527 285 514 q 294 557 293 540 q 293 600 294 574 q 254 632 289 622 l 254 654 l 461 654 l 461 632 q 419 609 429 624 q 410 553 410 594 q 405 517 408 533 q 394 484 401 500 q 374 451 386 468 q 343 411 361 433 q 281 333 303 363 q 247 285 258 304 q 233 253 236 267 q 231 221 231 239 q 263 138 231 168 q 353 108 296 108 q 486 146 429 108 q 524 178 510 161 q 538 207 538 194 q 526 236 538 214 l 544 250 l 682 101 m 360 943 q 422 917 396 943 q 447 854 447 890 q 421 792 447 818 q 358 767 394 767 q 297 792 322 767 q 271 854 271 818 q 297 917 271 892 q 360 943 322 943 z "},"»":{"ha":675,"x_min":111,"x_max":582,"o":"m 219 667 l 350 394 l 219 121 l 111 121 l 244 394 l 111 667 l 219 667 m 450 667 l 582 394 l 450 121 l 343 121 l 475 394 l 343 667 l 450 667 z "},"«":{"ha":675,"x_min":93,"x_max":564,"o":"m 431 394 l 564 121 l 457 121 l 325 394 l 457 667 l 564 667 l 431 394 m 200 394 l 332 121 l 225 121 l 93 394 l 225 667 l 332 667 l 200 394 z "},"›":{"ha":443,"x_min":111,"x_max":350,"o":"m 219 667 l 350 394 l 219 121 l 111 121 l 244 394 l 111 667 l 219 667 z "},"‹":{"ha":443,"x_min":93,"x_max":332,"o":"m 225 121 l 93 394 l 225 667 l 332 667 l 200 394 l 332 121 l 225 121 z "},"/":{"ha":1015,"x_min":56,"x_max":960,"o":"m 960 904 q 935 898 946 901 q 913 883 925 894 q 882 847 900 871 q 833 783 864 824 l 315 106 q 285 63 292 74 q 278 46 278 53 q 311 22 278 28 l 311 0 l 56 0 l 56 22 q 165 106 103 24 l 706 819 q 725 851 717 835 q 733 876 733 868 q 726 893 733 888 q 700 904 719 899 l 700 926 l 960 926 l 960 904 z "},"-":{"ha":313,"x_min":0,"x_max":313,"o":"m 313 279 l 290 279 q 273 314 283 304 q 242 324 263 324 l 71 324 q 40 314 50 324 q 22 279 29 304 l 0 279 l 0 481 l 22 481 q 40 447 29 457 q 71 438 50 438 l 242 438 q 272 447 261 438 q 290 481 283 457 l 313 481 l 313 279 z "},"–":{"ha":1078,"x_min":65,"x_max":1014,"o":"m 1014 286 l 992 286 q 974 321 985 311 q 943 331 964 331 l 136 331 q 105 321 115 331 q 88 286 94 311 l 65 286 l 65 488 l 88 488 q 106 454 94 464 q 136 444 117 444 l 943 444 q 974 454 963 444 q 992 488 985 464 l 1014 488 l 1014 286 z "},"—":{"ha":894,"x_min":0,"x_max":894,"o":"m 894 286 l 872 286 q 855 321 865 311 q 824 331 844 331 l 71 331 q 40 321 50 331 q 22 286 29 311 l 0 286 l 0 488 l 22 488 q 40 454 29 464 q 71 444 51 444 l 824 444 q 854 454 843 444 q 872 488 865 464 l 894 488 l 894 286 z "},"(":{"ha":444,"x_min":83,"x_max":444,"o":"m 444 985 q 349 888 388 939 q 285 774 310 836 q 249 635 260 711 q 238 463 238 558 q 249 290 238 367 q 285 151 260 214 q 349 38 310 89 q 444 -60 388 -14 l 406 -111 q 318 -52 353 -81 q 249 18 283 -24 q 126 226 169 110 q 83 463 83 342 q 126 699 83 583 q 249 907 169 815 q 318 976 283 949 q 406 1036 353 1004 l 444 985 z "},")":{"ha":444,"x_min":0,"x_max":361,"o":"m 39 1036 q 87 1006 65 1021 q 126 976 108 992 q 161 944 144 961 q 196 907 178 928 q 318 699 275 815 q 361 463 361 583 q 318 226 361 342 q 196 18 275 110 q 161 -19 178 -3 q 126 -51 144 -36 q 87 -81 108 -67 q 39 -111 65 -96 l 0 -60 q 95 38 56 -14 q 160 151 135 89 q 196 290 185 214 q 207 463 207 367 q 196 635 207 558 q 160 774 185 711 q 95 888 135 836 q 0 985 56 939 l 39 1036 z "},"[":{"ha":444,"x_min":83,"x_max":444,"o":"m 374 1000 q 407 1010 396 1000 q 425 1043 418 1019 l 443 1043 l 443 871 l 425 871 q 406 905 418 894 q 374 915 394 915 l 242 915 l 242 11 l 367 11 q 407 20 394 11 q 426 54 419 29 l 444 54 l 444 -118 l 426 -118 q 409 -85 419 -94 q 375 -74 399 -75 l 83 -75 l 83 -57 q 126 -11 126 -46 l 126 936 q 83 983 126 972 l 83 1000 l 374 1000 z "},"]":{"ha":444,"x_min":0,"x_max":361,"o":"m 361 983 q 318 936 318 972 l 318 -11 q 361 -57 318 -46 l 361 -75 l 69 -74 q 35 -85 46 -75 q 18 -118 25 -94 l 0 -118 l 0 54 l 18 54 q 38 20 25 29 q 78 11 50 11 l 203 11 l 203 915 l 71 915 q 38 905 50 915 q 19 871 26 894 l 1 871 l 1 1043 l 19 1043 q 38 1010 26 1019 q 71 1000 49 1000 l 361 1000 l 361 983 z "},"&":{"ha":1036,"x_min":46,"x_max":989,"o":"m 989 436 l 967 436 q 946 469 967 469 q 922 460 936 469 q 885 426 908 450 q 843 383 861 403 q 811 342 825 363 q 786 299 797 321 q 765 253 775 278 q 799 206 778 229 q 846 165 821 183 q 897 136 871 147 q 942 125 922 125 q 955 129 950 125 q 964 147 960 133 l 967 154 l 989 154 l 989 -6 q 900 1 938 -4 q 831 19 863 7 q 769 54 799 32 q 704 111 739 76 q 557 13 629 42 q 393 -17 485 -17 q 251 4 315 -17 q 142 63 188 25 q 71 153 96 100 q 46 269 46 206 q 100 434 46 364 q 260 547 154 504 q 186 631 208 590 q 164 721 164 671 q 185 810 164 769 q 244 881 206 851 q 334 926 282 910 q 449 943 386 943 q 564 926 511 943 q 655 878 617 908 q 714 805 693 847 q 735 713 735 763 q 705 608 735 650 q 604 528 675 565 q 665 474 640 503 q 710 406 689 446 q 849 565 775 503 q 989 639 922 626 l 989 436 m 447 829 q 340 797 379 829 q 300 707 300 764 q 340 617 300 649 q 450 585 379 585 q 559 617 519 585 q 599 707 599 649 q 558 797 599 765 q 447 829 518 829 m 397 444 q 253 397 308 444 q 199 274 199 350 q 253 153 199 199 q 403 108 308 108 q 488 121 449 108 q 556 155 526 133 q 601 206 585 176 q 618 269 618 236 q 601 338 618 306 q 553 393 583 369 q 483 431 524 417 q 397 444 443 444 z "},"§":{"ha":899,"x_min":49,"x_max":850,"o":"m 519 718 q 773 646 696 699 q 850 492 850 593 q 832 399 850 442 q 782 332 814 356 q 764 320 774 325 q 739 308 754 315 q 822 249 793 290 q 850 144 850 207 q 815 20 850 75 q 718 -65 781 -35 q 615 -97 672 -87 q 483 -107 558 -107 q 385 -101 431 -107 q 297 -84 340 -96 q 212 -53 254 -72 q 124 -7 169 -35 q 94 4 106 4 q 64 -10 83 4 l 49 0 l 157 167 l 174 157 q 170 146 171 150 q 169 138 169 142 q 183 105 169 121 q 228 69 196 89 q 483 10 322 10 q 655 44 590 10 q 719 136 719 78 q 709 173 719 157 q 674 200 699 189 q 610 219 650 211 q 513 233 571 226 l 378 247 q 174 310 239 263 q 108 446 108 358 q 139 556 108 513 q 238 629 169 600 q 142 692 175 649 q 108 796 108 736 q 194 971 108 908 q 436 1033 281 1033 q 506 1031 472 1033 q 573 1021 539 1028 q 646 1003 607 1014 q 731 976 685 992 q 771 968 753 968 q 783 971 778 968 q 799 983 789 974 l 817 976 l 732 803 l 714 810 q 717 820 717 817 q 717 828 717 824 q 703 853 717 842 q 658 878 690 864 q 609 897 632 889 q 561 908 586 904 q 508 915 536 913 q 443 917 479 917 q 290 889 344 917 q 247 855 263 875 q 232 813 232 835 q 266 759 232 776 q 388 732 300 742 l 519 718 m 588 353 q 691 410 663 383 q 719 481 719 438 q 683 545 719 524 q 550 578 646 567 l 368 599 q 311 574 331 583 q 272 547 292 564 q 242 509 253 531 q 231 468 231 488 q 285 401 231 419 q 317 393 296 397 q 388 382 339 389 l 588 353 z "},"†":{"ha":776,"x_min":65,"x_max":713,"o":"m 642 714 q 673 724 663 714 q 690 757 683 733 l 713 757 l 713 567 l 690 567 q 673 601 683 592 q 642 611 663 611 l 425 611 l 444 -22 q 454 -55 446 -46 q 488 -71 463 -64 l 488 -93 l 290 -93 l 290 -71 q 324 -55 315 -64 q 333 -22 332 -46 l 353 611 l 136 611 q 105 601 115 611 q 88 567 94 592 l 65 567 l 65 757 l 88 757 q 105 724 94 733 q 136 714 115 714 l 353 714 l 333 947 q 323 980 332 971 q 290 996 314 989 l 290 1018 l 488 1018 l 488 996 q 455 980 464 989 q 444 947 446 971 l 425 714 l 642 714 z "},"‡":{"ha":776,"x_min":65,"x_max":713,"o":"m 642 740 q 673 754 663 740 q 690 800 683 768 l 713 800 l 713 594 l 690 594 q 673 628 683 618 q 642 638 663 638 l 425 638 l 431 343 l 642 343 q 673 353 663 343 q 690 388 683 363 l 713 388 l 713 182 l 690 182 q 673 227 683 214 q 642 240 663 240 l 431 240 l 444 -22 q 454 -55 446 -46 q 488 -71 463 -64 l 488 -93 l 290 -93 l 290 -71 q 324 -55 315 -64 q 333 -22 332 -46 l 347 240 l 136 240 q 105 227 115 240 q 88 182 94 214 l 65 182 l 65 388 l 88 388 q 105 353 94 363 q 136 343 115 343 l 347 343 l 353 638 l 136 638 q 105 628 115 638 q 88 594 94 618 l 65 594 l 65 800 l 88 800 q 105 754 94 768 q 136 740 115 740 l 353 740 l 333 947 q 323 980 332 971 q 290 996 314 989 l 290 1018 l 488 1018 l 488 996 q 455 980 464 989 q 444 947 446 971 l 425 740 l 642 740 z "},"*":{"ha":554,"x_min":46,"x_max":507,"o":"m 360 1018 l 360 997 q 337 988 346 994 q 323 964 328 981 q 315 920 318 947 q 313 853 313 893 q 376 877 351 867 q 415 897 401 888 q 433 917 428 907 q 436 942 438 928 l 456 949 l 507 790 l 488 785 q 471 803 479 799 q 447 808 463 808 q 403 803 429 808 q 336 783 376 797 q 374 736 358 754 q 400 708 389 718 q 420 693 411 697 q 438 689 429 689 q 458 694 446 689 l 471 678 l 336 579 l 324 597 q 338 625 338 613 q 324 667 338 640 q 276 740 310 693 q 228 665 240 689 q 217 624 217 642 q 229 596 217 613 l 217 579 l 82 678 l 94 694 q 115 689 107 689 q 156 710 132 689 q 218 783 179 732 q 149 803 175 797 q 106 808 122 808 q 65 783 82 808 l 46 790 l 97 949 l 117 942 q 120 917 115 928 q 138 897 125 907 q 176 877 151 888 q 240 853 201 867 q 228 963 238 933 q 193 997 219 993 l 193 1018 l 360 1018 z "},"'":{"ha":361,"x_min":74,"x_max":286,"o":"m 106 539 l 106 557 q 133 565 125 560 q 140 585 140 569 l 139 603 l 111 868 q 103 897 108 892 q 74 908 97 903 l 74 926 l 286 926 l 286 908 q 257 898 263 904 q 249 868 251 892 l 221 603 l 219 585 q 227 565 219 569 q 254 557 235 560 l 254 539 l 106 539 z "},"\"":{"ha":722,"x_min":74,"x_max":647,"o":"m 106 539 l 106 557 q 133 565 125 560 q 140 585 140 569 l 139 603 l 111 868 q 103 897 108 892 q 74 908 97 903 l 74 926 l 286 926 l 286 908 q 257 898 263 904 q 249 868 251 892 l 221 603 l 219 585 q 227 565 219 569 q 254 557 235 560 l 254 539 l 106 539 m 467 539 l 467 557 q 494 565 486 560 q 501 585 501 569 l 500 603 l 472 868 q 464 898 469 892 q 435 908 458 904 l 435 926 l 647 926 l 647 908 q 618 898 624 904 q 610 868 613 892 l 582 603 l 581 585 q 588 565 581 569 q 615 557 596 560 l 615 539 l 467 539 z "},"@":{"ha":1140,"x_min":74,"x_max":1067,"o":"m 786 346 q 785 333 785 342 q 826 301 785 301 q 870 311 846 301 q 914 336 894 321 q 958 408 942 358 q 975 515 975 457 q 883 732 975 644 q 749 818 825 788 q 592 849 672 849 q 428 817 506 849 q 293 733 351 786 q 200 609 235 679 q 165 461 165 539 q 194 318 165 389 q 276 194 224 247 q 582 78 389 78 q 638 81 608 78 q 698 90 668 85 q 755 101 728 94 q 801 117 782 108 q 817 143 817 124 l 817 151 l 832 156 l 878 -3 l 863 -7 q 844 19 851 13 q 825 26 836 26 q 819 26 822 26 q 808 24 817 26 q 783 18 800 22 q 738 6 767 14 q 656 -8 704 -3 q 564 -14 607 -14 q 366 20 456 -14 q 211 116 276 54 q 110 263 146 178 q 74 449 74 347 q 113 646 74 556 q 222 801 151 736 q 388 903 292 867 q 599 940 483 940 q 785 910 699 940 q 933 826 871 879 q 1031 699 996 772 q 1067 539 1067 625 q 969 296 1067 388 q 840 236 906 236 q 786 243 814 236 q 743 261 758 250 q 724 281 732 268 q 704 317 715 293 q 604 269 664 286 q 482 251 544 251 q 342 297 394 251 q 289 417 289 342 q 313 517 289 469 q 378 599 336 564 q 474 655 419 635 q 592 675 529 675 q 682 660 644 675 q 757 608 719 644 l 771 657 l 864 657 l 786 346 m 578 593 q 507 580 540 593 q 449 545 474 567 q 410 494 425 524 q 396 432 396 465 q 428 359 396 386 q 514 332 460 332 q 593 343 556 332 q 658 374 631 354 q 701 419 685 393 q 717 476 717 446 q 681 563 717 533 q 578 593 644 593 z "},"#":{"ha":1065,"x_min":38,"x_max":1028,"o":"m 949 703 q 982 713 969 703 q 1007 747 994 722 l 1028 747 l 989 546 l 968 546 q 956 579 965 569 q 926 589 947 589 l 800 589 l 750 332 l 876 332 q 910 342 897 332 q 935 376 924 351 l 956 376 l 917 175 l 896 175 q 884 208 893 199 q 854 218 875 218 l 728 218 l 699 69 l 699 56 q 706 33 699 40 q 733 19 713 26 l 729 0 l 528 0 l 532 19 q 567 36 557 26 q 585 69 578 46 l 614 218 l 358 218 l 329 69 q 328 56 328 65 q 335 33 328 40 q 363 19 342 26 l 358 0 l 157 0 l 161 19 q 197 36 188 26 q 214 69 207 46 l 243 218 l 117 218 q 83 208 96 218 q 60 175 71 199 l 38 175 l 76 376 l 99 376 q 110 342 101 351 q 139 332 119 332 l 265 332 l 315 589 l 189 589 q 156 579 168 589 q 132 546 143 569 l 110 546 l 149 747 l 171 747 q 211 703 175 703 l 338 703 l 367 853 q 368 867 368 858 q 360 889 368 882 q 333 903 353 896 l 338 926 l 539 926 l 535 903 q 498 886 508 896 q 481 853 488 876 l 451 703 l 708 703 l 738 853 l 738 864 q 731 888 738 881 q 703 903 724 896 l 708 926 l 910 926 l 904 903 q 869 886 879 896 q 851 853 858 876 l 822 703 l 949 703 m 686 589 l 429 589 l 381 332 l 636 332 l 686 589 z "},"°":{"ha":657,"x_min":121,"x_max":538,"o":"m 332 943 q 411 926 374 943 q 477 881 449 910 q 522 815 506 853 q 538 735 538 778 q 521 652 538 690 q 476 586 504 614 q 410 542 449 558 q 329 525 372 525 q 248 541 286 525 q 182 585 210 557 q 138 651 154 614 q 121 732 121 689 q 138 815 121 776 q 183 883 154 854 q 249 927 211 911 q 332 943 288 943 m 325 874 q 274 863 299 874 q 232 832 250 851 q 203 788 214 813 q 192 735 192 763 q 202 681 192 706 q 231 636 213 656 q 275 606 250 617 q 328 594 300 594 q 381 606 356 594 q 424 635 406 617 q 454 679 443 654 q 465 732 465 704 q 454 788 465 761 q 424 833 443 814 q 380 863 406 851 q 325 874 354 874 z "},"+":{"ha":1065,"x_min":158,"x_max":906,"o":"m 840 521 q 869 531 860 521 q 885 564 879 540 l 906 564 l 906 363 l 886 363 q 869 397 879 388 q 840 407 860 407 l 589 407 l 589 154 q 599 125 589 135 q 632 108 608 115 l 632 89 l 431 89 l 431 110 q 475 154 475 119 l 475 407 l 224 407 q 194 397 204 407 q 178 363 185 388 l 158 363 l 158 564 l 178 564 q 194 531 185 540 q 224 521 204 521 l 475 521 l 475 771 q 465 800 475 790 q 431 817 456 810 l 431 836 l 632 836 l 632 817 q 599 800 608 810 q 589 771 589 790 l 589 521 l 840 521 z "},"­":{"ha":1065,"x_min":158,"x_max":906,"o":"m 158 564 l 178 564 q 224 521 189 521 l 840 521 q 869 531 860 521 q 886 564 879 540 l 906 564 l 906 363 l 886 363 q 869 397 879 388 q 840 407 860 407 l 224 407 q 194 397 204 407 q 178 363 185 388 l 158 363 l 158 564 z "},"×":{"ha":1065,"x_min":165,"x_max":901,"o":"m 246 669 q 214 685 231 685 q 200 682 207 685 q 181 672 193 679 l 165 689 l 308 831 l 324 815 q 314 797 317 804 q 311 782 311 789 q 328 750 311 767 l 533 544 l 739 750 q 756 782 756 767 q 753 797 756 789 q 743 815 750 804 l 758 831 l 901 689 l 886 672 q 867 682 875 679 q 851 685 858 685 q 835 681 844 685 q 819 669 826 676 l 614 463 l 819 257 q 853 242 835 242 q 886 253 865 242 l 901 238 l 758 96 l 743 111 q 753 130 750 122 q 756 144 756 138 q 739 176 756 160 l 533 382 l 328 176 q 311 143 311 160 q 314 129 311 136 q 324 111 317 122 l 308 96 l 165 238 l 181 253 q 214 242 201 242 q 230 246 221 242 q 246 257 239 250 l 453 463 l 246 669 z "},"÷":{"ha":1065,"x_min":158,"x_max":906,"o":"m 158 564 l 178 564 q 224 521 189 521 l 840 521 q 869 531 860 521 q 886 564 879 540 l 906 564 l 906 363 l 886 363 q 869 397 879 388 q 840 407 860 407 l 224 407 q 194 397 204 407 q 178 363 185 388 l 158 363 l 158 564 m 533 281 q 595 255 569 281 q 621 193 621 229 q 595 130 621 156 q 533 104 569 104 q 471 131 497 104 q 444 193 444 157 q 471 255 444 229 q 533 281 497 281 m 533 822 q 595 797 569 822 q 621 735 621 771 q 595 672 621 697 q 533 646 569 646 q 471 672 497 646 q 444 735 444 699 q 471 797 444 771 q 533 822 497 822 z "},"=":{"ha":1065,"x_min":158,"x_max":906,"o":"m 158 731 l 179 731 q 224 688 189 688 l 840 688 q 869 697 860 688 q 886 731 879 707 l 906 731 l 906 529 l 886 529 q 869 564 879 554 q 840 574 860 574 l 224 574 q 194 564 204 574 q 178 529 185 554 l 158 529 l 158 731 m 158 397 l 179 397 q 224 353 189 353 l 840 353 q 869 363 860 353 q 886 397 879 372 l 906 397 l 906 196 l 886 196 q 869 229 879 219 q 840 239 860 239 l 224 239 q 194 229 204 239 q 178 196 185 219 l 158 196 l 158 397 z "},"™":{"ha":1335,"x_min":4,"x_max":1285,"o":"m 326 443 q 332 427 326 432 q 353 419 338 422 l 353 399 l 203 399 l 203 419 q 224 427 218 422 q 229 443 229 432 l 229 850 l 51 850 q 35 845 40 850 q 25 825 29 840 l 4 825 l 4 950 l 25 950 q 51 926 32 926 l 503 926 q 529 950 522 926 l 550 950 l 550 825 l 529 825 q 519 845 525 840 q 503 850 514 850 l 326 850 l 326 443 m 718 800 l 718 443 q 724 427 718 432 q 744 419 729 422 l 744 399 l 606 399 l 606 419 q 626 427 621 422 q 631 443 631 432 l 631 882 q 604 906 631 900 l 604 926 l 792 926 l 792 906 q 772 893 772 900 q 774 886 772 890 q 785 867 776 882 l 946 585 l 1104 869 q 1114 893 1114 889 q 1101 904 1114 900 l 1093 906 l 1093 926 l 1285 926 l 1285 906 q 1264 898 1269 903 q 1258 882 1258 893 l 1258 443 q 1264 427 1258 432 q 1285 419 1269 422 l 1285 399 l 1135 399 l 1135 419 q 1156 427 1150 422 q 1161 443 1161 432 l 1161 800 l 940 408 l 718 800 z "},"¶":{"ha":886,"x_min":28,"x_max":821,"o":"m 313 431 q 265 435 290 431 q 216 447 240 439 q 170 464 192 454 q 132 486 149 474 q 55 574 82 522 q 28 686 28 626 q 65 808 28 753 q 167 894 101 863 q 197 904 176 899 q 242 915 218 910 q 288 923 265 919 q 324 926 310 926 l 821 926 l 821 904 q 786 885 794 897 q 778 846 778 874 l 778 -32 q 786 -72 778 -60 q 821 -90 794 -83 l 821 -111 l 663 -111 l 663 843 l 550 843 l 550 -111 l 392 -111 l 392 -90 q 426 -72 418 -83 q 435 -32 435 -60 l 435 431 l 313 431 z "},"¤":{"ha":1065,"x_min":33,"x_max":1032,"o":"m 951 125 q 967 113 958 118 q 983 108 976 108 q 998 111 990 108 q 1017 121 1006 114 l 1032 106 l 890 -37 l 875 -22 q 886 11 886 0 q 871 43 886 28 l 786 128 q 672 81 732 96 q 533 67 613 67 q 393 81 454 67 q 279 128 332 96 l 197 46 q 181 13 181 29 q 183 -1 181 6 q 193 -21 186 -8 l 178 -36 l 35 107 l 50 122 q 83 111 72 111 q 100 115 90 111 q 117 126 110 119 l 203 213 q 145 326 167 257 q 124 465 124 396 q 144 599 124 535 q 201 713 164 663 l 114 800 q 82 815 99 815 q 49 804 69 815 l 33 819 l 176 961 l 192 946 q 182 927 185 935 q 179 913 179 919 q 196 881 179 897 l 279 796 q 393 843 332 828 q 533 858 454 858 q 673 843 613 858 q 786 796 733 828 l 871 881 q 882 897 878 888 q 886 913 886 906 q 883 927 886 919 q 874 946 881 935 l 890 961 l 1032 819 l 1017 804 q 983 815 996 815 q 951 800 967 815 l 864 713 q 894 665 881 693 q 919 603 908 636 q 935 534 929 569 q 942 465 942 499 q 935 392 942 429 q 919 322 929 356 q 893 261 908 289 q 861 215 878 233 l 951 125 m 529 743 q 411 723 464 743 q 319 665 358 703 q 260 576 281 628 q 239 463 239 525 q 260 349 239 400 q 320 260 282 297 q 413 203 358 224 q 533 183 467 183 q 653 203 599 183 q 745 260 707 224 q 805 349 783 297 q 826 463 826 400 q 805 578 826 526 q 744 666 783 629 q 651 723 706 703 q 529 743 596 743 z "},"‚":{"ha":399,"x_min":111,"x_max":288,"o":"m 117 -157 q 165 -122 146 -137 q 196 -90 183 -106 q 215 -54 208 -74 q 225 -10 221 -35 q 205 -15 213 -14 q 190 -17 197 -17 q 133 8 156 -17 q 111 72 111 33 q 133 135 111 111 q 192 160 156 160 q 261 125 235 160 q 288 33 288 90 q 248 -96 288 -37 q 139 -185 208 -154 l 117 -157 z "},"’":{"ha":399,"x_min":111,"x_max":288,"o":"m 117 625 q 165 660 146 644 q 196 693 183 676 q 215 728 208 710 q 225 772 221 747 q 190 767 203 767 q 133 792 156 767 q 111 856 111 817 q 133 919 111 894 q 192 943 156 943 q 261 908 235 943 q 288 817 288 874 q 248 687 288 746 q 139 597 208 628 l 117 625 z "},"{":{"ha":444,"x_min":-14,"x_max":444,"o":"m 444 864 l 426 864 q 408 899 419 890 q 368 907 396 907 l 311 907 q 258 881 278 907 q 238 810 238 854 l 238 561 q 226 509 238 529 q 182 463 215 489 q 226 417 214 436 q 238 365 238 397 l 238 117 q 258 46 238 72 q 311 19 278 19 l 368 19 q 408 28 396 19 q 426 63 419 36 l 444 63 l 444 -118 l 426 -118 q 408 -83 419 -92 q 368 -74 396 -74 l 244 -74 q 199 -65 221 -74 q 160 -41 178 -56 q 133 -7 143 -26 q 122 32 122 13 l 122 283 q 122 324 122 310 q 120 347 121 339 q 119 360 119 356 q 117 369 118 364 q 81 400 108 400 l 39 400 q 16 390 24 400 q 3 357 8 381 l -14 357 l -14 569 l 3 569 q 16 535 8 544 q 39 525 24 525 l 81 525 q 117 556 108 525 q 119 566 118 561 q 120 579 119 571 q 122 602 121 588 q 122 643 122 617 l 122 894 q 133 933 122 914 q 160 967 143 953 q 199 991 178 982 q 244 1000 221 1000 l 368 1000 q 408 1008 396 1000 q 426 1043 419 1017 l 444 1043 l 444 864 z "},"}":{"ha":444,"x_min":0,"x_max":458,"o":"m 18 1043 q 37 1008 25 1017 q 76 1000 49 1000 l 200 1000 q 244 991 222 1000 q 284 967 267 982 q 312 933 301 953 q 322 894 322 914 l 322 643 q 323 602 322 617 q 324 579 324 588 q 326 566 325 571 q 328 556 326 561 q 364 525 336 525 l 406 525 q 428 535 421 525 q 442 569 436 544 l 458 569 l 458 357 l 442 357 q 428 390 436 381 q 406 400 421 400 l 364 400 q 328 369 335 400 q 326 360 326 364 q 324 347 325 356 q 323 324 324 339 q 322 283 322 310 l 322 32 q 312 -7 322 13 q 284 -41 301 -26 q 244 -65 267 -56 q 200 -74 222 -74 l 76 -74 q 37 -83 49 -74 q 18 -118 25 -92 l 0 -118 l 0 63 l 18 63 q 37 28 25 36 q 76 19 49 19 l 133 19 q 187 46 167 19 q 207 117 207 72 l 207 365 q 219 417 207 397 q 263 463 231 436 q 218 509 229 489 q 207 561 207 529 l 207 810 q 187 881 207 854 q 133 907 167 907 l 76 907 q 37 899 49 907 q 18 864 25 890 l 0 864 l 0 1043 l 18 1043 z "},"ª":{"ha":710,"x_min":133,"x_max":579,"o":"m 153 919 q 165 913 163 913 q 175 915 167 913 q 243 935 200 928 q 329 943 286 943 q 488 903 429 943 q 547 797 547 864 l 547 593 q 553 576 547 582 q 579 568 560 571 l 579 550 l 488 550 l 488 593 q 424 551 456 563 q 343 539 392 539 q 262 549 299 539 q 198 578 225 560 q 156 622 171 597 q 140 676 140 647 q 198 776 140 738 q 344 815 256 815 q 419 805 389 815 q 482 767 450 794 l 482 803 q 441 867 482 843 q 332 892 400 892 q 287 889 310 892 q 245 882 264 886 q 215 873 226 878 q 203 863 203 868 l 203 854 l 185 842 l 133 907 l 153 919 m 346 760 q 243 735 283 760 q 203 672 203 711 q 214 642 203 656 q 245 617 225 628 q 292 601 265 607 q 349 594 318 594 q 445 617 407 594 q 483 672 483 639 q 447 736 483 713 q 346 760 410 760 m 579 364 l 563 364 q 549 397 557 388 q 526 407 542 407 l 186 407 q 163 397 171 407 q 150 364 156 388 l 135 364 l 135 521 l 150 521 q 163 486 156 496 q 186 476 171 476 l 526 476 q 563 521 554 476 l 579 521 l 579 364 z "},"º":{"ha":472,"x_min":14,"x_max":458,"o":"m 239 935 q 324 921 285 935 q 390 881 363 907 q 433 819 418 856 q 449 740 449 783 q 390 601 449 654 q 236 547 332 547 q 82 601 140 547 q 24 740 24 654 q 83 881 24 828 q 239 935 142 935 m 235 872 q 138 835 175 872 q 100 740 100 799 q 138 646 100 682 q 236 610 175 610 q 335 646 297 610 q 372 740 372 682 q 335 837 372 801 q 235 872 297 872 m 458 364 l 442 364 q 428 397 436 388 q 406 407 421 407 l 65 407 q 42 397 50 407 q 29 364 35 388 l 14 364 l 14 521 l 29 521 q 42 486 35 496 q 65 476 50 476 l 406 476 q 442 521 433 476 l 458 521 l 458 364 z "},"±":{"ha":1065,"x_min":158,"x_max":906,"o":"m 840 521 q 869 531 860 521 q 885 564 879 540 l 906 564 l 906 363 l 886 363 q 869 397 879 388 q 840 407 860 407 l 589 407 l 589 201 q 599 172 589 182 q 632 156 608 163 l 632 136 l 431 136 l 431 156 q 475 201 475 167 l 475 407 l 224 407 q 194 397 204 407 q 178 363 185 388 l 158 363 l 158 564 l 178 564 q 194 531 185 540 q 224 521 204 521 l 475 521 l 475 771 q 465 800 475 790 q 431 817 456 810 l 431 836 l 632 836 l 632 817 q 599 800 608 810 q 589 771 589 790 l 589 521 l 840 521 m 158 101 l 178 101 q 224 57 189 57 l 840 57 q 869 67 860 57 q 886 101 879 76 l 906 101 l 906 -101 l 886 -101 q 869 -67 879 -76 q 840 -57 860 -57 l 224 -57 q 194 -67 204 -57 q 178 -101 185 -76 l 158 -101 l 158 101 z "},"½":{"ha":1593,"x_min":196,"x_max":1544,"o":"m 196 861 l 218 861 q 232 846 219 846 q 243 849 238 846 l 276 860 l 276 879 q 249 906 276 899 l 249 926 l 401 926 l 401 906 q 375 879 375 899 l 375 417 q 381 401 375 406 q 401 392 386 396 l 401 371 l 249 371 l 249 392 q 271 401 265 396 q 276 417 276 406 l 276 779 l 257 772 q 229 760 236 765 q 217 742 222 756 l 196 742 l 196 861 m 1157 904 q 1134 898 1143 901 q 1115 883 1125 894 q 1090 847 1104 871 q 1051 783 1075 824 l 654 106 q 631 65 636 76 q 626 47 626 54 q 668 22 626 28 l 668 0 l 436 0 l 436 22 q 532 106 483 24 l 944 819 q 958 848 953 833 q 963 872 963 863 q 953 892 963 885 q 921 904 944 899 l 921 926 l 1157 926 l 1157 904 m 1494 81 q 1513 85 1507 81 q 1522 106 1519 90 l 1544 106 l 1544 -25 l 1522 -25 q 1513 -5 1518 -10 q 1494 0 1507 0 l 1072 0 q 1054 -5 1060 0 q 1044 -25 1049 -10 l 1022 -25 l 1022 -8 q 1090 150 1022 74 q 1123 182 1107 168 q 1158 210 1139 196 q 1204 238 1178 224 q 1267 269 1231 251 l 1304 288 q 1378 337 1356 313 q 1400 393 1400 361 q 1369 458 1400 433 q 1286 482 1339 482 q 1230 473 1258 482 q 1178 450 1201 464 q 1139 419 1154 436 q 1124 386 1124 403 q 1124 379 1124 383 q 1126 367 1124 375 l 1108 356 l 1018 471 l 1035 485 q 1049 476 1044 478 q 1058 475 1054 475 q 1072 478 1065 475 q 1089 489 1078 482 q 1197 547 1146 529 q 1301 565 1247 565 q 1449 519 1393 565 q 1506 394 1506 472 q 1470 295 1506 336 q 1349 214 1435 254 l 1308 196 q 1205 138 1243 165 q 1146 81 1167 111 l 1494 81 z "},"¼":{"ha":1593,"x_min":196,"x_max":1563,"o":"m 196 861 l 218 861 q 232 846 219 846 q 243 849 238 846 l 276 860 l 276 879 q 249 906 276 899 l 249 926 l 401 926 l 401 906 q 375 879 375 899 l 375 417 q 381 401 375 406 q 401 392 386 396 l 401 371 l 249 371 l 249 392 q 271 401 265 396 q 276 417 276 406 l 276 779 l 257 772 q 229 760 236 765 q 217 742 222 756 l 196 742 l 196 861 m 1157 904 q 1134 898 1143 901 q 1115 883 1125 894 q 1090 847 1104 871 q 1051 783 1075 824 l 654 106 q 631 65 636 76 q 626 47 626 54 q 668 22 626 28 l 668 0 l 436 0 l 436 22 q 532 106 483 24 l 944 819 q 958 848 953 833 q 963 872 963 863 q 953 892 963 885 q 921 904 944 899 l 921 926 l 1157 926 l 1157 904 m 1058 106 q 1042 100 1047 106 q 1032 79 1036 94 l 1010 79 l 1010 183 l 1297 499 q 1312 517 1308 511 q 1315 525 1315 522 q 1294 533 1315 533 l 1294 556 l 1496 556 l 1496 535 q 1468 510 1468 528 l 1468 186 l 1513 186 q 1531 191 1525 186 q 1540 211 1536 196 l 1563 211 l 1563 79 l 1540 79 q 1531 100 1536 94 q 1513 106 1525 106 l 1468 106 l 1468 46 q 1496 21 1468 28 l 1496 0 l 1342 0 l 1342 21 q 1369 46 1369 28 l 1369 106 l 1058 106 m 1369 454 l 1122 186 l 1369 186 l 1369 454 z "},"¾":{"ha":1593,"x_min":21,"x_max":1563,"o":"m 64 876 q 85 868 82 868 q 101 874 92 868 q 163 903 136 892 q 215 923 190 915 q 266 933 240 931 q 324 936 292 936 q 485 892 424 936 q 546 776 546 849 q 482 675 546 713 q 551 617 526 653 q 575 536 575 581 q 509 409 575 457 q 335 361 443 361 q 96 421 215 361 q 61 432 74 432 q 53 430 57 432 q 39 421 50 428 l 21 431 l 92 556 l 111 546 q 108 532 108 539 q 115 518 108 525 q 142 500 122 511 q 238 458 188 472 q 336 444 288 444 q 434 470 399 444 q 469 540 469 496 q 307 631 469 631 q 277 630 288 631 q 261 627 267 629 q 253 619 256 625 q 247 606 250 614 l 225 606 l 225 738 l 247 738 q 253 722 250 728 q 262 714 256 717 q 280 710 268 711 q 313 710 292 710 q 416 725 385 710 q 447 776 447 740 q 413 833 447 813 q 318 853 379 853 q 199 826 247 853 q 165 803 178 815 q 151 782 151 790 q 157 764 151 779 l 139 751 l 47 865 l 64 876 m 1158 904 q 1135 898 1144 901 q 1116 882 1126 894 q 1091 847 1106 869 q 1053 783 1076 824 l 654 106 q 631 65 636 76 q 626 47 626 54 q 668 22 626 28 l 668 0 l 436 0 l 436 22 q 532 106 483 24 l 944 819 q 958 848 953 833 q 963 872 963 863 q 953 892 963 885 q 921 904 944 899 l 921 926 l 1158 926 l 1158 904 m 1058 106 q 1042 100 1047 106 q 1032 79 1036 94 l 1010 79 l 1010 183 l 1297 499 q 1312 517 1308 511 q 1315 525 1315 522 q 1294 533 1315 533 l 1294 556 l 1496 556 l 1496 535 q 1468 510 1468 528 l 1468 186 l 1513 186 q 1531 191 1525 186 q 1540 211 1536 196 l 1563 211 l 1563 79 l 1540 79 q 1531 100 1536 94 q 1513 106 1525 106 l 1468 106 l 1468 46 q 1496 21 1468 28 l 1496 0 l 1342 0 l 1342 21 q 1369 46 1369 28 l 1369 106 l 1058 106 m 1369 454 l 1122 186 l 1369 186 l 1369 454 z "},"\u0019":{"ha":351,"x_min":-185,"x_max":536,"o":"m 536 904 q 513 898 522 901 q 494 883 504 894 q 469 847 483 871 q 431 783 454 824 l 33 106 q 10 65 15 76 q 6 47 6 54 q 47 22 6 28 l 47 0 l -185 0 l -185 22 q -89 106 -137 24 l 324 819 q 337 848 332 833 q 342 872 342 863 q 333 892 342 885 q 300 904 324 899 l 300 926 l 536 926 l 536 904 z "},"%":{"ha":1275,"x_min":65,"x_max":1211,"o":"m 303 935 q 397 917 354 935 q 469 867 439 899 q 517 791 500 835 q 535 694 535 747 q 517 598 535 642 q 469 522 500 554 q 395 473 439 490 q 300 456 351 456 q 204 473 247 456 q 131 522 161 490 q 83 598 100 554 q 65 694 65 642 q 83 792 65 749 q 131 868 100 836 q 206 917 163 900 q 303 935 250 935 m 297 858 q 195 813 235 858 q 156 696 156 767 q 196 577 156 622 q 300 532 236 532 q 404 577 364 532 q 444 694 444 622 q 404 814 444 769 q 297 858 364 858 m 979 471 q 1073 453 1031 471 q 1146 403 1115 435 q 1194 327 1176 371 q 1211 231 1211 283 q 1194 134 1211 178 q 1146 58 1176 90 q 1072 9 1115 26 q 976 -8 1028 -8 q 881 9 924 -8 q 807 58 838 26 q 759 134 776 90 q 742 231 742 178 q 759 328 742 285 q 808 404 776 372 q 883 453 839 436 q 979 471 926 471 m 974 394 q 872 349 911 394 q 832 232 832 303 q 872 113 832 158 q 976 68 913 68 q 1081 113 1040 68 q 1121 231 1121 158 q 1081 350 1121 306 q 974 394 1040 394 m 1050 904 q 1026 898 1036 901 q 1003 883 1015 894 q 972 847 990 871 q 924 783 954 824 l 406 106 q 375 63 382 74 q 368 46 368 53 q 401 22 368 28 l 401 0 l 211 0 l 211 22 q 321 106 258 24 l 861 819 q 881 851 872 835 q 889 876 889 868 q 882 893 889 888 q 856 904 875 899 l 856 926 l 1050 926 l 1050 904 z "},"‰":{"ha":1874,"x_min":65,"x_max":1810,"o":"m 303 935 q 397 917 354 935 q 469 867 439 899 q 517 791 500 835 q 535 694 535 747 q 517 598 535 642 q 469 522 500 554 q 395 473 439 490 q 300 456 351 456 q 204 473 247 456 q 131 522 161 490 q 83 598 100 554 q 65 694 65 642 q 83 792 65 749 q 131 868 100 836 q 206 917 163 900 q 303 935 250 935 m 297 858 q 195 813 235 858 q 156 696 156 767 q 196 577 156 622 q 300 532 236 532 q 404 577 364 532 q 444 694 444 622 q 404 814 444 769 q 297 858 364 858 m 979 471 q 1073 453 1031 471 q 1146 403 1115 435 q 1194 327 1176 371 q 1211 231 1211 283 q 1194 134 1211 178 q 1146 58 1176 90 q 1072 9 1115 26 q 976 -8 1028 -8 q 881 9 924 -8 q 807 58 838 26 q 759 134 776 90 q 742 231 742 178 q 759 328 742 285 q 808 404 776 372 q 883 453 839 436 q 979 471 926 471 m 974 394 q 872 349 911 394 q 832 232 832 303 q 872 113 832 158 q 976 68 913 68 q 1081 113 1040 68 q 1121 231 1121 158 q 1081 350 1121 306 q 974 394 1040 394 m 1050 904 q 1026 898 1036 901 q 1003 883 1015 894 q 972 847 990 871 q 924 783 954 824 l 406 106 q 375 63 382 74 q 368 46 368 53 q 401 22 368 28 l 401 0 l 211 0 l 211 22 q 321 106 258 24 l 861 819 q 881 851 872 835 q 889 876 889 868 q 882 893 889 888 q 856 904 875 899 l 856 926 l 1050 926 l 1050 904 m 1578 471 q 1672 453 1629 471 q 1744 403 1714 435 q 1792 327 1775 371 q 1810 231 1810 283 q 1792 134 1810 178 q 1744 58 1775 90 q 1670 9 1714 26 q 1575 -8 1626 -8 q 1479 9 1522 -8 q 1406 58 1436 26 q 1358 134 1375 90 q 1340 231 1340 178 q 1358 328 1340 285 q 1406 404 1375 372 q 1481 453 1438 436 q 1578 471 1525 471 m 1572 394 q 1470 349 1510 394 q 1431 232 1431 303 q 1471 113 1431 158 q 1575 68 1511 68 q 1679 113 1639 68 q 1719 231 1719 158 q 1679 350 1719 306 q 1572 394 1639 394 z "},"\\":{"ha":1015,"x_min":56,"x_max":960,"o":"m 315 926 l 315 904 q 289 893 296 899 q 282 876 282 888 q 290 851 282 868 q 310 819 299 835 l 850 106 q 960 22 913 24 l 960 0 l 704 0 l 704 22 q 738 46 738 28 q 731 63 738 53 q 700 106 724 74 l 182 783 q 133 847 151 824 q 101 883 114 871 q 79 898 89 894 q 56 904 69 901 l 56 926 l 315 926 z "},"¨":{"ha":694,"x_min":147,"x_max":547,"o":"m 226 1008 q 279 985 257 1008 q 301 931 301 963 q 279 876 301 899 q 225 854 257 854 q 170 876 193 854 q 147 931 147 899 q 170 985 147 963 q 226 1008 193 1008 m 472 1008 q 525 985 503 1008 q 547 931 547 963 q 524 876 547 899 q 469 854 501 854 q 415 876 438 854 q 393 931 393 899 q 416 985 393 963 q 472 1008 439 1008 z "},"\u0006":{"ha":694,"x_min":271,"x_max":425,"o":"m 350 1008 q 403 985 381 1008 q 425 931 425 963 q 402 876 425 899 q 347 854 379 854 q 293 876 315 854 q 271 931 271 899 q 294 985 271 963 q 350 1008 317 1008 z "},"\b":{"ha":694,"x_min":211,"x_max":485,"o":"m 350 1056 q 446 1022 407 1056 q 485 940 485 989 q 445 858 485 892 q 349 824 406 824 q 251 858 292 824 q 211 940 211 892 q 251 1022 211 989 q 350 1056 290 1056 m 347 994 q 301 979 319 994 q 283 940 283 964 q 302 901 283 917 q 349 885 321 885 q 394 901 375 885 q 413 940 413 917 q 394 979 413 964 q 347 994 375 994 z "},"´":{"ha":694,"x_min":261,"x_max":511,"o":"m 511 1021 q 490 1016 497 1019 q 476 1003 483 1013 l 385 886 q 381 874 381 882 q 394 864 381 864 l 397 864 l 397 846 l 261 846 l 261 864 q 283 868 276 864 q 297 889 290 872 l 347 997 q 350 1008 350 1006 q 331 1021 350 1018 l 331 1039 l 511 1039 l 511 1021 z "},"`":{"ha":694,"x_min":183,"x_max":433,"o":"m 364 1039 l 364 1021 q 344 1008 344 1018 q 347 997 344 1006 l 397 889 q 411 868 404 872 q 433 864 418 864 l 433 846 l 297 846 l 297 864 l 300 864 q 314 874 314 864 q 310 886 314 882 l 218 1003 q 204 1016 211 1013 q 183 1021 197 1019 l 183 1039 l 364 1039 z "},"ˆ":{"ha":694,"x_min":126,"x_max":568,"o":"m 126 844 l 126 863 q 150 868 143 864 l 160 876 l 174 890 l 269 992 q 276 1010 276 1001 q 254 1021 276 1021 l 254 1039 l 440 1039 l 440 1021 q 419 1008 419 1019 q 431 989 419 1000 l 538 876 q 550 866 544 868 q 568 863 556 864 l 568 844 l 392 844 l 392 863 q 413 872 413 864 q 410 878 413 875 q 401 889 408 881 l 336 968 l 264 886 q 258 875 258 881 q 278 863 258 864 l 278 844 l 126 844 z "},"\f":{"ha":694,"x_min":126,"x_max":568,"o":"m 568 1039 l 568 1021 q 544 1015 551 1019 q 535 1007 540 1013 l 521 993 l 425 892 q 418 874 418 882 q 440 863 418 863 l 440 844 l 254 844 l 254 863 q 275 875 275 864 q 264 894 275 883 l 157 1007 q 144 1017 150 1015 q 126 1021 139 1019 l 126 1039 l 303 1039 l 303 1021 q 282 1011 282 1019 q 284 1006 282 1008 q 293 994 286 1003 l 358 915 l 431 997 q 436 1008 436 1003 q 417 1021 436 1019 l 417 1039 l 568 1039 z "},"\u0005":{"ha":694,"x_min":136,"x_max":558,"o":"m 136 1036 l 268 1036 l 268 1019 q 249 1003 249 1018 q 278 947 249 971 q 347 924 307 924 q 417 947 388 924 q 446 1003 446 971 q 426 1019 446 1018 l 426 1036 l 558 1036 l 558 1019 q 540 1015 544 1018 q 536 1000 536 1011 q 522 940 536 968 q 481 890 507 911 q 421 856 456 868 q 347 843 386 843 q 274 856 308 843 q 213 890 239 868 q 173 940 188 911 q 158 1000 158 968 q 154 1015 158 1011 q 136 1019 150 1018 l 136 1036 z "},"˜":{"ha":694,"x_min":121,"x_max":574,"o":"m 574 946 l 563 931 q 548 934 550 933 q 543 935 546 935 q 526 924 533 935 q 433 861 482 861 q 378 874 408 861 l 282 911 q 267 915 275 914 q 253 917 260 917 q 228 906 240 917 q 215 883 215 894 q 224 864 215 874 l 214 853 l 121 929 l 131 942 q 149 939 144 939 q 160 942 156 939 q 172 954 165 944 q 217 992 192 978 q 271 1007 243 1007 q 314 999 293 1007 l 411 960 q 444 951 429 951 q 469 963 457 951 q 481 986 481 974 q 471 1007 481 996 l 482 1019 l 574 946 z "},"\n":{"ha":694,"x_min":157,"x_max":636,"o":"m 400 1021 q 379 1016 386 1019 q 365 1003 372 1013 l 274 886 q 269 874 269 882 q 283 864 269 864 l 286 864 l 286 846 l 157 846 l 157 864 q 179 868 172 864 q 193 889 186 872 l 243 997 q 246 1008 246 1006 q 226 1021 246 1018 l 226 1039 l 400 1039 l 400 1021 m 636 1021 q 615 1016 622 1019 q 601 1003 608 1013 l 510 886 q 506 874 506 882 q 519 864 506 864 l 522 864 l 522 846 l 393 846 l 393 864 q 415 868 408 864 q 429 889 422 872 l 479 997 q 482 1008 482 1006 q 463 1021 482 1018 l 463 1039 l 636 1039 l 636 1021 z "},"¸":{"ha":694,"x_min":217,"x_max":478,"o":"m 299 -82 q 309 -67 306 -69 q 324 -65 313 -65 q 438 -91 399 -65 q 478 -164 478 -117 q 438 -239 478 -212 q 322 -265 397 -265 q 263 -262 288 -265 q 217 -251 239 -258 l 228 -225 q 260 -232 247 -231 q 289 -233 274 -233 q 352 -219 329 -233 q 375 -179 375 -206 q 362 -147 375 -160 q 331 -133 349 -133 q 283 -154 301 -133 l 268 -144 l 299 -82 z "},"\u000b":{"ha":694,"x_min":535,"x_max":778,"o":"m 711 0 q 659 -53 678 -24 q 640 -110 640 -82 q 662 -157 640 -139 q 719 -175 683 -175 q 739 -174 728 -175 q 768 -168 750 -172 l 778 -194 q 726 -208 746 -206 q 678 -211 707 -211 q 572 -186 608 -211 q 535 -112 535 -161 q 558 -51 535 -76 q 640 0 582 -25 l 711 0 z "},"¯":{"ha":694,"x_min":143,"x_max":553,"o":"m 553 850 l 538 850 q 522 878 532 871 q 489 885 513 885 l 207 885 q 174 878 183 885 q 158 850 164 871 l 143 850 l 143 1007 l 158 1007 q 174 979 164 986 q 207 972 183 972 l 489 972 q 522 979 513 972 q 538 1007 532 986 l 553 1007 l 553 850 z "},"©":{"ha":1250,"x_min":71,"x_max":1178,"o":"m 632 943 q 852 908 751 943 q 1025 808 953 872 q 1138 656 1097 744 q 1178 463 1178 568 q 1136 269 1178 361 q 1017 111 1094 178 q 625 -17 868 -17 q 232 111 381 -17 q 113 269 154 178 q 71 463 71 361 q 113 658 71 565 q 232 815 156 751 q 408 913 311 882 q 632 943 506 943 m 617 875 q 427 845 513 875 q 281 761 342 815 q 185 631 219 707 q 151 463 151 554 q 185 294 151 369 q 281 164 219 218 q 431 81 343 110 q 625 51 518 51 q 979 176 850 51 q 1097 463 1097 290 q 979 750 1097 639 q 823 846 908 817 q 617 875 738 875 m 953 269 l 935 256 q 918 265 924 265 q 906 263 913 265 q 876 244 900 260 q 761 191 817 207 q 636 175 706 175 q 400 242 488 175 q 324 336 351 279 q 296 458 296 393 q 320 576 296 522 q 389 668 344 629 q 495 728 433 707 q 631 750 557 750 q 688 747 661 750 q 744 738 715 744 q 806 719 774 731 q 879 690 838 707 q 892 688 888 688 q 908 699 899 688 l 928 689 l 857 564 l 839 574 q 841 583 840 581 q 842 589 842 586 q 822 615 842 601 q 772 640 801 629 q 706 659 742 651 q 638 667 669 667 q 465 610 529 667 q 401 457 401 553 q 465 311 401 364 q 642 258 529 258 q 815 311 742 258 q 847 346 847 333 q 836 363 847 356 l 857 375 l 953 269 z "},"®":{"ha":1250,"x_min":71,"x_max":1178,"o":"m 632 943 q 852 908 751 943 q 1025 808 953 872 q 1138 656 1097 744 q 1178 463 1178 568 q 1136 269 1178 361 q 1017 111 1094 178 q 625 -17 868 -17 q 232 111 381 -17 q 113 269 154 178 q 71 463 71 361 q 113 658 71 565 q 232 815 156 751 q 408 913 311 882 q 632 943 506 943 m 617 875 q 427 845 513 875 q 281 761 342 815 q 185 631 219 707 q 151 463 151 554 q 185 294 151 369 q 281 164 219 218 q 431 81 343 110 q 625 51 518 51 q 979 176 850 51 q 1097 463 1097 290 q 979 750 1097 639 q 823 846 908 817 q 617 875 738 875 m 465 232 q 471 215 465 221 q 493 206 476 210 l 493 185 l 336 185 l 336 206 q 358 215 353 210 q 364 231 364 219 l 364 693 q 336 719 364 713 l 336 740 l 650 740 q 767 733 726 740 q 836 704 807 725 q 893 576 893 663 q 765 431 893 457 l 892 242 q 914 214 907 218 q 940 207 921 210 l 940 185 l 774 185 l 774 206 q 790 210 786 208 q 794 214 794 211 q 793 218 794 215 q 781 238 792 221 l 658 419 l 465 419 l 465 232 m 671 500 q 772 519 742 500 q 801 581 801 538 q 772 641 801 622 q 671 660 742 660 l 465 660 l 465 500 l 671 500 z "},"Â":{"ha":1069,"x_min":4,"x_max":1074,"o":"m 285 240 l 215 83 q 206 60 207 64 q 204 49 204 56 q 213 31 204 38 q 244 22 221 25 l 244 0 l 4 0 l 4 22 q 28 28 18 24 q 46 42 38 32 q 63 67 54 51 q 85 110 72 83 l 414 842 q 424 865 421 858 q 426 878 426 872 q 419 894 426 889 q 393 904 413 900 l 393 926 l 664 926 l 664 904 q 638 892 644 899 q 631 875 631 886 q 633 865 631 871 q 643 842 635 860 l 976 136 q 1003 77 993 99 q 1023 45 1014 56 q 1043 31 1032 35 q 1074 22 1054 26 l 1074 0 l 815 0 l 815 22 q 856 51 856 26 q 840 93 856 61 l 771 240 l 285 240 m 522 775 l 339 361 l 715 361 l 522 775 m 310 1003 l 310 1021 q 333 1026 326 1022 l 343 1035 l 357 1049 l 453 1150 q 460 1168 460 1160 q 438 1179 460 1179 l 438 1197 l 624 1197 l 624 1179 q 603 1167 603 1178 q 614 1147 603 1158 l 721 1035 q 733 1024 728 1026 q 751 1021 739 1022 l 751 1003 l 575 1003 l 575 1021 q 596 1031 596 1022 q 594 1036 596 1033 q 585 1047 592 1039 l 519 1126 l 447 1044 q 442 1033 442 1039 q 461 1021 442 1022 l 461 1003 l 310 1003 z "},"•":{"ha":926,"x_min":272,"x_max":657,"o":"m 467 663 q 540 647 506 663 q 601 606 575 632 q 642 544 626 579 q 657 469 657 508 q 642 394 657 429 q 601 334 626 360 q 540 293 575 308 q 465 278 504 278 q 390 293 425 278 q 328 334 354 308 q 288 394 303 360 q 272 469 272 429 q 288 545 272 510 q 329 606 303 581 q 391 647 356 632 q 467 663 426 663 z "},"<":{"ha":694,"x_min":46,"x_max":647,"o":"m 647 675 l 204 463 l 647 250 l 647 103 l 46 400 l 46 526 l 647 824 l 647 675 z "},">":{"ha":694,"x_min":47,"x_max":649,"o":"m 649 526 l 649 400 l 47 103 l 47 250 l 490 463 l 47 675 l 47 824 l 649 526 z "},"¬":{"ha":694,"x_min":46,"x_max":647,"o":"m 503 263 l 46 263 l 46 393 l 647 393 l 647 0 l 503 0 l 503 263 z "},"^":{"ha":694,"x_min":35,"x_max":660,"o":"m 35 507 l 264 929 l 431 929 l 660 507 l 525 507 l 347 829 l 169 507 l 35 507 z "},"|":{"ha":694,"x_min":272,"x_max":421,"o":"m 421 926 l 421 -232 l 272 -232 l 272 926 l 421 926 z "},"¦":{"ha":694,"x_min":272,"x_max":421,"o":"m 421 926 l 421 451 l 272 451 l 272 926 l 421 926 m 421 213 l 421 -232 l 272 -232 l 272 213 l 421 213 z "},"_":{"ha":694,"x_min":0,"x_max":694,"o":"m 694 -90 l 694 -183 l 0 -183 l 0 -90 l 694 -90 z "},"~":{"ha":926,"x_min":131,"x_max":799,"o":"m 131 851 q 216 980 169 939 q 325 1021 263 1021 q 388 1010 354 1021 q 482 971 422 999 q 531 949 511 957 q 563 935 550 940 q 586 929 576 931 q 607 928 596 928 q 667 950 640 928 q 722 1025 693 972 l 799 964 q 711 833 757 874 q 603 793 665 793 q 578 795 590 793 q 549 803 565 797 q 508 818 532 808 q 451 843 485 828 q 401 865 421 857 q 367 878 381 874 q 342 885 353 883 q 319 886 332 886 q 262 865 288 886 q 206 790 236 843 l 131 851 z "},"µ":{"ha":642,"x_min":-6,"x_max":665,"o":"m 665 49 l 521 -14 q 515 -15 519 -15 q 446 64 467 -15 q 443 78 444 71 q 439 92 442 85 q 379 34 404 56 q 333 0 354 13 q 290 -17 311 -12 q 243 -21 269 -21 q 151 7 185 -21 q 93 99 117 35 q 94 33 93 54 q 97 -8 94 11 q 105 -45 100 -19 q 122 -125 110 -71 q 133 -199 133 -172 q 113 -248 133 -228 q 64 -268 93 -268 q 14 -249 33 -268 q -6 -199 -6 -229 q 6 -110 -6 -165 q 22 -6 14 -64 q 35 116 29 53 q 43 242 40 179 q 46 363 46 306 l 46 635 l 186 635 l 186 236 q 192 143 186 175 q 214 89 199 111 q 247 64 226 74 q 289 54 267 54 q 361 75 329 54 q 431 147 393 96 l 431 635 l 569 635 l 569 172 q 581 85 569 107 q 625 63 592 63 q 665 74 643 63 l 665 49 z "},"Ä":{"ha":1069,"x_min":4,"x_max":1074,"o":"m 285 240 l 215 83 q 206 60 207 64 q 204 49 204 56 q 213 31 204 38 q 244 22 221 25 l 244 0 l 4 0 l 4 22 q 28 28 18 24 q 46 42 38 32 q 63 67 54 51 q 85 110 72 83 l 414 842 q 424 865 421 858 q 426 878 426 872 q 419 894 426 889 q 393 904 413 900 l 393 926 l 664 926 l 664 904 q 638 892 644 899 q 631 875 631 886 q 633 865 631 871 q 643 842 635 860 l 976 136 q 1003 77 993 99 q 1023 45 1014 56 q 1043 31 1032 35 q 1074 22 1054 26 l 1074 0 l 815 0 l 815 22 q 856 51 856 26 q 840 93 856 61 l 771 240 l 285 240 m 522 775 l 339 361 l 715 361 l 522 775 m 408 1165 q 461 1142 439 1165 q 483 1088 483 1119 q 461 1033 483 1056 q 407 1011 439 1011 q 352 1033 375 1011 q 329 1088 329 1056 q 352 1142 329 1119 q 408 1165 375 1165 m 654 1165 q 707 1142 685 1165 q 729 1088 729 1119 q 706 1033 729 1056 q 651 1011 683 1011 q 597 1033 619 1011 q 575 1088 575 1056 q 598 1142 575 1119 q 654 1165 621 1165 z "},"Á":{"ha":1069,"x_min":4,"x_max":1074,"o":"m 285 240 l 215 83 q 206 60 207 64 q 204 49 204 56 q 213 31 204 38 q 244 22 221 25 l 244 0 l 4 0 l 4 22 q 28 28 18 24 q 46 42 38 32 q 63 67 54 51 q 85 110 72 83 l 414 842 q 424 865 421 858 q 426 878 426 872 q 419 894 426 889 q 393 904 413 900 l 393 926 l 664 926 l 664 904 q 638 892 644 899 q 631 875 631 886 q 633 865 631 871 q 643 842 635 860 l 976 136 q 1003 77 993 99 q 1023 45 1014 56 q 1043 31 1032 35 q 1074 22 1054 26 l 1074 0 l 815 0 l 815 22 q 856 51 856 26 q 840 93 856 61 l 771 240 l 285 240 m 522 775 l 339 361 l 715 361 l 522 775 m 706 1179 q 685 1174 692 1178 q 671 1160 678 1171 l 579 1043 q 575 1032 575 1039 q 589 1021 575 1021 l 592 1021 l 592 1003 l 456 1003 l 456 1021 q 478 1025 471 1021 q 492 1046 485 1029 l 542 1156 q 544 1165 544 1164 q 525 1179 544 1176 l 525 1197 l 706 1197 l 706 1179 z "},"À":{"ha":1069,"x_min":4,"x_max":1074,"o":"m 285 240 l 215 83 q 206 60 207 64 q 204 49 204 56 q 213 31 204 38 q 244 22 221 25 l 244 0 l 4 0 l 4 22 q 28 28 18 24 q 46 42 38 32 q 63 67 54 51 q 85 110 72 83 l 414 842 q 424 865 421 858 q 426 878 426 872 q 419 894 426 889 q 393 904 413 900 l 393 926 l 664 926 l 664 904 q 638 892 644 899 q 631 875 631 886 q 633 865 631 871 q 643 842 635 860 l 976 136 q 1003 77 993 99 q 1023 45 1014 56 q 1043 31 1032 35 q 1074 22 1054 26 l 1074 0 l 815 0 l 815 22 q 856 51 856 26 q 840 93 856 61 l 771 240 l 285 240 m 522 775 l 339 361 l 715 361 l 522 775 m 535 1197 l 535 1179 q 515 1165 515 1176 q 518 1156 515 1164 l 568 1046 q 582 1025 575 1029 q 604 1021 589 1021 l 604 1003 l 468 1003 l 468 1021 l 471 1021 q 485 1032 485 1021 q 481 1043 485 1039 l 389 1160 q 375 1174 382 1171 q 354 1179 368 1178 l 354 1197 l 535 1197 z "}}}
